<svg width="24" height="24" viewBox="0 0 24 24" fill="none" xmlns="http://www.w3.org/2000/svg">
<path fill-rule="evenodd" clip-rule="evenodd" d="M9.54542 6.63636C9.54542 5.18034 10.7258 4 12.1818 4C13.6378 4 14.8181 5.18034 14.8181 6.63636C14.8181 8.09238 13.6378 9.27272 12.1818 9.27272C10.7258 9.27272 9.54542 8.09238 9.54542 6.63636ZM12.1818 2C9.62119 2 7.54542 4.07577 7.54542 6.63636C7.54542 9.19695 9.62119 11.2727 12.1818 11.2727C14.7424 11.2727 16.8181 9.19695 16.8181 6.63636C16.8181 4.07577 14.7424 2 12.1818 2ZM6.57756 15.7548C7.83346 14.3226 9.7828 13.7272 12.1818 13.7272C13.9769 13.7272 15.8093 14.3228 17.1727 15.3454C18.5262 16.3605 19.3636 17.7463 19.3636 19.3636V20.1818H9.3437C8.79142 20.1818 8.3437 20.6295 8.3437 21.1818C8.3437 21.7341 8.79142 22.1818 9.3437 22.1818H19.4545C19.9545 22.1818 20.4488 22.0107 20.8207 21.6389C21.1926 21.267 21.3636 20.7726 21.3636 20.2727V19.3636C21.3636 16.9809 20.1101 15.0485 18.3727 13.7454C16.6452 12.4498 14.3867 11.7272 12.1818 11.7272C9.50248 11.7272 6.86853 12.3896 5.07384 14.4361C4.7097 14.8514 4.75113 15.4832 5.16637 15.8473C5.58162 16.2115 6.21342 16.17 6.57756 15.7548Z" fill="#26313A"/>
<path fill-rule="evenodd" clip-rule="evenodd" d="M4 23C3.44772 23 3 22.5523 3 22V18C3 17.4477 3.44772 17 4 17C4.55228 17 5 17.4477 5 18V22C5 22.5523 4.55228 23 4 23Z" fill="#26313A"/>
<path fill-rule="evenodd" clip-rule="evenodd" d="M1 20C1 19.4477 1.44772 19 2 19H6C6.55228 19 7 19.4477 7 20C7 20.5523 6.55228 21 6 21H2C1.44772 21 1 20.5523 1 20Z" fill="#26313A"/>
</svg>
