<svg width="24" height="24" viewBox="0 0 24 24" color="#00ADE6" xmlns="http://www.w3.org/2000/svg">
<path d="M12 24C18.6274 24 24 18.6274 24 12C24 5.37258 18.6274 0 12 0C5.37258 0 0 5.37258 0 12C0 18.6274 5.37258 24 12 24Z" fill="currentColor"/>
<path fill-rule="evenodd" clip-rule="evenodd" d="M11 18C11 18.5523 11.4477 19 12 19C12.5523 19 13 18.5523 13 18V13H18C18.5523 13 19 12.5523 19 12C19 11.4477 18.5523 11 18 11H13V6C13 5.44771 12.5523 5 12 5C11.4477 5 11 5.44771 11 6V11H6C5.44771 11 5 11.4477 5 12C5 12.5523 5.44771 13 6 13H11V18Z" fill="white"/>
</svg>