<svg width="24" height="24" viewBox="0 0 24 24" fill="none" color="#26313A"
    xmlns="http://www.w3.org/2000/svg">
    <g id="Icon / General / Attachment">
        <path id="Shape" fill-rule="evenodd" clip-rule="evenodd" d="M15.7868 3.76908C15.044 3.76908 14.3316 4.04887 13.8064 4.54689L5.23294 12.6758C4.35759 13.5058 3.86582 14.6315 3.86582 15.8053C3.86582 16.979 4.35759 18.1047 5.23294 18.9347C6.1083 19.7646 7.29553 20.2309 8.53347 20.2309C9.77141 20.2309 10.9586 19.7646 11.834 18.9347L20.4074 10.8057C20.7717 10.4603 21.3624 10.4603 21.7268 10.8057C22.0911 11.1512 22.0911 11.7112 21.7268 12.0567L13.1533 20.1856C11.9281 21.3473 10.2663 22 8.53347 22C6.80069 22 5.13887 21.3473 3.91361 20.1856C2.68835 19.0239 2 17.4482 2 15.8053C2 14.1623 2.68835 12.5866 3.91361 11.4249L12.487 3.29596C13.3622 2.46617 14.5492 2 15.7868 2C17.0245 2 18.2115 2.46617 19.0866 3.29596C19.9618 4.12575 20.4534 5.25118 20.4534 6.42468C20.4534 7.59818 19.9618 8.72361 19.0866 9.5534L10.5039 17.6823C9.97882 18.1802 9.26669 18.4599 8.52414 18.4599C7.7816 18.4599 7.06947 18.1802 6.54441 17.6823C6.01935 17.1845 5.72438 16.5093 5.72438 15.8053C5.72438 15.1012 6.01935 14.426 6.54441 13.9282L14.4652 6.42687C14.8297 6.08164 15.4204 6.08197 15.7845 6.42761C16.1486 6.77325 16.1483 7.33331 15.7837 7.67854L7.86374 15.1791C7.68884 15.3451 7.5902 15.5706 7.5902 15.8053C7.5902 16.0401 7.68859 16.2653 7.86374 16.4314C8.03889 16.5975 8.27644 16.6908 8.52414 16.6908C8.77184 16.6908 9.00939 16.5975 9.18454 16.4314L17.7673 8.30247C18.2923 7.80448 18.5876 7.12883 18.5876 6.42468C18.5876 5.72037 18.2925 5.04491 17.7673 4.54689C17.242 4.04887 16.5296 3.76908 15.7868 3.76908Z" fill="currentColor"/>
    </g>
</svg>
