<svg xmlns="http://www.w3.org/2000/svg" width="24" height="24" viewBox="0 0 24 24" color="#8499AB" fill="none">
    <path d="M18.3626 5.63093C17.5815 4.85059 16.3152 4.85059 15.5341 5.63092L11.9986 9.16325C11.6081 9.55342 10.9749 9.55342 10.5844 9.16325C10.1939 8.77308 10.1939 8.14049 10.5844 7.75032L14.1199 4.218C15.682 2.65732 18.2147 2.65732 19.7768 4.218C21.3389 5.77867 21.3389 8.30903 19.7768 9.86971L16.2412 13.402C15.8507 13.7922 15.2175 13.7922 14.827 13.402C14.4365 13.0119 14.4365 12.3793 14.827 11.9891L18.3626 8.45678C19.1436 7.67645 19.1436 6.41126 18.3626 5.63093Z" fill="currentColor"/>
    <path d="M8.4719 4.91809C8.61484 5.45108 9.16318 5.76737 9.69665 5.62456C10.2301 5.48175 10.5467 4.93391 10.4038 4.40093L9.88612 2.47083C9.74317 1.93785 9.19484 1.62155 8.66137 1.76436C8.1279 1.90718 7.81132 2.45501 7.95426 2.988L8.4719 4.91809Z" fill="currentColor"/>
    <path d="M7.04884 7.04385C7.43937 6.65368 7.43937 6.02109 7.04884 5.63093L5.63463 4.218C5.2441 3.82783 4.61094 3.82783 4.22041 4.218C3.82989 4.60817 3.82989 5.24076 4.22041 5.63093L5.63463 7.04385C6.02515 7.43402 6.65832 7.43402 7.04884 7.04385Z" fill="currentColor"/>
    <path d="M5.63631 9.68121C5.77925 9.14823 5.46267 8.60039 4.9292 8.45758L2.99735 7.94041C2.46388 7.7976 1.91555 8.11389 1.7726 8.64687C1.62966 9.17986 1.94624 9.7277 2.47971 9.87051L4.41156 10.3877C4.94503 10.5305 5.49336 10.2142 5.63631 9.68121Z" fill="currentColor"/>
    <path d="M16.9483 16.9344C17.3389 16.5442 17.972 16.5442 18.3626 16.9344L19.7768 18.3473C20.1673 18.7375 20.1673 19.3701 19.7768 19.7602C19.3862 20.1504 18.7531 20.1504 18.3626 19.7602L16.9483 18.3473C16.5578 17.9571 16.5578 17.3245 16.9483 16.9344Z" fill="currentColor"/>
    <path d="M15.5361 19.0548C15.3932 18.5219 14.8448 18.2056 14.3113 18.3484C13.7779 18.4912 13.4613 19.039 13.6042 19.572L14.1219 21.5021C14.2648 22.0351 14.8132 22.3514 15.3466 22.2086C15.8801 22.0658 16.1967 21.5179 16.0537 20.9849L15.5361 19.0548Z" fill="currentColor"/>
    <path d="M18.3703 14.2903C18.2274 14.8233 18.5439 15.3712 19.0774 15.514L21.0093 16.0311C21.5427 16.174 22.0911 15.8577 22.234 15.3247C22.377 14.7917 22.0604 14.2439 21.5269 14.101L19.5951 13.5839C19.0616 13.4411 18.5132 13.7574 18.3703 14.2903Z" fill="currentColor"/>
    <path d="M5.63463 15.5214C4.85358 16.3018 4.85358 17.567 5.63463 18.3473C6.41568 19.1276 7.68201 19.1276 8.46306 18.3473L11.9986 14.815C12.3891 14.4248 13.0223 14.4248 13.4128 14.815C13.8033 15.2051 13.8033 15.8377 13.4128 16.2279L9.87727 19.7602C8.31517 21.3209 5.78251 21.3209 4.22041 19.7602C2.65832 18.1995 2.65832 15.6692 4.22041 14.1085L7.75595 10.5762C8.14647 10.186 8.77964 10.186 9.17016 10.5762C9.56069 10.9663 9.56069 11.5989 9.17016 11.9891L5.63463 15.5214Z" fill="currentColor"/>
</svg>