<svg width="24" height="24" viewBox="0 0 24 24" fill="none"
    xmlns="http://www.w3.org/2000/svg">
    <path fill-rule="evenodd" clip-rule="evenodd" d="M8.94724 4.34234C9.13715 4.12482 9.41181 4 9.70056 4H14.2994C14.5882 4 14.8629 4.12482 15.0528 4.34234L16.6073 6.12297C17.177 6.77554 18.001 7.15 18.8672 7.15H21C21.5523 7.15 22 7.59771 22 8.15V19C22 19.5523 21.5523 20 21 20H3C2.44772 20 2 19.5523 2 19V8.15C2 7.59771 2.44771 7.15 3 7.15H5.13277C5.99904 7.15 6.82302 6.77555 7.39272 6.12297L8.94724 4.34234ZM9.70056 2C8.83429 2 8.01031 2.37446 7.44061 3.02703L5.88609 4.80766C5.69619 5.02518 5.42153 5.15 5.13277 5.15H3C1.34315 5.15 0 6.49314 0 8.15V19C0 20.6569 1.34315 22 3 22H21C22.6569 22 24 20.6569 24 19V8.15C24 6.49315 22.6569 5.15 21 5.15H18.8672C18.5785 5.15 18.3038 5.02518 18.1139 4.80766L16.5594 3.02703C15.9897 2.37445 15.1657 2 14.2994 2H9.70056ZM15 13.5C15 15.1569 13.6569 16.5 12 16.5C10.3431 16.5 9 15.1569 9 13.5C9 11.8431 10.3431 10.5 12 10.5C13.6569 10.5 15 11.8431 15 13.5ZM17 13.5C17 16.2614 14.7614 18.5 12 18.5C9.23858 18.5 7 16.2614 7 13.5C7 10.7386 9.23858 8.5 12 8.5C14.7614 8.5 17 10.7386 17 13.5Z" fill="#000"/>
</svg>
