<svg width="24" height="24" viewBox="0 0 24 24" fill="none" xmlns="http://www.w3.org/2000/svg">
<path fill-rule="evenodd" clip-rule="evenodd" d="M6 2C3.24772 2 1 4.24772 1 7V13C1 15.41 2.72346 17.4332 5 17.8991V21C5 21.4022 5.24098 21.7653 5.61162 21.9215C5.98226 22.0777 6.41042 21.9967 6.69832 21.7158L10.507 18H18C20.7523 18 23 15.7523 23 13V7C23 4.24772 20.7523 2 18 2H6ZM3 7C3 5.35228 4.35228 4 6 4H18C19.6477 4 21 5.35228 21 7V13C21 14.6477 19.6477 16 18 16H10.1C9.83906 16 9.58846 16.102 9.40168 16.2842L7 18.6273V17C7 16.4477 6.55228 16 6 16C4.35228 16 3 14.6477 3 13V7ZM7.2801 10.6524C7.4611 10.8324 7.7201 10.9424 7.9911 10.9424C8.2511 10.9424 8.5111 10.8324 8.6901 10.6524C8.8811 10.4624 8.9911 10.2024 8.9911 9.9424C8.9911 9.8124 8.9611 9.68239 8.9111 9.5624C8.8601 9.4424 8.7911 9.3324 8.6901 9.2324C8.3201 8.86239 7.6501 8.86239 7.2801 9.2324C7.1901 9.3324 7.1101 9.4424 7.0601 9.5624C7.0111 9.68239 6.9801 9.8124 6.9801 9.9424C6.9801 10.2024 7.0911 10.4624 7.2801 10.6524ZM11.9911 10.9424C11.7201 10.9424 11.4611 10.8324 11.2801 10.6524C11.0911 10.4624 10.9911 10.2024 10.9911 9.9424C10.9911 9.8124 11.0111 9.68239 11.0601 9.5624C11.1101 9.43239 11.1901 9.3324 11.2801 9.2324C11.6501 8.86239 12.3201 8.86239 12.6901 9.2324C12.7911 9.3324 12.8601 9.43239 12.9111 9.5624C12.9611 9.68239 12.9801 9.8124 12.9801 9.9424C12.9801 10.0724 12.9611 10.2024 12.9111 10.3224C12.8601 10.4524 12.7911 10.5524 12.6901 10.6524C12.5111 10.8324 12.2511 10.9424 11.9911 10.9424ZM15.2909 10.6524C15.4799 10.8324 15.7299 10.9424 16.0009 10.9424C16.2609 10.9424 16.5209 10.8324 16.7009 10.6524C16.8909 10.4624 17.0009 10.2024 17.0009 9.9424C17.0009 9.68239 16.8909 9.4224 16.7009 9.2324C16.3309 8.86239 15.6609 8.86239 15.2909 9.2324C15.2009 9.3324 15.1209 9.43239 15.0699 9.5624C15.0209 9.68239 15.0009 9.8124 15.0009 9.9424C15.0009 10.2024 15.1009 10.4624 15.2909 10.6524Z" fill="#00ADE6"/>
</svg>
