<svg width="29" height="28" viewBox="0 0 29 28" fill="none" xmlns="http://www.w3.org/2000/svg">
<path fill-rule="evenodd" clip-rule="evenodd" d="M6.125 6C3.37272 6 1.125 8.24772 1.125 11V17C1.125 19.41 2.84846 21.4332 5.125 21.8991V25C5.125 25.4022 5.36598 25.7653 5.73662 25.9215C6.10726 26.0777 6.53542 25.9967 6.82332 25.7158L10.632 22H18.125C20.8773 22 23.125 19.7523 23.125 17V11C23.125 8.24772 20.8773 6 18.125 6H6.125ZM3.125 11C3.125 9.35228 4.47728 8 6.125 8H18.125C19.7727 8 21.125 9.35228 21.125 11V17C21.125 18.6477 19.7727 20 18.125 20H10.225C9.96406 20 9.71346 20.102 9.52668 20.2842L7.125 22.6273V21C7.125 20.4477 6.67728 20 6.125 20C4.47728 20 3.125 18.6477 3.125 17V11ZM7.4051 14.6524C7.5861 14.8324 7.8451 14.9424 8.1161 14.9424C8.3761 14.9424 8.6361 14.8324 8.8151 14.6524C9.0061 14.4624 9.1161 14.2024 9.1161 13.9424C9.1161 13.8124 9.0861 13.6824 9.0361 13.5624C8.9851 13.4424 8.9161 13.3324 8.8151 13.2324C8.4451 12.8624 7.7751 12.8624 7.4051 13.2324C7.3151 13.3324 7.2351 13.4424 7.1851 13.5624C7.1361 13.6824 7.1051 13.8124 7.1051 13.9424C7.1051 14.2024 7.2161 14.4624 7.4051 14.6524ZM12.1161 14.9424C11.8451 14.9424 11.5861 14.8324 11.4051 14.6524C11.2161 14.4624 11.1161 14.2024 11.1161 13.9424C11.1161 13.8124 11.1361 13.6824 11.1851 13.5624C11.2351 13.4324 11.3151 13.3324 11.4051 13.2324C11.7751 12.8624 12.4451 12.8624 12.8151 13.2324C12.9161 13.3324 12.9851 13.4324 13.0361 13.5624C13.0861 13.6824 13.1051 13.8124 13.1051 13.9424C13.1051 14.0724 13.0861 14.2024 13.0361 14.3224C12.9851 14.4524 12.9161 14.5524 12.8151 14.6524C12.6361 14.8324 12.3761 14.9424 12.1161 14.9424ZM15.4159 14.6524C15.6049 14.8324 15.8549 14.9424 16.1259 14.9424C16.3859 14.9424 16.6459 14.8324 16.8259 14.6524C17.0159 14.4624 17.1259 14.2024 17.1259 13.9424C17.1259 13.6824 17.0159 13.4224 16.8259 13.2324C16.4559 12.8624 15.7859 12.8624 15.4159 13.2324C15.3259 13.3324 15.2459 13.4324 15.1949 13.5624C15.1459 13.6824 15.1259 13.8124 15.1259 13.9424C15.1259 14.2024 15.2259 14.4624 15.4159 14.6524Z" fill="#00ADE6"/>
<rect x="15.125" y="3" width="10" height="10" rx="5" fill="#F91077" stroke="white" stroke-width="2"/>
</svg>
