<svg width="67" height="66" viewBox="0 0 67 66" fill="none" xmlns="http://www.w3.org/2000/svg">
<path fill-rule="evenodd" clip-rule="evenodd" d="M40.339 32.3234C39.04 33.6279 36.9294 33.6323 35.625 32.3333L32.8609 29.26C30.2558 26.6658 26.0424 26.6702 23.4427 29.2699L9.28579 43.4268C6.6823 46.0303 6.6823 50.2514 9.28579 52.8549L13.7606 57.3297C16.4255 59.9946 20.768 59.9224 23.3429 57.1702L29.2884 50.8234C30.5461 49.4791 32.6555 49.4089 33.9998 50.6666C35.3442 51.9244 35.4144 54.0337 34.1567 55.3781L28.2111 61.7249C23.0614 67.2291 14.3764 67.3736 9.04653 62.0437L4.57175 57.5689C-0.635244 52.3619 -0.635244 43.9198 4.57175 38.7128L18.7287 24.5558C23.928 19.3566 32.3549 19.3477 37.5651 24.5361L40.3291 27.6094C41.6336 28.9084 41.638 31.019 40.339 32.3234Z" fill="currentColor"/>
<path fill-rule="evenodd" clip-rule="evenodd" d="M38.7159 4.58763C43.9149 -0.640032 52.3643 -0.635043 57.57 4.57062L62.284 9.28466C67.491 14.4917 67.491 22.9339 62.284 28.1408L48.1419 42.283C42.9338 47.491 34.4966 47.4874 29.2792 42.3055C27.7153 40.7521 28.0469 40.6034 26.0427 38.5992C24.7409 37.2974 24.7409 35.1869 26.0427 33.8851C27.3444 32.5834 29.455 32.5834 30.7567 33.8851C32.7528 35.8812 32.4147 36.0236 33.9772 37.5754C36.5969 40.1773 40.8254 40.1714 43.4278 37.5689L57.57 23.4268C60.1735 20.8233 60.1735 16.6022 57.57 13.9987L52.8559 9.28466C50.2511 6.67984 46.0328 6.68448 43.4428 9.28872C42.9998 9.7342 42.5713 10.1652 42.1474 10.5916C40.1792 12.5713 39.8097 12.9042 37.0472 15.6666C35.7455 16.9684 33.6349 16.9684 32.3332 15.6666C31.0314 14.3649 31.0314 12.2543 32.3332 10.9526C35.0882 8.19751 35.4507 7.87178 37.4182 5.89272C37.8425 5.46594 38.2717 5.03422 38.7159 4.58763Z" fill="currentColor"/>
</svg>
