<svg width="24" height="24" viewBox="0 0 24 24" fill="none" color="#26313A" xmlns="http://www.w3.org/2000/svg">
<path fill-rule="evenodd" clip-rule="evenodd" d="M5.5 1H13.5388C14.214 1 14.8605 1.27316 15.3312 1.7573L20.2925 6.8603C20.7462 7.32695 21 7.95214 21 8.60299V20.5C21 21.8807 19.8807 23 18.5 23H5.5C4.11929 23 3 21.8807 3 20.5V3.5C3 2.11929 4.11929 1 5.5 1ZM5.5 3H12V8C12 8.55228 12.4477 9 13 9H19V20.5C19 20.7761 18.7761 21 18.5 21H5.5C5.22386 21 5 20.7761 5 20.5V3.5C5 3.22386 5.22386 3 5.5 3ZM14 3.25714L17.6389 7H14V3.25714ZM8 12C7.44772 12 7 12.4477 7 13C7 13.5523 7.44772 14 8 14H16C16.5523 14 17 13.5523 17 13C17 12.4477 16.5523 12 16 12H8ZM7 17C7 16.4477 7.44772 16 8 16H16C16.5523 16 17 16.4477 17 17C17 17.5523 16.5523 18 16 18H8C7.44772 18 7 17.5523 7 17ZM8 8C7.44772 8 7 8.44772 7 9C7 9.55229 7.44772 10 8 10H10C10.5523 10 11 9.55229 11 9C11 8.44772 10.5523 8 10 8H8Z" fill="currentColor"/>
</svg>
