<svg width="80" height="80" viewBox="0 0 80 80" fill="none" xmlns="http://www.w3.org/2000/svg">
<path d="M73.3332 66.6667C73.3332 67.5507 72.982 68.3986 72.3569 69.0237C71.7317 69.6488 70.8839 70 69.9998 70H9.99984C9.11578 70 8.26794 69.6488 7.64281 69.0237C7.01769 68.3986 6.6665 67.5507 6.6665 66.6667C6.6665 65.7826 7.01769 64.9348 7.64281 64.3096C8.26794 63.6845 9.11578 63.3333 9.99984 63.3333H36.9998L24.2998 50.6667C23.989 50.3559 23.7425 49.9869 23.5743 49.5808C23.4061 49.1748 23.3195 48.7395 23.3195 48.3C23.3195 47.4123 23.6722 46.561 24.2998 45.9333C24.9275 45.3057 25.7788 44.953 26.6665 44.953C27.5542 44.953 28.4055 45.3057 29.0332 45.9333L36.6665 53.6V13.3333C36.6665 12.4493 37.0177 11.6014 37.6428 10.9763C38.2679 10.3512 39.1158 10 39.9998 10C40.8839 10 41.7317 10.3512 42.3569 10.9763C42.982 11.6014 43.3332 12.4493 43.3332 13.3333V53.6L50.9665 45.9333C51.5942 45.3057 52.4455 44.953 53.3332 44.953C54.2208 44.953 55.0722 45.3057 55.6998 45.9333C56.3275 46.561 56.6801 47.4123 56.6801 48.3C56.6801 49.1877 56.3275 50.039 55.6998 50.6667L42.9998 63.3333H69.9998C70.8839 63.3333 71.7317 63.6845 72.3569 64.3096C72.982 64.9348 73.3332 65.7826 73.3332 66.6667Z" fill="currentColor"/>
</svg>
