<svg width="22" height="24" viewBox="0 0 22 24" fill="none" xmlns="http://www.w3.org/2000/svg">
<path fill-rule="evenodd" clip-rule="evenodd" d="M15.791 2.03875C16.1588 1.95276 16.7236 1.96412 17.1454 2.42427L19.8954 5.42427C20.3074 5.87374 20.2856 6.45506 20.1944 6.80335C20.1039 7.14898 19.8908 7.51659 19.5305 7.77266L11.6415 16.28C11.568 16.3593 11.4821 16.4261 11.3871 16.4779C11.3585 16.4935 11.3366 16.5083 11.2673 16.5587L11.2597 16.5642C11.1907 16.6145 11.0779 16.6965 10.9288 16.7779C10.8176 16.8385 10.696 16.8775 10.5703 16.8927L7.27026 17.2927C7.23033 17.2976 7.19015 17.3 7.14993 17.3C6.77663 17.3 6.34107 17.16 6.04278 16.7803C5.75751 16.4173 5.71207 15.9816 5.80034 15.6062L6.25055 12.2664C6.27622 12.076 6.35616 11.8973 6.48045 11.7514C6.4901 11.7367 6.50248 11.7167 6.52581 11.6785L6.52893 11.6734L6.52894 11.6734C6.54981 11.6392 6.5817 11.5871 6.61579 11.5359C6.65033 11.4841 6.70603 11.4043 6.77944 11.3243L14.7544 2.62427C14.7867 2.58909 14.8214 2.55626 14.8583 2.52604C15.1118 2.31869 15.4314 2.12282 15.791 2.03875ZM16.0416 4.17989L15.1065 5.19995L17.1358 7.41371L18.0763 6.39954L16.0416 4.17989ZM8.27551 12.652L13.75 6.67984L15.7714 8.88504L10.2715 14.8159C10.1992 14.8625 10.1412 14.9046 10.0993 14.9352L7.87249 15.2051L8.20025 12.7737L8.22926 12.7265L8.23237 12.7214C8.25395 12.6861 8.26616 12.6663 8.27551 12.652ZM2.75 1.99997C2.19772 1.99997 1.75 2.44768 1.75 2.99997V21C1.75 21.5523 2.19772 22 2.75 22H19.25C19.8023 22 20.25 21.5523 20.25 21V15.7C20.25 15.1477 19.8023 14.7 19.25 14.7C18.6977 14.7 18.25 15.1477 18.25 15.7V20H3.75V3.99997H7.60834C8.16062 3.99997 8.60834 3.55225 8.60834 2.99997C8.60834 2.44768 8.16062 1.99997 7.60834 1.99997H2.75Z" fill="#26313A"/>
</svg>
