<svg width="80" height="80" viewBox="0 0 80 80" fill="none" xmlns="http://www.w3.org/2000/svg">
<path d="M77.4989 25.4582C76.8359 25.4582 76.1998 25.1948 75.731 24.7261C75.2623 24.2573 74.9989 23.6217 74.9989 22.9582V16.1335C74.9944 13.182 73.8203 10.3527 71.7333 8.26572C69.6463 6.17872 66.8171 5.00457 63.8656 5.00014H57.041C56.1476 5.00014 55.3223 4.52358 54.8758 3.75014C54.4294 2.97669 54.4294 2.02356 54.8758 1.25013C55.3223 0.476695 56.1476 0.00012207 57.041 0.00012207H63.8656C68.1425 0.00681852 72.2423 1.70884 75.2663 4.73285C78.2903 7.75686 79.9923 11.8567 79.999 16.1336V22.9583C79.999 23.6218 79.7356 24.2575 79.2668 24.7262C78.7981 25.195 78.1619 25.4584 77.499 25.4584L77.4989 25.4582Z" fill="black"/>
<path d="M63.8656 79.9998H57.041C56.1476 79.9998 55.3223 79.5232 54.8758 78.7498C54.4294 77.9764 54.4294 77.0232 54.8758 76.2498C55.3223 75.4764 56.1476 74.9998 57.041 74.9998H63.8656C66.8171 74.9953 69.6463 73.8212 71.7333 71.7342C73.8203 69.6472 74.9944 66.8179 74.9989 63.8665V57.0417C74.9989 56.1483 75.4754 55.323 76.2489 54.8766C77.0223 54.4301 77.9754 54.4301 78.7488 54.8766C79.5223 55.323 79.9988 56.1483 79.9988 57.0417V63.8665C79.9921 68.1433 78.2901 72.2432 75.2662 75.2672C72.2422 78.2912 68.1423 79.9932 63.8655 79.9999L63.8656 79.9998Z" fill="black"/>
<path d="M2.49999 25.4582C1.83705 25.4582 1.20088 25.1948 0.732139 24.7261C0.263399 24.2573 0 23.6217 0 22.9582V16.1335C0.00669639 11.8566 1.7087 7.75674 4.73269 4.73273C7.75667 1.70872 11.8565 0.00671431 16.1333 0H22.958C23.8514 0 24.6767 0.476559 25.1232 1.25C25.5696 2.02345 25.5696 2.97658 25.1232 3.75001C24.6767 4.52344 23.8514 5.00002 22.958 5.00002H16.1333C13.1819 5.00448 10.3527 6.17859 8.26567 8.2656C6.17868 10.3526 5.00454 13.1819 5.00012 16.1333V22.9581C5.00012 23.6216 4.73672 24.2572 4.26798 24.7259C3.79924 25.1947 3.16307 25.4581 2.50013 25.4581L2.49999 25.4582Z" fill="black"/>
<path d="M22.958 79.9998H16.1333C11.8565 79.9931 7.75667 78.2911 4.73269 75.2671C1.70871 72.2431 0.00671425 68.1432 0 63.8663V57.0416C0 56.1482 0.476555 55.3229 1.24999 54.8764C2.02343 54.43 2.97656 54.43 3.74998 54.8764C4.5234 55.3229 4.99997 56.1482 4.99997 57.0416V63.8663C5.00444 66.8178 6.17854 69.6471 8.26553 71.7341C10.3525 73.8211 13.1818 74.9952 16.1332 74.9997H22.9579C23.8513 74.9997 24.6766 75.4762 25.123 76.2497C25.5694 77.0231 25.5694 77.9762 25.123 78.7497C24.6766 79.5231 23.8513 79.9997 22.9579 79.9997L22.958 79.9998Z" fill="black"/>
<path d="M22.9596 29.6996C22.0757 29.7007 21.2269 29.3497 20.6014 28.7247C20.4468 28.569 20.3073 28.3988 20.1851 28.2164C20.0656 28.0339 19.9624 27.8414 19.8765 27.6416C19.7972 27.4379 19.7336 27.2292 19.6851 27.0166C19.6069 26.5841 19.6069 26.141 19.6851 25.708C19.7319 25.4976 19.7961 25.2917 19.8765 25.0913C19.959 24.8899 20.0623 24.6968 20.1851 24.5166C20.4289 24.1499 20.7437 23.8358 21.1097 23.5913C21.2911 23.4708 21.4836 23.3676 21.685 23.2833C21.8865 23.2007 22.0958 23.1393 22.31 23.0997C23.3988 22.8843 24.5232 23.2247 25.31 24.0082C25.6203 24.3179 25.8669 24.6862 26.0349 25.0913C26.1186 25.2906 26.1828 25.497 26.2263 25.708C26.3156 26.1399 26.3156 26.5847 26.2263 27.0166C26.1817 27.2303 26.1175 27.4396 26.0349 27.6416C25.9518 27.843 25.8485 28.0361 25.7263 28.2164C25.6063 28.4005 25.4668 28.5713 25.31 28.7247C25.1582 28.8787 24.9908 29.0155 24.81 29.1332C24.6292 29.2554 24.4367 29.3587 24.2347 29.4412C24.0327 29.5244 23.8234 29.5886 23.6097 29.6332C23.396 29.6762 23.1783 29.6985 22.9596 29.6996L22.9596 29.6996Z" fill="black"/>
<path d="M57.0422 29.6997C56.8234 29.6986 56.6058 29.6763 56.3921 29.6333C56.1778 29.5898 55.9685 29.5256 55.7671 29.4414C55.5651 29.3588 55.3725 29.2555 55.1917 29.1333C55.0109 29.0156 54.8435 28.8789 54.6917 28.7248C54.064 28.1004 53.7102 27.2521 53.7085 26.3665C53.7096 26.1456 53.7319 25.9251 53.7755 25.7081C53.819 25.4971 53.8832 25.2906 53.9669 25.0914C54.0511 24.8905 54.1544 24.698 54.2755 24.5166C54.3932 24.3308 54.5333 24.1601 54.6918 24.0083C54.843 23.8515 55.011 23.712 55.1918 23.5914C55.3748 23.4726 55.5668 23.3693 55.7671 23.2834C55.9702 23.203 56.1789 23.1389 56.3921 23.0914C56.824 23.0083 57.2682 23.0083 57.7001 23.0914C57.9105 23.1388 58.117 23.203 58.3167 23.2834C58.5187 23.366 58.7112 23.4692 58.892 23.5914C59.0756 23.712 59.2464 23.8515 59.4004 24.0083C59.5544 24.1645 59.6939 24.3347 59.8167 24.5166C59.9378 24.698 60.041 24.8905 60.1253 25.0914C60.2068 25.2906 60.2682 25.4971 60.3089 25.7081C60.3558 25.9246 60.3781 26.1456 60.3753 26.3665C60.3753 27.2505 60.0243 28.0987 59.3988 28.7237C58.7738 29.3487 57.9261 29.6997 57.0422 29.6997L57.0422 29.6997Z" fill="black"/>
<path d="M36.5918 45.9083H33.184C32.2906 45.9083 31.4653 45.4317 31.0188 44.6583C30.5718 43.8848 30.5718 42.9317 31.0188 42.1583C31.4653 41.3848 32.2906 40.9083 33.184 40.9083H36.5924H36.5918C36.8329 40.9083 37.0639 40.8123 37.2341 40.6421C37.4049 40.4719 37.5003 40.2409 37.5003 39.9998V26.3663C37.5003 25.4734 37.9768 24.6482 38.7503 24.2012C39.5237 23.7547 40.4768 23.7547 41.2503 24.2012C42.0237 24.6481 42.5003 25.4735 42.5003 26.3663V39.9998C42.498 41.5662 41.8747 43.0679 40.7676 44.1751C39.6599 45.2828 38.1582 45.9061 36.5919 45.9084L36.5918 45.9083Z" fill="black"/>
<path d="M40.0006 62.7084C35.9928 62.7178 32.0692 61.5599 28.7088 59.3752L28.4092 59.1671C27.7953 58.8328 27.3495 58.2575 27.1798 57.5795C27.0096 56.902 27.1307 56.1844 27.5141 55.6002C27.8974 55.0159 28.5074 54.6186 29.1965 54.5048C29.8862 54.3909 30.5916 54.5706 31.1423 55.0003L31.4426 55.2001H31.442C34.033 56.8904 37.067 57.7738 40.1601 57.7381C43.2532 57.7029 46.2661 56.7498 48.8169 55.0004C49.5613 54.497 50.5178 54.4295 51.3253 54.8223C52.1334 55.2152 52.6702 56.0093 52.7338 56.9055C52.7974 57.8017 52.3783 58.6639 51.6339 59.1672C48.2009 61.4909 44.1462 62.7252 40.0006 62.7085L40.0006 62.7084Z" fill="black"/>
</svg>
