<svg width="24" height="24" viewBox="0 0 24 24" fill="none" xmlns="http://www.w3.org/2000/svg">
<path fill-rule="evenodd" clip-rule="evenodd" d="M12 3C7.02944 3 3 7.02944 3 12C3 16.9706 7.02944 21 12 21C16.9706 21 21 16.9706 21 12C21 7.02944 16.9706 3 12 3ZM1 12C1 5.92487 5.92487 1 12 1C18.0751 1 23 5.92487 23 12C23 18.0751 18.0751 23 12 23C5.92487 23 1 18.0751 1 12ZM12.6357 16.376C12.6357 16.9283 12.188 17.376 11.6357 17.376C11.0835 17.376 10.6357 16.9283 10.6357 16.376C10.6357 15.8237 11.0835 15.376 11.6357 15.376C12.188 15.376 12.6357 15.8237 12.6357 16.376ZM10.3047 9.89834C11.0878 8.8369 11.8246 8.53361 12.3351 8.50282C12.8592 8.47122 13.3368 8.71172 13.6525 9.10278C13.9721 9.49874 14.07 9.97526 13.9415 10.3767C13.8209 10.7535 13.4259 11.2869 12.2959 11.6366C11.443 11.9004 11.0133 12.4965 10.8345 13.0329C10.7511 13.2833 10.724 13.5106 10.7166 13.6736C10.7129 13.7566 10.714 13.8273 10.7166 13.8817C10.718 13.9089 10.7196 13.9325 10.7213 13.9517L10.7238 13.9776L10.7249 13.9881L10.7255 13.9927L10.7257 13.9949L10.7258 13.9959C10.7259 13.9964 10.726 13.997 11.7187 13.8763L10.726 13.997C10.7926 14.5452 11.291 14.9357 11.8393 14.869C12.3786 14.8035 12.7652 14.3201 12.7143 13.7825C12.7142 13.7789 12.7142 13.7725 12.7146 13.7639C12.7159 13.7341 12.7211 13.6977 12.7319 13.6654C12.7418 13.6358 12.7524 13.6206 12.7611 13.6115L12.7612 13.6114C12.7664 13.6059 12.7952 13.5756 12.8871 13.5472C14.4524 13.0629 15.4731 12.1524 15.8463 10.9864C16.2116 9.84513 15.8814 8.68004 15.2088 7.84665C14.5322 7.00836 13.4534 6.43177 12.2147 6.50645C10.9625 6.58195 9.7301 7.30832 8.69528 8.71102C8.36741 9.15545 8.46191 9.78152 8.90634 10.1094C9.35077 10.4373 9.97684 10.3428 10.3047 9.89834Z" fill="#26313A"/>
</svg>
