<svg width="24" height="24" viewBox="0 0 24 24" fill="none" xmlns="http://www.w3.org/2000/svg">
<path fill-rule="evenodd" clip-rule="evenodd" d="M8.1 4C5.85229 4 4 5.85229 4 8.1C4 9.6434 4.85795 11.435 5.83829 12.9423C6.3143 13.6741 6.79193 14.2982 7.15071 14.7392C7.32967 14.9592 7.47795 15.1323 7.58019 15.2489C7.63128 15.3072 7.67079 15.3513 7.69679 15.3801L7.72537 15.4115L7.73159 15.4183L7.73243 15.4192L7.74206 15.4295L7.75163 15.4404L7.76312 15.4535L7.79831 15.4934C7.82935 15.5286 7.87521 15.5805 7.93396 15.6467C8.05149 15.779 8.2205 15.9686 8.4256 16.1961C8.8363 16.6517 9.38952 17.2575 9.96287 17.8616C10.5392 18.469 11.1233 19.0614 11.5989 19.4969C11.7523 19.6375 11.8866 19.7544 12 19.847C12.1134 19.7544 12.2477 19.6375 12.4011 19.4969C12.8767 19.0614 13.4608 18.469 14.0371 17.8616C14.6105 17.2575 15.1637 16.6517 15.5744 16.1961C15.7795 15.9686 15.9485 15.779 16.066 15.6467C16.1248 15.5805 16.1706 15.5286 16.2017 15.4934L16.2369 15.4535L16.2478 15.4411L16.2618 15.4251L16.2754 15.4109L16.2824 15.4034L16.3106 15.3731C16.3364 15.3452 16.3757 15.3022 16.4266 15.2454C16.5284 15.1316 16.6762 14.9624 16.8546 14.7468C17.2124 14.3145 17.6889 13.7009 18.1638 12.9766C19.1396 11.4885 20 9.69533 20 8.1C20 5.85229 18.1477 4 15.9 4C14.6409 4 13.5116 4.63169 12.774 5.53324L12 6.47919L11.226 5.53324C10.4884 4.63169 9.3591 4 8.1 4ZM17.7395 16.7734L17.7014 16.8166C17.6691 16.8532 17.6219 16.9066 17.5617 16.9744C17.4413 17.11 17.2689 17.3033 17.06 17.5351C16.6426 17.9983 16.077 18.6175 15.4879 19.2384C14.9017 19.856 14.2796 20.4886 13.752 20.9718C13.4904 21.2114 13.2329 21.4321 13.0033 21.5987C12.8895 21.6813 12.7613 21.7663 12.628 21.8347C12.5237 21.8882 12.2901 22 12 22C11.7099 22 11.4763 21.8882 11.372 21.8347C11.2387 21.7663 11.1105 21.6813 10.9967 21.5987C10.7671 21.4321 10.5096 21.2114 10.248 20.9718C9.72042 20.4886 9.0983 19.856 8.51213 19.2384C7.92298 18.6175 7.35745 17.9983 6.94002 17.5351C6.73106 17.3033 6.55867 17.11 6.4383 16.9744C6.37811 16.9066 6.3309 16.8532 6.29861 16.8166L6.26159 16.7746L6.25677 16.7691L6.25168 16.7636L6.21337 16.7215C6.18077 16.6855 6.13434 16.6336 6.07606 16.5671C5.95955 16.4341 5.79533 16.2424 5.59929 16.0014C5.20807 15.5205 4.6857 14.8384 4.16171 14.0327C3.14205 12.465 2 10.2566 2 8.1C2 4.74772 4.74772 2 8.1 2C9.61979 2 10.9739 2.59371 12 3.47474C13.0261 2.59371 14.3802 2 15.9 2C19.2523 2 22 4.74772 22 8.1C22 10.3047 20.8604 12.5115 19.8362 14.0734C19.3111 14.8741 18.7876 15.548 18.3954 16.0219C18.1988 16.2594 18.0341 16.4481 17.9172 16.5788C17.8587 16.6442 17.812 16.6953 17.7792 16.7307L17.7406 16.7722L17.7395 16.7734Z" fill="#26313A"/>
</svg>
