<svg width="24" height="24" viewBox="0 0 24 24" fill="none" xmlns="http://www.w3.org/2000/svg">
<path d="M12.83 23C12.5005 22.9991 12.178 22.9046 11.9001 22.7276C11.6221 22.5506 11.4002 22.2983 11.26 22L8.00001 15.18C7.8477 14.8605 7.79766 14.5018 7.85672 14.1528C7.91578 13.8039 8.08106 13.4816 8.33001 13.23L12 9.42C12.1874 9.23375 12.4408 9.12921 12.705 9.12921C12.9692 9.12921 13.2227 9.23375 13.41 9.42C13.5963 9.60737 13.7008 9.86082 13.7008 10.125C13.7008 10.3892 13.5963 10.6426 13.41 10.83L9.86001 14.51L12.76 20.63L19.76 3.23L2.35001 10.23L6.90001 12.37C7.0182 12.4291 7.1236 12.5109 7.21018 12.6107C7.29675 12.7105 7.36282 12.8264 7.40461 12.9518C7.4464 13.0772 7.46308 13.2095 7.45371 13.3413C7.44435 13.4731 7.40911 13.6018 7.35002 13.72C7.29092 13.8382 7.20913 13.9436 7.1093 14.0302C7.00947 14.1167 6.89357 14.1828 6.76821 14.2246C6.64285 14.2664 6.51049 14.2831 6.37868 14.2737C6.24688 14.2643 6.1182 14.2291 6.00001 14.17L1.00001 11.74C0.696454 11.5939 0.441836 11.3628 0.267074 11.0748C0.092311 10.7868 0.00491947 10.4542 0.0155084 10.1175C0.0260973 9.78074 0.134211 9.45433 0.326725 9.17786C0.519239 8.90139 0.787873 8.68675 1.10001 8.56001L19.61 1.13C19.9261 0.999227 20.2738 0.965078 20.6093 1.03187C20.9447 1.09867 21.2529 1.26341 21.4947 1.50527C21.7366 1.74714 21.9014 2.05527 21.9681 2.39074C22.0349 2.7262 22.0008 3.07394 21.87 3.39L14.45 21.91C14.3239 22.2236 14.1093 22.4936 13.8322 22.6872C13.5552 22.8807 13.2278 22.9894 12.89 23H12.83Z" fill="#26313A"/>
</svg>
