<svg width="24" height="24" viewBox="0 0 24 24" fill="none" xmlns="http://www.w3.org/2000/svg">
<path d="M14.5 21C16.0855 21 17.4248 19.9457 17.8551 18.5L21 18.5C21.5523 18.5 22 18.0523 22 17.5C22 16.9477 21.5523 16.5 21 16.5L17.8551 16.5C17.4248 15.0543 16.0855 14 14.5 14C12.9145 14 11.5752 15.0543 11.1449 16.5L3 16.5C2.44771 16.5 2 16.9477 2 17.5C2 18.0523 2.44771 18.5 3 18.5L11.1449 18.5C11.5752 19.9457 12.9145 21 14.5 21ZM14.5 19C14.0557 19 13.6566 18.8069 13.3819 18.5C13.3685 18.485 13.3554 18.4697 13.3425 18.4541C13.1285 18.1949 13 17.8624 13 17.5C13 17.1158 13.1444 16.7654 13.3819 16.5C13.6566 16.1931 14.0557 16 14.5 16C14.9442 16 15.3434 16.1931 15.6181 16.5C15.6315 16.515 15.6446 16.5303 15.6575 16.5459C15.8715 16.8051 16 17.1376 16 17.5C16 17.8842 15.8556 18.2346 15.6181 18.5C15.3434 18.8069 14.9443 19 14.5 19Z" fill="#26313A"/>
<path d="M9.5 10C7.91449 10 6.57521 8.94574 6.14494 7.5L3 7.5C2.44772 7.5 2 7.05228 2 6.5C2 5.94772 2.44772 5.5 3 5.5L6.14494 5.5C6.57521 4.05426 7.91449 3 9.5 3C11.0855 3 12.4248 4.05426 12.8551 5.5L21 5.5C21.5523 5.5 22 5.94771 22 6.5C22 7.05228 21.5523 7.5 21 7.5L12.8551 7.5C12.4248 8.94574 11.0855 10 9.5 10ZM9.5 8C9.94425 8 10.3434 7.80687 10.6181 7.5C10.6315 7.48498 10.6446 7.46969 10.6575 7.45414C10.8715 7.19485 11 6.86244 11 6.5C11 6.11582 10.8556 5.76538 10.6181 5.5C10.3434 5.19312 9.94425 5 9.5 5C9.05575 5 8.65661 5.19313 8.38195 5.5C8.3685 5.51502 8.35536 5.53031 8.34253 5.54586C8.12854 5.80515 8 6.13756 8 6.5C8 6.88418 8.14443 7.23462 8.38195 7.5C8.65661 7.80687 9.05575 8 9.5 8Z" fill="#26313A"/>
</svg>
