<svg width="80" height="80" viewBox="0 0 80 80" fill="none" xmlns="http://www.w3.org/2000/svg">
<path d="M40.9584 0.000827959C27.175 0.000827959 15.0251 7.10047 8.07872 17.8254H8.07809C7.78639 18.2275 7.67225 18.731 7.7623 19.2192C7.85171 19.7069 8.13833 20.1368 8.55432 20.4089C8.97031 20.6803 9.48014 20.7703 9.96399 20.6568C10.4478 20.5439 10.8645 20.2376 11.1162 19.8096C17.4118 10.0877 28.4229 3.62784 40.957 3.62784C49.7821 3.62784 57.814 6.84406 64.012 12.1296H64.0127C64.7812 12.7789 65.9315 12.6838 66.5821 11.9172C67.2334 11.1499 67.1376 10.0014 66.3691 9.35207C59.537 3.52628 50.6617 0 40.9569 0L40.9584 0.000827959ZM40.7599 10.5717H40.7593C39.7561 10.6263 38.9869 11.483 39.0421 12.4842C39.0966 13.4861 39.9546 14.2534 40.9585 14.1988C54.6683 14.1988 65.7181 25.1845 65.7181 38.7701C65.7143 38.8361 65.7143 38.9027 65.7181 38.9686C65.7016 45.4608 64.895 51.7673 63.3616 57.7867H63.361C63.2132 58.263 63.2684 58.7785 63.5138 59.2129C63.7586 59.6473 64.172 59.9618 64.6565 60.0829C65.141 60.204 65.654 60.1203 66.0751 59.8521C66.4961 59.5839 66.7878 59.1545 66.8823 58.665C68.4936 52.3395 69.3409 45.7269 69.3523 38.9118V38.9125C69.3542 38.8649 69.3542 38.818 69.3523 38.7704C69.3523 38.7134 69.3529 38.6576 69.3523 38.6005V38.5719C69.2438 23.1068 56.5543 10.5721 40.9595 10.5721V10.5727C40.893 10.5689 40.827 10.5689 40.7604 10.5727L40.7599 10.5717ZM30.6519 12.5274L30.6512 12.5268C30.4946 12.554 30.3418 12.6016 30.1972 12.6688C19.8964 16.8522 12.6194 26.8746 12.5366 38.5713C12.5328 38.6372 12.5328 38.7038 12.5366 38.7698C12.5328 38.8357 12.5328 38.9023 12.5366 38.9683C12.482 45.8587 9.57522 52.0517 4.92704 56.4828C4.51993 56.7973 4.26501 57.2698 4.22696 57.7821C4.18828 58.2952 4.36964 58.7999 4.72602 59.1715C5.08176 59.5431 5.57892 59.746 6.09383 59.7308C6.60875 59.715 7.09258 59.4822 7.4255 59.0903C12.7719 53.9933 16.1315 46.8376 16.1707 38.9119C16.1726 38.8643 16.1726 38.8174 16.1707 38.7698C16.1733 38.7134 16.1733 38.6563 16.1707 38.5999C16.2418 28.3846 22.5804 19.66 31.5598 16.0123C32.4158 15.6768 32.8857 14.7561 32.6543 13.8677C32.4228 12.9792 31.5629 12.4035 30.6511 12.5265L30.6519 12.5274ZM71.9357 16.7215L71.9351 16.7209C71.2921 16.7792 70.7284 17.173 70.4538 17.7564C70.1792 18.3392 70.235 19.0241 70.6009 19.5554C74.2249 25.047 76.3416 31.6026 76.3645 38.656V38.7695V38.7689C76.3613 38.8348 76.3613 38.9014 76.3645 38.9674C76.3505 44.875 75.7361 50.6506 74.6041 56.227C74.4082 57.2131 75.0505 58.1713 76.0379 58.3666C77.0258 58.5626 77.9859 57.9215 78.1819 56.9354C79.3658 51.1065 79.9898 45.0811 79.9986 38.9111V38.9118C80.0005 38.8642 80.0005 38.8173 79.9986 38.7697V38.5998C79.9992 38.5903 79.9992 38.5808 79.9986 38.5713C79.9586 30.8286 77.6244 23.6103 73.6382 17.5713H73.6388C73.2767 16.9898 72.6185 16.6614 71.935 16.7216L71.9357 16.7215ZM40.9586 21.1142C31.2184 21.1142 23.2623 28.9647 23.1844 38.6287C23.1825 38.6757 23.1825 38.7232 23.1844 38.7702C23.1806 38.8361 23.1806 38.9027 23.1844 38.9686C23.1653 42.3201 22.6657 45.5407 21.7646 48.6042C21.6257 49.0677 21.6777 49.5668 21.9085 49.9916C22.14 50.4165 22.5312 50.7323 22.9967 50.868C23.4615 51.0037 23.9612 50.9492 24.3854 50.7152C24.8103 50.4818 25.1235 50.0893 25.2567 49.6245C26.2586 46.2167 26.8053 42.6326 26.8186 38.9122C26.8205 38.8646 26.8205 38.8177 26.8186 38.7701C26.8211 38.7137 26.8211 38.6566 26.8186 38.6002C26.9118 30.9241 33.1814 24.7419 40.9584 24.7419C45.9623 24.7419 50.3118 27.3088 52.8267 31.1752C53.0899 31.5817 53.5046 31.867 53.9783 31.9685C54.4526 32.07 54.9479 31.9786 55.355 31.7155C55.7621 31.4523 56.0474 31.0382 56.1483 30.5645C56.2491 30.0915 56.1572 29.5975 55.8927 29.191C52.7272 24.3246 47.209 21.1141 40.9577 21.1141L40.9586 21.1142ZM5.06921 26.3286C4.34186 26.4149 3.73691 26.9285 3.53589 27.6324C2.48832 31.1061 1.90619 34.7962 1.88899 38.5997V38.6276V38.769V38.7697C1.88518 38.8356 1.88518 38.9016 1.88899 38.9675C1.85791 41.2771 1.26628 43.4368 0.242078 45.3443C-0.00332606 45.7704 -0.0654678 46.2783 0.0708626 46.7508C0.2072 47.2232 0.529967 47.6208 0.964981 47.851C1.40063 48.0818 1.91046 48.1262 2.37908 47.974C2.8477 47.8224 3.23451 47.487 3.45076 47.045C4.75707 44.6125 5.50026 41.8483 5.5238 38.9116L5.52317 38.911C5.52507 38.864 5.52507 38.8165 5.52317 38.7696C5.52634 38.7125 5.52634 38.656 5.52317 38.599C5.53966 35.1526 6.05266 31.8201 6.99943 28.6799L7.00006 28.6805C7.18585 28.0952 7.06347 27.4566 6.67349 26.9816C6.28414 26.5067 5.68044 26.2613 5.06915 26.3279L5.06921 26.3286ZM40.9586 31.6845C37.0455 31.6845 33.8038 34.869 33.8038 38.7697H33.8032C33.7968 39.2554 33.9852 39.7227 34.327 40.0683C34.6681 40.4139 35.1342 40.6086 35.6206 40.6086C36.107 40.6086 36.573 40.4139 36.9142 40.0683C37.256 39.7227 37.4443 39.2554 37.438 38.7697C37.438 36.8413 38.9973 35.3124 40.9588 35.3124C42.9195 35.3124 44.451 36.8419 44.451 38.7697C44.4472 38.8356 44.4472 38.9022 44.451 38.9681C44.4275 45.8522 43.1472 52.4371 40.8453 58.5233C40.494 59.4618 40.9709 60.5068 41.9106 60.8588C42.8504 61.2101 43.8986 60.7358 44.2525 59.7985C46.7129 53.2955 48.0687 46.258 48.0858 38.9123H48.0851C48.087 38.8647 48.087 38.8178 48.0851 38.7702V38.6003C48.0788 38.5432 48.0693 38.4861 48.0572 38.4303C47.8721 34.6909 44.7546 31.6851 40.9587 31.6851L40.9586 31.6845ZM56.6882 36.9275C55.7523 37.0302 55.0496 37.8298 55.07 38.7697C55.07 52.9831 50.6266 66.1462 43.0031 76.9708V76.9714C42.6544 77.357 42.4882 77.8731 42.5466 78.3893C42.6049 78.9055 42.882 79.3722 43.3081 79.6709C43.7343 79.9689 44.2682 80.071 44.7742 79.9506C45.2809 79.8294 45.7108 79.4984 45.9556 79.0399C53.9926 67.6275 58.7041 53.7414 58.7041 38.769C58.7155 38.2465 58.5005 37.7449 58.1143 37.3923C57.7282 37.0391 57.2088 36.8698 56.6882 36.9269L56.6882 36.9275ZM34.7403 44.5224C33.9578 44.6505 33.349 45.27 33.2355 46.0532C31.6267 56 26.7611 64.881 19.7775 71.5872C19.4243 71.9201 19.2195 72.3804 19.2087 72.8649C19.1973 73.3494 19.3818 73.8187 19.7191 74.1668C20.0571 74.5155 20.5201 74.714 21.0058 74.7197C21.4915 74.7248 21.9589 74.5358 22.3045 74.1947C29.8379 66.9611 35.0752 57.3928 36.8133 46.6477C36.9218 46.0681 36.7417 45.4714 36.3289 45.0484C35.9167 44.6255 35.3244 44.4295 34.7404 44.5221L34.7403 44.5224ZM19.5784 55.9431V55.9437C18.9804 55.9805 18.4382 56.309 18.1307 56.822C16.2695 59.8931 13.9472 62.6731 11.2593 65.0403V65.041C10.8966 65.3599 10.6765 65.8095 10.6467 66.2915C10.6163 66.7728 10.7799 67.2465 11.1001 67.6079C11.421 67.9694 11.8719 68.1881 12.3544 68.2173C12.837 68.2458 13.3113 68.0822 13.6728 67.7614C16.6354 65.152 19.2005 62.1101 21.2537 58.7212C21.6209 58.1409 21.6285 57.4041 21.274 56.8169C20.9196 56.2291 20.2639 55.8911 19.5784 55.9437L19.5784 55.9431ZM62.622 64.02V64.0207C61.8953 64.072 61.2694 64.5514 61.0322 65.2388C60.0595 67.8869 58.9295 70.4716 57.6821 72.9758H57.6814C57.4652 73.4083 57.4297 73.9092 57.5838 74.3677C57.7372 74.8262 58.0683 75.2048 58.502 75.4191C58.9364 75.6341 59.438 75.667 59.8964 75.5117C60.3555 75.3563 60.7335 75.0253 60.9466 74.5909C62.2529 71.9682 63.4202 69.2598 64.4388 66.4854L64.4394 66.4861C64.6639 65.9078 64.577 65.2552 64.2086 64.7556C63.8408 64.2559 63.2421 63.9788 62.622 64.0206L62.622 64.02ZM38.062 66.684V66.6846C37.3968 66.6681 36.776 67.0163 36.4438 67.5914C34.6447 70.5731 32.561 73.3893 30.254 75.9803V75.9797C29.5926 76.7318 29.6649 77.8751 30.4157 78.5385C31.1659 79.2011 32.3118 79.1345 32.9795 78.3888C35.4342 75.6323 37.6231 72.6359 39.5382 69.4616C39.8838 68.9124 39.9092 68.2206 39.6042 67.6473C39.2998 67.074 38.7113 66.7069 38.062 66.6847L38.062 66.684Z" fill="black"/>
</svg>
