<svg width="24" height="24" viewBox="0 0 24 24" fill="none" color="#26313A" xmlns="http://www.w3.org/2000/svg">
    <path fill-rule="evenodd" clip-rule="evenodd" d="M22 5H2L2 19H22V5ZM2 3C0.895431 3 0 3.89543 0 5V19C0 20.1046 0.89543 21 2 21H22C23.1046 21 24 20.1046 24 19V5C24 3.89543 23.1046 3 22 3H2Z" fill="currentColor"/>
    <path fill-rule="evenodd" clip-rule="evenodd" d="M7.36449 9.06721C8.1673 7.94513 9.83832 7.95375 10.6295 9.08404L11.6972 10.6093C12.093 11.1748 12.929 11.1788 13.3302 10.6171L13.4067 10.5101C14.1844 9.42126 15.7913 9.3885 16.6128 10.4447L22.7893 18.3859L21.2106 19.6138L15.8575 12.7313C15.4468 12.2032 14.6434 12.2196 14.2545 12.764L14.1356 12.9304C13.3333 14.0536 11.6613 14.0456 10.8697 12.9148L9.80135 11.3886C9.40575 10.8234 8.57025 10.8191 8.16884 11.3801L2.03232 19.957L0.405762 18.7933L7.36449 9.06721Z" fill="currentColor"/>
</svg>
