<svg width="33" height="32" viewBox="0 0 33 32" fill="none" xmlns="http://www.w3.org/2000/svg">
<g clip-path="url(#clip0_62767_64298)">
<path d="M30.454 10.6765C29.894 4.59427 24.5429 3.67649 20.9807 4.64093C18.1496 5.41871 16.5007 7.50315 16.5007 7.50315C16.5007 7.50315 14.8518 5.41871 12.0207 4.64093C8.45848 3.67649 3.10737 4.59427 2.54737 10.6765C1.70737 19.8387 11.414 25.532 15.1007 27.352C15.9874 27.7876 17.014 27.7876 17.8851 27.352C21.5874 25.532 31.294 19.8387 30.454 10.6765Z" fill="url(#paint0_linear_62767_64298)"/>
<path d="M27.266 12.9332C26.8305 12.9332 26.4727 12.591 26.4416 12.1555C26.1927 8.4999 23.2993 8.39101 22.9416 8.39101C22.4905 8.39101 22.1171 8.01767 22.1016 7.56656C22.1016 7.11545 22.4593 6.74212 22.926 6.72656C22.9416 6.72656 22.9571 6.72656 22.9882 6.72656C24.6682 6.72656 27.826 7.83101 28.106 12.0466C28.1371 12.4977 27.7949 12.9021 27.3282 12.9332C27.2971 12.9332 27.2816 12.9332 27.266 12.9332Z" fill="white"/>
</g>
<defs>
<linearGradient id="paint0_linear_62767_64298" x1="10.2799" y1="2.91084" x2="26.1277" y2="26.6239" gradientUnits="userSpaceOnUse">
<stop stop-color="#CA6CAA"/>
<stop offset="1" stop-color="#C4007B"/>
</linearGradient>
<clipPath id="clip0_62767_64298">
<rect width="28" height="28" fill="white" transform="translate(2.5 2)"/>
</clipPath>
</defs>
</svg>
