<svg width="25" height="24" viewBox="0 0 25 24" fill="none" xmlns="http://www.w3.org/2000/svg">
<path d="M20.875 19.9423C20.875 19.962 20.8714 19.9746 20.868 19.9828C20.8651 19.99 20.8614 19.9958 20.858 20H16.892C16.8886 19.9958 16.8849 19.99 16.882 19.9828C16.8786 19.9746 16.875 19.962 16.875 19.9423V14.7979C16.875 13.1791 15.5851 11.769 13.875 11.769H11.875C10.1649 11.769 8.875 13.1791 8.875 14.7979V19.9423C8.875 19.962 8.87142 19.9746 8.86804 19.9828C8.86506 19.99 8.8614 19.9958 8.85799 20H4.89201C4.8886 19.9958 4.88494 19.99 4.88196 19.9828C4.87858 19.9746 4.875 19.962 4.875 19.9423V10.6425C4.875 10.6246 4.87898 10.6093 4.88443 10.5976C4.88986 10.586 4.89522 10.581 4.89663 10.5799L12.875 4.01291L20.8534 10.5799C20.8548 10.581 20.8601 10.586 20.8656 10.5976C20.871 10.6093 20.875 10.6246 20.875 10.6425V19.9423ZM3.62561 9.0357C3.15118 9.4262 2.875 10.0174 2.875 10.6425V19.9423C2.875 21.0787 3.77043 22 4.875 22H8.875C9.97957 22 10.875 21.0787 10.875 19.9423V14.7979C10.875 14.2297 11.3227 13.769 11.875 13.769H13.875C14.4273 13.769 14.875 14.2297 14.875 14.7979V19.9423C14.875 21.0787 15.7704 22 16.875 22H20.875C21.9796 22 22.875 21.0787 22.875 19.9423V10.6425C22.875 10.0174 22.5988 9.4262 22.1244 9.0357L14.1244 2.45092C13.394 1.84969 12.356 1.84969 11.6256 2.45092L3.62561 9.0357Z" fill="#00ADE6"/>
</svg>
