<svg width="24" height="24" viewBox="0 0 24 24" fill="none" color="#26313A"
    xmlns="http://www.w3.org/2000/svg">
    <g id="Icon / General / reload">
        <path id="Union" d="M11.8879 4.14844C7.55185 4.14844 4 7.70029 4 12.0364C4 16.3724 7.55185 19.9243 11.8879 19.9243C15.8349 19.9243 19.1131 17.0315 19.6371 13.2329C19.7125 12.6858 20.2172 12.3035 20.7643 12.3789C21.3114 12.4544 21.6938 12.9591 21.6183 13.5062C20.9572 18.2993 16.8289 21.9243 11.8879 21.9243C6.44728 21.9243 2 17.477 2 12.0364C2 6.59572 6.44728 2.14844 11.8879 2.14844C14.5772 2.14844 17.0917 3.23758 18.887 5.02521V3C18.887 2.44772 19.3348 2 19.887 2C20.4393 2 20.887 2.44772 20.887 3V8.03648C20.887 8.58877 20.4393 9.03648 19.887 9.03648H14.8506C14.2983 9.03648 13.8506 8.58876 13.8506 8.03648C13.8506 7.4842 14.2983 7.03648 14.8506 7.03648H18.0121C16.5861 5.2767 14.3354 4.14844 11.8879 4.14844Z" fill="currentColor"/>
    </g>
</svg>
