<svg width="24" height="24" viewBox="0 0 24 24" fill="none" color="#8499AB" xmlns="http://www.w3.org/2000/svg">
<path fill-rule="evenodd" clip-rule="evenodd" d="M22 5H2L2 19H22V5ZM2 3C0.895431 3 0 3.89543 0 5V19C0 20.1046 0.89543 21 2 21H22C23.1046 21 24 20.1046 24 19V5C24 3.89543 23.1046 3 22 3H2Z" fill="currentColor"/>
<path fill-rule="evenodd" clip-rule="evenodd" d="M7.364 9.06769C8.16681 7.94562 9.83783 7.95424 10.629 9.08453L11.6967 10.6098C12.0925 11.1752 12.9285 11.1792 13.3297 10.6176L13.4062 10.5106C14.1839 9.42175 15.7908 9.38899 16.6123 10.4452L22.7888 18.3864L21.2101 19.6143L15.8571 12.7318C15.4463 12.2037 14.6429 12.2201 14.254 12.7645L14.1351 12.9309C13.3328 14.0541 11.6608 14.0461 10.8692 12.9153L9.80087 11.389C9.40527 10.8239 8.56976 10.8196 8.16835 11.3806L2.03183 19.9575L0.405273 18.7938L7.364 9.06769Z" fill="currentColor"/>
</svg>
