<svg width="16" height="16" viewBox="0 0 16 16" fill="none" color="#FF1F1F" xmlns="http://www.w3.org/2000/svg">
    <path d="M8 0C3.58172 0 0 3.58172 0 8C0 12.4183 3.58172 16 8 16C12.4183 16 16 12.4183 16 8C16 3.58172 12.4183 0 8 0ZM7 9V4C7 3.44772 7.44771 3 8 3C8.55229 3 9 3.44772 9 4L9 9C9 9.55229 8.55229 10 8 10C7.44771 10 7 9.55229 7 9ZM8 10.9997C8.271 10.9997 8.521 11.1087 8.7 11.2997C8.891 11.4787 9 11.7287 9 11.9997C9 12.2697 8.891 12.5197 8.7 12.7097C8.66 12.7597 8.61 12.7997 8.551 12.8297C8.50706 12.8642 8.45645 12.8905 8.40555 12.9169L8.381 12.9297L8.37331 12.9323C8.31501 12.9514 8.25801 12.9701 8.19 12.9787C7.87 13.0497 7.521 12.9387 7.29 12.7097C7.101 12.5197 7 12.2697 7 11.9997C7 11.7397 7.101 11.4787 7.29 11.2997C7.48 11.1087 7.73 10.9997 8 10.9997Z"
          fill="currentColor"/>
</svg>
