<svg width="24" height="24" viewBox="0 0 24 24" fill="none" color="#26313A" xmlns="http://www.w3.org/2000/svg">
<path fill-rule="evenodd" clip-rule="evenodd" d="M11 2C6.02944 2 2 6.02944 2 11C2 15.9706 6.02944 20 11 20C15.9706 20 20 15.9706 20 11C20 6.02944 15.9706 2 11 2ZM0 11C0 4.92487 4.92487 0 11 0C17.0751 0 22 4.92487 22 11C22 17.0751 17.0751 22 11 22C4.92487 22 0 17.0751 0 11ZM11 9C11.5523 9 12 9.44771 12 10V15C12 15.5523 11.5523 16 11 16C10.4477 16 10 15.5523 10 15V10C10 9.44771 10.4477 9 11 9ZM10.3 7.70027C10.479 7.89127 10.729 8.00027 11 8.00027C11.27 8.00027 11.52 7.89127 11.71 7.70027C11.899 7.52127 12 7.26027 12 7.00027C12 6.73027 11.899 6.48027 11.71 6.29027C11.479 6.06127 11.13 5.95027 10.81 6.02127C10.742 6.0299 10.685 6.04861 10.6267 6.06775L10.619 6.07027C10.6108 6.07457 10.6026 6.07882 10.5945 6.08307C10.5436 6.10952 10.4929 6.13581 10.449 6.17027C10.39 6.20027 10.34 6.24027 10.3 6.29027C10.109 6.48027 10 6.73027 10 7.00027C10 7.27127 10.109 7.52127 10.3 7.70027Z" fill="currentColor"/>
</svg>
