<svg width="24" height="24" viewBox="0 0 24 24" fill="none" color="#26313A" xmlns="http://www.w3.org/2000/svg">
<path d="M11.9875 7.82052e-05C12.2528 -0.00323712 12.5085 0.0989749 12.6983 0.28422L16.7983 4.28422C17.1936 4.6699 17.2014 5.30301 16.8158 5.69833C16.4301 6.09364 15.797 6.10145 15.4016 5.71578L13 3.37269V15.6C13 16.1523 12.5523 16.6 12 16.6C11.4477 16.6 11 16.1523 11 15.6V3.45809L8.81597 5.6981C8.43042 6.09354 7.79731 6.10155 7.40187 5.716C7.00644 5.33045 6.99843 4.69733 7.38398 4.3019L11.284 0.301898C11.4692 0.111965 11.7223 0.00339353 11.9875 7.82052e-05Z" fill="currentColor"/>
<path d="M2 4.99998C2 4.4477 2.44772 3.99998 3 3.99998H4.58824C5.14052 3.99998 5.58824 4.4477 5.58824 4.99998C5.58824 5.55227 5.14052 5.99998 4.58824 5.99998H4V20H20V5.99998H19.4118C18.8595 5.99998 18.4118 5.55227 18.4118 4.99998C18.4118 4.4477 18.8595 3.99998 19.4118 3.99998H21C21.5523 3.99998 22 4.4477 22 4.99998V21C22 21.5523 21.5523 22 21 22H3C2.44772 22 2 21.5523 2 21V4.99998Z" fill="currentColor"/>
</svg>
