<svg width="33" height="32" viewBox="0 0 33 32" fill="none" xmlns="http://www.w3.org/2000/svg">
<g clip-path="url(#clip0_62767_64303)">
<path d="M16.5008 29.8297C24.1382 29.8297 30.3297 23.6382 30.3297 16.0008C30.3297 8.36328 24.1382 2.17188 16.5008 2.17188C8.86328 2.17188 2.67188 8.36328 2.67188 16.0008C2.67188 23.6382 8.86328 29.8297 16.5008 29.8297Z" fill="url(#paint0_linear_62767_64303)"/>
<path d="M7.32291 18.7344L10.4807 19.0922C14.494 19.5433 18.554 19.5433 22.5674 19.0922L25.6785 18.7499C26.0207 18.7499 26.254 19.0922 26.1296 19.4188C25.3985 21.2544 22.8162 26.2633 16.5007 26.2633C10.1851 26.2633 7.60291 21.2544 6.8718 19.4188C6.74735 19.0766 6.98069 18.7344 7.32291 18.7344Z" fill="white"/>
<path d="M9.43919 16.4678C9.12808 16.4678 8.83252 16.2967 8.67697 16.0011C8.47474 15.5811 8.64586 15.0678 9.0503 14.85C12.0681 13.3256 12.0525 12.4856 12.037 12.3923C11.9747 11.8789 10.637 11.2878 9.71919 11.0856C9.26808 10.9923 8.97252 10.5411 9.08141 10.0745C9.17475 9.62336 9.62586 9.32781 10.0925 9.4367C10.6525 9.56114 13.4836 10.2767 13.7325 12.19C13.9036 13.6056 12.6747 14.9278 9.82808 16.3745C9.70363 16.4367 9.56363 16.4678 9.43919 16.4678Z" fill="black"/>
<path d="M23.5629 16.4678C23.4384 16.4678 23.2984 16.4367 23.174 16.3745C20.3273 14.9278 19.0984 13.6056 19.2695 12.19C19.5184 10.2767 22.334 9.56114 22.894 9.4367C23.3607 9.32781 23.7962 9.62336 23.9051 10.0745C24.014 10.5256 23.7184 10.9767 23.2673 11.0856C22.2251 11.3189 21.0118 11.9256 20.9495 12.3923C20.934 12.4856 20.9184 13.3256 23.9362 14.85C24.3562 15.0678 24.5273 15.5811 24.3251 16.0011C24.1695 16.2967 23.874 16.4678 23.5629 16.4678Z" fill="black"/>
</g>
<defs>
<linearGradient id="paint0_linear_62767_64303" x1="8.37983" y1="5.87052" x2="25.7839" y2="27.5808" gradientUnits="userSpaceOnUse">
<stop stop-color="#EEC874"/>
<stop offset="0.1666" stop-color="#EDC771"/>
<stop offset="1" stop-color="#E58F22"/>
</linearGradient>
<clipPath id="clip0_62767_64303">
<rect width="28" height="28" fill="white" transform="translate(2.5 2)"/>
</clipPath>
</defs>
</svg>
