<svg width="24" height="24" viewBox="0 0 24 24" fill="none" xmlns="http://www.w3.org/2000/svg">
<path fill-rule="evenodd" clip-rule="evenodd" d="M12.34 1.17545L11.7742 2L11.1496 1.21904C11.4935 0.943996 11.9769 0.926298 12.34 1.17545ZM11.8182 3.27231C11.691 3.38349 11.5464 3.51185 11.3881 3.65568C10.771 4.21617 9.95124 5.00559 9.13464 5.92464C8.31508 6.84701 7.51775 7.87878 6.92994 8.92324C6.33587 9.97881 6 10.9698 6 11.8304C6 15.6901 8.7127 18 11.7742 18C13.3792 18 14.9398 17.4886 16.0841 16.4892C17.2075 15.508 18 13.9971 18 11.8304C18 10.8548 17.6353 9.80911 17.0093 8.74651C16.3867 7.68948 15.5417 6.67716 14.6719 5.78704C13.8051 4.90006 12.9346 4.15566 12.2792 3.63227C12.1092 3.49653 11.9543 3.37608 11.8182 3.27231ZM18.7326 7.7314C19.4615 8.96878 20 10.37 20 11.8304C20 14.5361 18.9861 16.61 17.3998 17.9955C15.8344 19.3627 13.7821 20 11.7742 20C7.60988 20 4 16.7964 4 11.8304C4 10.4847 4.5109 9.14367 5.187 7.94234C5.86935 6.72989 6.76556 5.57985 7.63955 4.59621C8.5165 3.60925 9.39027 2.76846 10.0434 2.17523C10.3706 1.87801 10.6441 1.64142 10.8371 1.47807C10.9337 1.39636 11.0102 1.33288 11.0634 1.28921C11.0899 1.26737 11.1107 1.25047 11.1252 1.23871L11.1423 1.22495L11.1472 1.221L11.1496 1.21904C11.1498 1.21887 11.1496 1.21904 11.7742 2C12.34 1.17545 12.3397 1.17529 12.34 1.17545L12.3428 1.17738L12.3482 1.18112L12.3668 1.19401C12.3825 1.20498 12.4049 1.22068 12.4335 1.24097C12.4908 1.28155 12.573 1.34048 12.6766 1.41655C12.8836 1.56861 13.1767 1.78953 13.5272 2.06943C14.2267 2.62795 15.1626 3.42762 16.1023 4.38922C17.0389 5.34767 18.0004 6.48845 18.7326 7.7314Z" fill="#26313A"/>
<path fill-rule="evenodd" clip-rule="evenodd" d="M12 9C12.5523 9 13 9.44772 13 10V22C13 22.5523 12.5523 23 12 23C11.4477 23 11 22.5523 11 22V10C11 9.44772 11.4477 9 12 9Z" fill="#26313A"/>
<path fill-rule="evenodd" clip-rule="evenodd" d="M8.23222 11.7323C8.62275 11.3418 9.25591 11.3418 9.64644 11.7323L12.6464 14.7323C13.037 15.1229 13.037 15.756 12.6464 16.1466C12.2559 16.5371 11.6227 16.5371 11.2322 16.1466L8.23222 13.1466C7.8417 12.756 7.8417 12.1229 8.23222 11.7323Z" fill="#26313A"/>
<path fill-rule="evenodd" clip-rule="evenodd" d="M15.6464 11.7323C15.2559 11.3418 14.6227 11.3418 14.2322 11.7323L11.2322 14.7323C10.8417 15.1229 10.8417 15.756 11.2322 16.1466C11.6227 16.5371 12.2559 16.5371 12.6464 16.1466L15.6464 13.1466C16.037 12.756 16.037 12.1229 15.6464 11.7323Z" fill="#26313A"/>
</svg>
