<svg width="33" height="32" viewBox="0 0 33 32" fill="none" xmlns="http://www.w3.org/2000/svg">
<g clip-path="url(#clip0_62767_64291)">
<path d="M27.3269 16.9221C29.1936 16.4088 30.0336 13.0333 27.5291 12.3177C24.698 11.5244 22.7069 12.1155 19.8291 12.2244C18.4447 12.2866 17.5736 12.1466 17.7447 10.9333C17.9158 9.82881 17.8224 8.07103 17.5891 7.10659C17.3869 6.25103 16.9513 5.22436 16.5936 4.41548C16.1113 3.3577 14.7269 1.73992 13.3736 2.03548C11.678 2.39325 11.8336 4.44659 12.0047 5.76881C12.2069 7.23103 12.3469 7.89992 11.7713 9.33103C11.3047 10.4977 9.08022 15.2266 6.82467 15.2888C6.778 15.2888 6.74689 15.2888 6.70022 15.2888C6.00022 15.2266 5.33134 15.6155 5.05134 16.2533C4.07134 18.4621 2.76467 25.4621 5.86022 28.6821C6.45134 29.2888 9.438 28.9466 10.2469 29.3044C11.4602 29.8644 13.0624 29.911 14.3536 29.9421C18.7402 30.0199 23.2047 30.0821 24.7136 29.7399C27.2802 29.1488 28.3847 26.7999 26.8136 25.3999C28.7736 25.2599 28.3069 21.6977 26.3624 21.511C28.4469 21.3555 29.3336 17.9333 27.3269 16.9221Z" fill="url(#paint0_linear_62767_64291)"/>
<path d="M22.0046 17.9135C21.5534 17.9135 21.1801 17.5558 21.1646 17.1047C21.149 16.638 21.5068 16.2491 21.9734 16.218L26.4379 16.0469C26.9046 16.078 27.2934 16.4047 27.309 16.8713C27.3246 17.338 26.9668 17.7269 26.5001 17.758L22.0357 17.9291C22.0201 17.9135 22.0201 17.9135 22.0046 17.9135Z" fill="black"/>
<path d="M20.4928 22.5385C20.0417 22.5385 19.6684 22.1808 19.6528 21.7141C19.6373 21.2474 19.9951 20.8585 20.4773 20.843L25.5484 20.6719C25.5639 20.6719 25.5639 20.6719 25.5795 20.6719C26.0306 20.6719 26.4039 21.0297 26.4195 21.4963C26.4351 21.963 26.0773 22.3519 25.5951 22.3674L20.5239 22.5385C20.5084 22.5385 20.5084 22.5385 20.4928 22.5385Z" fill="black"/>
<path d="M20.0138 26.686C19.5782 26.686 19.2049 26.3438 19.1738 25.8927C19.1426 25.426 19.5004 25.0216 19.9671 24.9905L25.8938 24.6016C26.3604 24.6016 26.7649 24.9282 26.796 25.3949C26.8271 25.8616 26.4693 26.266 26.0026 26.2971L20.076 26.686C20.0449 26.6704 20.0293 26.686 20.0138 26.686Z" fill="black"/>
</g>
<defs>
<linearGradient id="paint0_linear_62767_64291" x1="9.42665" y1="11.056" x2="25.4551" y2="31.1513" gradientUnits="userSpaceOnUse">
<stop stop-color="#EEC874"/>
<stop offset="1" stop-color="#E58F22"/>
</linearGradient>
<clipPath id="clip0_62767_64291">
<rect width="28" height="28" fill="white" transform="translate(2.5 2)"/>
</clipPath>
</defs>
</svg>
