<svg width="24" height="24" viewBox="0 0 24 24" fill="none" color="#26313A"
    xmlns="http://www.w3.org/2000/svg">
    <path fill-rule="evenodd" clip-rule="evenodd" d="M1 0C0.447715 0 0 0.447715 0 1V19C0 19.5523 0.447715 20 1 20H19C19.5523 20 20 19.5523 20 19V17C20 16.4477 19.5523 16 19 16C18.4477 16 18 16.4477 18 17V18H2V2H18V3C18 3.55228 18.4477 4 19 4C19.5523 4 20 3.55228 20 3V1C20 0.447715 19.5523 0 19 0H1ZM5 9C4.44772 9 4 9.44771 4 10C4 10.5523 4.44772 11 5 11H16.5858L14.0429 13.5429C13.6524 13.9334 13.6524 14.5666 14.0429 14.9571C14.4334 15.3476 15.0666 15.3476 15.4571 14.9571L19.6997 10.7145C20.0903 10.3239 20.0903 9.69078 19.6997 9.30025L15.4571 5.05761C15.0666 4.66709 14.4334 4.66709 14.0429 5.05761C13.6524 5.44814 13.6524 6.0813 14.0429 6.47183L16.5711 9H5Z" fill="currentColor"/>
</svg>
