<svg width="24" height="24" viewBox="0 0 26 26" fill="none" xmlns="http://www.w3.org/2000/svg">
<path fill-rule="evenodd" clip-rule="evenodd" d="M25.1523 12.4274L19.1729 1.2597C18.5424 0.0852436 17.0998 -0.344643 15.9476 0.29888L5.0032 6.4179C4.51061 6.70036 4.05104 7.19383 3.84188 7.8931L0.904609 18.1207C0.552544 19.3439 1.2406 20.6268 2.4421 20.9857L19.695 25.9061C20.8952 26.2652 22.1545 25.5629 22.5067 24.3379L25.3611 14.3094C25.5461 13.7203 25.4421 12.9945 25.1523 12.4274Z" fill="#00ADE6"/>
<path fill-rule="evenodd" clip-rule="evenodd" d="M14.4937 6.53809C14.4937 6.53809 14.4846 11.1856 14.4924 11.1748L14.7119 10.8597C15.6228 9.55261 16.5072 8.34594 18.0616 8.34594C19.9206 8.34484 20.9279 9.89216 20.9341 11.1942L20.9335 11.7706C20.9317 13.6577 20.9259 19.5304 20.9259 19.5304L18.8389 19.5299L18.8298 11.6396C18.8298 10.5557 17.9538 10.5579 17.9419 10.5579C17.236 10.5579 15.9378 12.3181 14.4933 14.2729L14.4935 19.5328L12.3833 19.535L12.3801 17.1002C12.3801 17.1002 10.9848 19.5354 8.89565 19.5381C6.52496 19.539 5.72061 17.9175 5.71462 14.0344C5.71107 10.3349 6.23858 8.35543 8.77963 8.35322C10.7124 8.35145 12.3724 11.1525 12.3724 11.1525L12.3733 9.37837L14.4937 6.53809ZM8.8098 10.5522C7.83886 10.5535 7.755 11.5736 7.75767 14.0314C7.76122 16.4909 7.89476 17.4487 8.80714 17.4487C10.0467 17.4474 12.0013 14.3104 12.0013 14.3104C12.0013 14.3104 10.0629 10.552 8.8098 10.5522Z" fill="white"/>
</svg>
