<svg width="24" height="24" viewBox="0 0 24 24" fill="none" xmlns="http://www.w3.org/2000/svg">
    <circle cx="12" cy="12" r="4" fill="currentColor"/>
    <path fill-rule="evenodd" clip-rule="evenodd"
          d="M20 12C20 14.2795 19.0466 16.3364 17.5168 17.7935C17.8617 18.407 18.1292 19.1122 18.2478 19.8085C20.5352 17.9759 22 15.159 22 12C22 8.75787 20.4571 5.87611 18.0655 4.0489C17.9323 4.65479 17.6799 5.23441 17.3872 5.7321C17.3421 5.80862 17.2952 5.88482 17.2465 5.96048C18.9335 7.4272 20 9.58905 20 12ZM12 20C13.4116 20 14.7379 19.6344 15.8892 18.9926C16.2165 19.6526 16.3515 20.3095 16.3063 20.7363L16.2556 21.0519C14.9644 21.66 13.5219 22 12 22C10.4638 22 9.00844 21.6536 7.70788 21.0346L7.67587 20.7537C7.62481 20.3256 7.76048 19.6559 8.09536 18.984C9.25025 19.6311 10.582 20 12 20ZM6.47037 17.7813C4.94807 16.3249 4 14.2731 4 12C4 7.58172 7.58172 4 12 4C13.2889 4 14.5067 4.30483 15.5851 4.84632C15.6116 4.80428 15.6377 4.76152 15.6633 4.71806C16.0846 4.00188 16.2277 3.33298 16.1418 2.89537C14.8798 2.32035 13.4773 2 12 2C6.47715 2 2 6.47715 2 12C2 15.151 3.45738 17.9616 5.73484 19.7945C5.85549 19.0982 6.12445 18.3935 6.47037 17.7813Z"
          fill="currentColor"/>
</svg>
