<svg width="22" height="22" viewBox="0 0 22 22" fill="none" color="#26313A" xmlns="http://www.w3.org/2000/svg">
    <path fill-rule="evenodd" clip-rule="evenodd"
          d="M20 11C20 15.9706 15.9706 20 11 20C6.02944 20 2 15.9706 2 11C2 6.02944 6.02944 2 11 2C15.9706 2 20 6.02944 20 11ZM11 22C17.0751 22 22 17.0751 22 11C22 4.92487 17.0751 0 11 0C4.92487 0 0 4.92487 0 11C0 17.0751 4.92487 22 11 22ZM5.29289 10.2318L9.65685 5.31819C10.0474 4.89394 10.6805 4.89394 11.0711 5.31819C11.4616 5.74245 11.4616 6.4303 11.0711 6.85455L8.41421 9.91363L16 9.91363C16.5523 9.91363 17 10.4 17 11C17 11.6 16.5523 12.0864 16 12.0864H8.41421L11.0711 15.1454C11.4616 15.5697 11.4616 16.2576 11.0711 16.6818C10.6805 17.1061 10.0474 17.1061 9.65685 16.6818L5.29289 11.7682C4.90237 11.3439 4.90237 10.6561 5.29289 10.2318Z"
          fill="currentColor"/>
</svg>
