<svg width="100" height="100" viewBox="0 0 100 100" fill="none" xmlns="http://www.w3.org/2000/svg">
<g clip-path="url(#clip0_5612_158381)">
<rect width="100" height="100" rx="8" transform="matrix(1 0 0 -1 0 100)" fill="#E6E9ED"/>
</g>
<path fill-rule="evenodd" clip-rule="evenodd" d="M60 43H40L40 57H60V43ZM40 41C38.8954 41 38 41.8954 38 43V57C38 58.1046 38.8954 59 40 59H60C61.1046 59 62 58.1046 62 57V43C62 41.8954 61.1046 41 60 41H40Z" fill="#8499AB"/>
<path fill-rule="evenodd" clip-rule="evenodd" d="M45.3645 47.0673C46.1673 45.9452 47.8383 45.9538 48.6295 47.0841L49.6972 48.6094C50.093 49.1748 50.929 49.1788 51.3302 48.6172L51.4067 48.5101C52.1844 47.4213 53.7913 47.3886 54.6128 48.4448L60.7893 56.386L59.2106 57.6139L53.8575 50.7314C53.4468 50.2033 52.6434 50.2197 52.2545 50.7641L52.1356 50.9305C51.3333 52.0537 49.6613 52.0457 48.8697 50.9149L47.8014 49.3886C47.4058 48.8235 46.5702 48.8192 46.1688 49.3802L40.0323 57.9571L38.4058 56.7934L45.3645 47.0673Z" fill="#8499AB"/>
<defs>
<clipPath id="clip0_5612_158381">
<rect width="100" height="100" fill="white"/>
</clipPath>
</defs>
</svg>
