<svg width="52" height="52" viewBox="0 0 52 52" fill="none" xmlns="http://www.w3.org/2000/svg">
    <path fill-rule="evenodd" clip-rule="evenodd"
          d="M0.333984 25.9987C0.333984 11.8234 11.8253 0.332031 26.0007 0.332031C40.176 0.332031 51.6673 11.8234 51.6673 25.9987C51.6673 40.174 40.176 51.6654 26.0007 51.6654C11.8253 51.6654 0.333984 40.174 0.333984 25.9987ZM26.0007 4.9987C14.4027 4.9987 5.00065 14.4007 5.00065 25.9987C5.00065 37.5967 14.4027 46.9987 26.0007 46.9987C37.5986 46.9987 47.0006 37.5967 47.0006 25.9987C47.0006 14.4007 37.5986 4.9987 26.0007 4.9987Z"
          fill="currentColor"/>
    <path d="M23.6673 18.9987V32.9987L33.0007 25.9987L23.6673 18.9987Z" fill="currentColor"/>
    <path fill-rule="evenodd" clip-rule="evenodd"
          d="M22.6238 16.9117C23.4143 16.5165 24.3603 16.6018 25.0673 17.132L34.4007 24.132C34.9882 24.5727 35.334 25.2643 35.334 25.9987C35.334 26.7331 34.9882 27.4247 34.4007 27.8654L25.0673 34.8654C24.3603 35.3956 23.4143 35.4809 22.6238 35.0857C21.8333 34.6904 21.334 33.8825 21.334 32.9987V18.9987C21.334 18.1149 21.8333 17.3069 22.6238 16.9117ZM26.0007 23.6654V28.332L29.1118 25.9987L26.0007 23.6654Z"
          fill="currentColor"/>
</svg>
