<svg width="20" height="22" viewBox="0 0 20 22" fill="none" xmlns="http://www.w3.org/2000/svg">
<path fill-rule="evenodd" clip-rule="evenodd" d="M7 5C7 3.34315 8.34315 2 10 2C11.6569 2 13 3.34315 13 5C13 6.65685 11.6569 8 10 8C8.34315 8 7 6.65685 7 5ZM10 0C7.23858 0 5 2.23858 5 5C5 7.76142 7.23858 10 10 10C12.7614 10 15 7.76142 15 5C15 2.23858 12.7614 0 10 0ZM2 19C2 17.1827 2.94196 15.631 4.45 14.5C5.96795 13.3615 8.00491 12.7 10 12.7C11.9951 12.7 14.032 13.3615 15.55 14.5C17.058 15.631 18 17.1827 18 19V20H2V19ZM10 10.7C7.59509 10.7 5.13205 11.4885 3.25 12.9C1.35804 14.319 0 16.4173 0 19V20C0 20.5273 0.180114 21.0443 0.567893 21.4321C0.955672 21.8199 1.47275 22 2 22H18C18.5272 22 19.0443 21.8199 19.4321 21.4321C19.8199 21.0443 20 20.5273 20 20V19C20 16.4173 18.642 14.319 16.75 12.9C14.868 11.4885 12.4049 10.7 10 10.7Z" fill="#26313A"/>
</svg>
