<svg width="22" height="22" viewBox="0 0 22 22" fill="none" color="#26313A" xmlns="http://www.w3.org/2000/svg">
    <path d="M11.6357 15.3763C11.6357 15.9286 11.188 16.3763 10.6357 16.3763C10.0835 16.3763 9.63574 15.9286 9.63574 15.3763C9.63574 14.8241 10.0835 14.3763 10.6357 14.3763C11.188 14.3763 11.6357 14.8241 11.6357 15.3763Z"
          fill="currentColor"/>
    <path d="M9.30472 8.89834C10.0878 7.8369 10.8246 7.53361 11.3351 7.50282C11.8592 7.47122 12.3368 7.71172 12.6525 8.10278C12.9721 8.49874 13.07 8.97526 12.9415 9.37673C12.8209 9.75353 12.4259 10.2869 11.2959 10.6366C10.443 10.9004 10.0133 11.4965 9.83454 12.0329C9.75107 12.2833 9.72399 12.5106 9.71662 12.6736C9.71287 12.7566 9.71404 12.8273 9.71665 12.8817C9.71796 12.9089 9.71964 12.9325 9.72132 12.9517L9.72378 12.9776L9.72493 12.9881L9.72546 12.9927L9.72572 12.9949L9.72584 12.9959C9.7259 12.9964 9.72597 12.997 10.7187 12.8763L9.72597 12.997C9.79258 13.5452 10.291 13.9357 10.8393 13.869C11.3786 13.8035 11.7652 13.3201 11.7143 12.7825C11.7142 12.7789 11.7142 12.7725 11.7146 12.7639C11.7159 12.7341 11.7211 12.6977 11.7319 12.6654C11.7418 12.6358 11.7524 12.6206 11.7611 12.6115C11.7663 12.606 11.7952 12.5756 11.8871 12.5472C13.4524 12.0629 14.4731 11.1524 14.8463 9.98641C15.2116 8.84513 14.8814 7.68004 14.2088 6.84665C13.5322 6.00836 12.4534 5.43177 11.2147 5.50645C9.9625 5.58195 8.7301 6.30832 7.69528 7.71102C7.36741 8.15545 7.46191 8.78152 7.90634 9.10939C8.35077 9.43726 8.97684 9.34277 9.30472 8.89834Z"
          fill="currentColor"/>
    <path fill-rule="evenodd" clip-rule="evenodd"
          d="M0 11C0 4.92487 4.92487 0 11 0C17.0751 0 22 4.92487 22 11C22 17.0751 17.0751 22 11 22C4.92487 22 0 17.0751 0 11ZM11 2C6.02944 2 2 6.02944 2 11C2 15.9706 6.02944 20 11 20C15.9706 20 20 15.9706 20 11C20 6.02944 15.9706 2 11 2Z"
          fill="currentColor"/>
</svg>
