<svg width="12" height="8" viewBox="0 0 12 8" fill="none" xmlns="http://www.w3.org/2000/svg">
<path d="M6 0C6.84375 0 7.64648 0.150391 8.4082 0.451172C9.17383 0.751953 9.86523 1.18945 10.4824 1.76367C10.7793 2.04492 11.0547 2.35547 11.3086 2.69531C11.5664 3.03516 11.7773 3.39258 11.9414 3.76758C11.9805 3.84961 12 3.93555 12 4.02539C12 4.19336 11.9414 4.33594 11.8242 4.45312C11.7109 4.56641 11.5703 4.62305 11.4023 4.62305C11.2773 4.62305 11.1699 4.59375 11.0801 4.53516C10.9902 4.47266 10.916 4.38867 10.8574 4.2832C10.6934 3.9707 10.5176 3.67969 10.3301 3.41016C10.1426 3.14062 9.91992 2.88477 9.66211 2.64258C9.1582 2.16992 8.59375 1.81055 7.96875 1.56445C7.34766 1.31836 6.69141 1.19531 6 1.19531C5.30859 1.19531 4.65039 1.31836 4.02539 1.56445C3.4043 1.81055 2.8418 2.16992 2.33789 2.64258C2.08008 2.88477 1.85742 3.14062 1.66992 3.41016C1.48242 3.67969 1.30664 3.9707 1.14258 4.2832C1.08789 4.38867 1.01367 4.47266 0.919922 4.53516C0.826172 4.59375 0.71875 4.62305 0.597656 4.62305C0.429688 4.62305 0.287109 4.56641 0.169922 4.45312C0.0566406 4.33594 0 4.19336 0 4.02539C0 3.93555 0.0195312 3.84961 0.0585938 3.76758C0.222656 3.39258 0.431641 3.03516 0.685547 2.69531C0.943359 2.35547 1.2207 2.04492 1.51758 1.76367C2.13477 1.18945 2.82422 0.751953 3.58594 0.451172C4.35156 0.150391 5.15625 0 6 0ZM6 2.39648C6.33203 2.39648 6.64453 2.45898 6.9375 2.58398C7.23047 2.70898 7.48438 2.88086 7.69922 3.09961C7.91797 3.31445 8.08984 3.56836 8.21484 3.86133C8.33984 4.1543 8.40234 4.4668 8.40234 4.79883C8.40234 5.13086 8.33789 5.44336 8.20898 5.73633C8.08398 6.02539 7.91211 6.2793 7.69336 6.49805C7.47852 6.71289 7.22461 6.88281 6.93164 7.00781C6.64258 7.13281 6.33203 7.19531 6 7.19531C5.66797 7.19531 5.35547 7.13281 5.0625 7.00781C4.77344 6.88281 4.51953 6.71289 4.30078 6.49805C4.08594 6.2793 3.91406 6.02539 3.78516 5.73633C3.66016 5.44336 3.59766 5.13086 3.59766 4.79883C3.59766 4.4668 3.66016 4.1543 3.78516 3.86133C3.91016 3.56836 4.08008 3.31445 4.29492 3.09961C4.51367 2.88086 4.76953 2.70898 5.0625 2.58398C5.35547 2.45898 5.66797 2.39648 6 2.39648Z" fill="#00ADE6"/>
</svg>
