<svg width="33" height="32" viewBox="0 0 33 32" fill="none" xmlns="http://www.w3.org/2000/svg">
<g clip-path="url(#clip0_62767_64311)">
<path d="M16.5008 29.8297C24.1382 29.8297 30.3297 23.6382 30.3297 16.0008C30.3297 8.36328 24.1382 2.17188 16.5008 2.17188C8.86328 2.17188 2.67188 8.36328 2.67188 16.0008C2.67188 23.6382 8.86328 29.8297 16.5008 29.8297Z" fill="url(#paint0_linear_62767_64311)"/>
<path d="M10.6978 14.6286C9.73335 14.6286 8.69113 14.1775 7.58669 13.2908C7.21335 13.0108 7.16669 12.4664 7.46224 12.1086C7.7578 11.7508 8.28669 11.6886 8.66002 11.9841C9.34446 12.5286 10.3245 13.1352 11.1178 12.8864C11.9422 12.6219 12.4245 11.533 12.5334 11.1286C12.6578 10.6619 13.1245 10.3975 13.5756 10.5375C14.0267 10.6619 14.2911 11.1286 14.1667 11.5797C14.1356 11.673 13.4822 13.8975 11.6311 14.4886C11.3356 14.5819 11.0245 14.6286 10.6978 14.6286Z" fill="black"/>
<path d="M22.2106 14.6297C21.8995 14.6297 21.5884 14.5831 21.2772 14.4897C19.4261 13.8986 18.7728 11.6742 18.7417 11.5809C18.6172 11.1297 18.8817 10.6631 19.3328 10.5386C19.7839 10.4142 20.2506 10.6786 20.375 11.1142C20.4995 11.5186 20.9817 12.6231 21.7906 12.872C22.5995 13.1364 23.5795 12.5142 24.2484 11.9697C24.6061 11.6742 25.1506 11.7364 25.4461 12.0942C25.7417 12.452 25.6795 12.9964 25.3217 13.292C24.2172 14.1942 23.175 14.6297 22.2106 14.6297Z" fill="black"/>
<path d="M19.5648 18.5517C19.3937 18.5517 19.207 18.5051 19.067 18.3806C16.4848 16.4673 13.887 18.3651 13.8559 18.3806C13.4826 18.6606 12.9537 18.5828 12.6737 18.2095C12.3781 17.8362 12.4559 17.3073 12.8448 17.0273C14.0892 16.0939 17.2159 14.9117 20.0781 17.0273C20.4515 17.3073 20.5292 17.8362 20.2492 18.2095C20.0781 18.4428 19.8292 18.5517 19.5648 18.5517Z" fill="black"/>
<path d="M9.87424 19.2636C9.87424 20.2747 9.04979 21.0992 8.03868 21.0992C7.02757 21.0992 6.20312 20.2747 6.20312 19.2636C6.20312 18.2525 7.52535 15.3125 8.03868 15.3125C8.55201 15.3125 9.87424 18.2525 9.87424 19.2636Z" fill="#345C93"/>
</g>
<defs>
<linearGradient id="paint0_linear_62767_64311" x1="9.41194" y1="6.32754" x2="26.6366" y2="29.8318" gradientUnits="userSpaceOnUse">
<stop offset="0.127" stop-color="#EEC874"/>
<stop offset="1" stop-color="#E58F22"/>
</linearGradient>
<clipPath id="clip0_62767_64311">
<rect width="28" height="28" fill="white" transform="translate(2.5 2)"/>
</clipPath>
</defs>
</svg>
