<svg width="22" height="23" viewBox="0 0 22 23" fill="none" xmlns="http://www.w3.org/2000/svg">
<path fill-rule="evenodd" clip-rule="evenodd" d="M0.428382 6.00002H2.43201C2.38509 5.52184 2.68933 5.06607 3.16868 4.93763L13.2165 2.24533C13.7499 2.10239 14.2983 2.41897 14.4412 2.95244L15.2578 6.00002H17.3284L16.3731 2.4348C15.9442 0.834401 14.2992 -0.115348 12.6988 0.313477L2.65104 3.00578C1.27761 3.37379 0.383368 4.63749 0.428382 6.00002ZM0 8C0 7.44772 0.447715 7 1 7H18C19.6569 7 21 8.34315 21 10V12.7639C21.6137 13.3132 22 14.1115 22 15C22 15.8885 21.6137 16.6868 21 17.2361V20C21 21.6569 19.6569 23 18 23H3C1.34315 23 0 21.6569 0 20V8ZM19 18H17C15.3431 18 14 16.6569 14 15C14 13.3431 15.3431 12 17 12H19V10C19 9.44772 18.5523 9 18 9H2V20C2 20.5523 2.44772 21 3 21H18C18.5523 21 19 20.5523 19 20V18ZM16 15C16 14.4477 16.4477 14 17 14H19C19.5523 14 20 14.4477 20 15C20 15.5523 19.5523 16 19 16H17C16.4477 16 16 15.5523 16 15Z" fill="#26313A"/>
</svg>
