<svg width="24" height="24" viewBox="0 0 24 24" fill="none" xmlns="http://www.w3.org/2000/svg">
<path fill-rule="evenodd" clip-rule="evenodd" d="M4 2C2.89543 2 2 2.89543 2 4V20C2 21.1046 2.89543 22 4 22H7H17H20C21.1046 22 22 21.1046 22 20V8.91421C22 8.38378 21.7893 7.87507 21.4142 7.5L16.5 2.58579C16.1249 2.21071 15.6162 2 15.0858 2H4ZM18 20H20V8.91421L15.0858 4H14V7C14 7.55228 13.5523 8 13 8H7C6.44772 8 6 7.55228 6 7V4H4V20H6V13C6 12.4477 6.44772 12 7 12H17C17.5523 12 18 12.4477 18 13V20ZM8 20V14H16V20H8ZM8 4V6H12V4H8Z" fill="#26313A"/>
</svg>
