<svg width="24" height="24" viewBox="0 0 24 24" fill="none" xmlns="http://www.w3.org/2000/svg">
<path fill-rule="evenodd" clip-rule="evenodd" d="M7 2C7.55228 2 8 2.44772 8 3V4H16V3C16 2.44772 16.4477 2 17 2C17.5523 2 18 2.44772 18 3V4H20C20.5272 4 21.0443 4.18011 21.4321 4.56789C21.8199 4.95567 22 5.47275 22 6V9V19C22 20.6523 20.6523 22 19 22H5C3.34772 22 2 20.6523 2 19V9V6C2 5.47275 2.18011 4.95567 2.56789 4.56789C2.95567 4.18011 3.47275 4 4 4H6V3C6 2.44772 6.44772 2 7 2ZM4 8V6H20V8H4ZM20 10V19C20 19.5477 19.5477 20 19 20H5C4.45228 20 4 19.5477 4 19V10H20Z" fill="#00ADE6"/>
<rect x="7" y="12" width="2" height="2" fill="#00ADE6"/>
<rect x="11" y="12" width="2" height="2" fill="#00ADE6"/>
<rect x="7" y="16" width="2" height="2" fill="#00ADE6"/>
<rect x="15" y="12" width="2" height="2" fill="#00ADE6"/>
</svg>
