<svg width="24" height="24" viewBox="0 0 24 24" fill="none" xmlns="http://www.w3.org/2000/svg">
<path fill-rule="evenodd" clip-rule="evenodd" d="M4 10C4 6.13401 7.13401 3 11 3C14.866 3 18 6.13401 18 10C18 13.866 14.866 17 11 17C7.13401 17 4 13.866 4 10ZM11 1C6.02944 1 2 5.02944 2 10C2 14.9706 6.02944 19 11 19C13.125 19 15.078 18.2635 16.6177 17.0319L21.2929 21.7071C21.6834 22.0976 22.3166 22.0976 22.7071 21.7071C23.0976 21.3166 23.0976 20.6834 22.7071 20.2929L18.0319 15.6177C19.2635 14.078 20 12.125 20 10C20 5.02944 15.9706 1 11 1Z" fill="#26313A"/>
</svg>
