<svg width="24" height="24" viewBox="0 0 24 24" fill="none" xmlns="http://www.w3.org/2000/svg">
<path fill-rule="evenodd" clip-rule="evenodd" d="M5 0C2.24772 0 0 2.24772 0 5V11C0 13.41 1.72346 15.4332 4 15.8991V19C4 19.4022 4.24098 19.7653 4.61162 19.9215C4.98226 20.0777 5.41042 19.9967 5.69832 19.7158L9.507 16H17C19.7523 16 22 13.7523 22 11V5C22 2.24772 19.7523 0 17 0H5ZM2 5C2 3.35228 3.35228 2 5 2H17C18.6477 2 20 3.35228 20 5V11C20 12.6477 18.6477 14 17 14H9.1C8.83906 14 8.58846 14.102 8.40168 14.2842L6 16.6273V15C6 14.4477 5.55228 14 5 14C3.35228 14 2 12.6477 2 11V5ZM6.2801 8.6524C6.4611 8.83239 6.7201 8.9424 6.9911 8.9424C7.2511 8.9424 7.5111 8.83239 7.6901 8.6524C7.8811 8.46239 7.9911 8.2024 7.9911 7.9424C7.9911 7.8124 7.9611 7.68239 7.9111 7.5624C7.8601 7.4424 7.7911 7.3324 7.6901 7.2324C7.3201 6.86239 6.6501 6.86239 6.2801 7.2324C6.1901 7.3324 6.1101 7.4424 6.0601 7.5624C6.0111 7.68239 5.9801 7.8124 5.9801 7.9424C5.9801 8.2024 6.0911 8.46239 6.2801 8.6524ZM10.9911 8.9424C10.7201 8.9424 10.4611 8.83239 10.2801 8.6524C10.0911 8.46239 9.99109 8.2024 9.99109 7.9424C9.99109 7.8124 10.0111 7.68239 10.0601 7.5624C10.1101 7.43239 10.1901 7.3324 10.2801 7.2324C10.6501 6.86239 11.3201 6.86239 11.6901 7.2324C11.7911 7.3324 11.8601 7.43239 11.9111 7.5624C11.9611 7.68239 11.9801 7.8124 11.9801 7.9424C11.9801 8.0724 11.9611 8.2024 11.9111 8.3224C11.8601 8.45239 11.7911 8.55239 11.6901 8.6524C11.5111 8.83239 11.2511 8.9424 10.9911 8.9424ZM14.2909 8.6524C14.4799 8.83239 14.7299 8.9424 15.0009 8.9424C15.2609 8.9424 15.5209 8.83239 15.7009 8.6524C15.8909 8.46239 16.0009 8.2024 16.0009 7.9424C16.0009 7.68239 15.8909 7.4224 15.7009 7.2324C15.3309 6.86239 14.6609 6.86239 14.2909 7.2324C14.2009 7.3324 14.1209 7.43239 14.0699 7.5624C14.0209 7.68239 14.0009 7.8124 14.0009 7.9424C14.0009 8.2024 14.1009 8.46239 14.2909 8.6524Z" fill="#26313A"/>
</svg>
