<svg width="23" height="23" viewBox="0 0 23 23" fill="none" color="#26313A" xmlns="http://www.w3.org/2000/svg">
<path d="M12.83 23C12.5005 22.9991 12.178 22.9046 11.9001 22.7276C11.6221 22.5505 11.4002 22.2982 11.26 22L8.00001 15.18C7.8477 14.8605 7.79766 14.5018 7.85672 14.1528C7.91578 13.8038 8.08106 13.4816 8.33001 13.23L12 9.41997C12.1874 9.23372 12.4408 9.12918 12.705 9.12918C12.9692 9.12918 13.2227 9.23372 13.41 9.41997C13.5963 9.60734 13.7008 9.86079 13.7008 10.125C13.7008 10.3892 13.5963 10.6426 13.41 10.83L9.86001 14.51L12.76 20.63L19.76 3.22997L2.35001 10.23L6.90001 12.37C7.0182 12.4291 7.1236 12.5109 7.21018 12.6107C7.29675 12.7105 7.36282 12.8264 7.40461 12.9518C7.4464 13.0771 7.46308 13.2095 7.45371 13.3413C7.44435 13.4731 7.40911 13.6018 7.35002 13.72C7.29092 13.8382 7.20913 13.9436 7.1093 14.0301C7.00947 14.1167 6.89357 14.1828 6.76821 14.2246C6.64285 14.2664 6.51049 14.283 6.37868 14.2737C6.24688 14.2643 6.1182 14.2291 6.00001 14.17L1.00001 11.74C0.696454 11.5939 0.441836 11.3628 0.267074 11.0748C0.092311 10.7867 0.00491947 10.4542 0.0155084 10.1174C0.0260973 9.78071 0.134211 9.4543 0.326725 9.17783C0.519239 8.90136 0.787873 8.68672 1.10001 8.55997L19.61 1.12997C19.9261 0.999197 20.2738 0.965047 20.6093 1.03184C20.9447 1.09864 21.2529 1.26338 21.4947 1.50524C21.7366 1.74711 21.9014 2.05524 21.9681 2.39071C22.0349 2.72617 22.0008 3.07391 21.87 3.38997L14.45 21.91C14.3239 22.2235 14.1093 22.4936 13.8322 22.6871C13.5552 22.8807 13.2278 22.9894 12.89 23H12.83Z" fill="currentColor"/>
</svg>