<svg width="24" height="24" viewBox="0 0 24 24" fill="none" xmlns="http://www.w3.org/2000/svg">
<path fill-rule="evenodd" clip-rule="evenodd" d="M14.619 10.6425L12.2874 12.8138C12.7384 13.5149 13 14.3494 13 15.245C13 17.7303 10.9853 19.745 8.5 19.745C6.01472 19.745 4 17.7303 4 15.245C4 12.7597 6.01472 10.745 8.5 10.745C9.27929 10.745 10.0123 10.9431 10.6515 11.2917L18.1606 4.29914C18.3394 4.13265 18.573 4.03737 18.8172 4.03128L18.974 4.02737C19.5631 4.01269 20.037 4.50786 19.9966 5.09567L19.9855 5.25661C19.9673 5.52236 19.8437 5.76984 19.6423 5.94416L19 6.5L17.5 7.24499L17 8.5H15.5L14.619 10.6425ZM16.8401 10.5L16.3023 11.8079L14.7027 13.2975C14.8959 13.9132 15 14.5678 15 15.245C15 18.8348 12.0899 21.745 8.5 21.745C4.91015 21.745 2 18.8348 2 15.245C2 11.6551 4.91015 8.74499 8.5 8.74499C9.08962 8.74499 9.66244 8.82396 10.2076 8.97214L16.7977 2.83547C17.334 2.33601 18.0347 2.05017 18.7673 2.03191L18.9242 2.02799C20.6912 1.98393 22.1132 3.46946 21.9919 5.2329L21.9808 5.39384C21.926 6.1911 21.5553 6.93353 20.9511 7.45648L20.1169 8.17836L19.0748 8.69593L18.3561 10.5H16.8401Z" fill="#26313A"/>
<circle cx="7" cy="16.745" r="1" fill="#26313A"/>
</svg>
