<svg width="33" height="32" viewBox="0 0 33 32" fill="none" xmlns="http://www.w3.org/2000/svg">
<g clip-path="url(#clip0_62767_64320)">
<path d="M16.5008 29.8297C24.1382 29.8297 30.3297 23.6382 30.3297 16.0008C30.3297 8.36328 24.1382 2.17188 16.5008 2.17188C8.86328 2.17188 2.67188 8.36328 2.67188 16.0008C2.67188 23.6382 8.86328 29.8297 16.5008 29.8297Z" fill="url(#paint0_linear_62767_64320)"/>
<path d="M11.3684 14.2642C12.9062 14.2642 14.1529 13.0176 14.1529 11.4798C14.1529 9.94195 12.9062 8.69531 11.3684 8.69531C9.83062 8.69531 8.58398 9.94195 8.58398 11.4798C8.58398 13.0176 9.83062 14.2642 11.3684 14.2642Z" fill="white"/>
<path d="M11.3677 14.8527C9.50108 14.8527 7.99219 13.3438 7.99219 11.4771C7.99219 9.61045 9.50108 8.10156 11.3677 8.10156C13.2344 8.10156 14.7433 9.61045 14.7433 11.4771C14.7433 13.3438 13.2344 14.8527 11.3677 14.8527ZM11.3677 9.28378C10.1544 9.28378 9.17441 10.2638 9.17441 11.4771C9.17441 12.6905 10.1544 13.6705 11.3677 13.6705C12.5811 13.6705 13.5611 12.6905 13.5611 11.4771C13.5611 10.2638 12.5811 9.28378 11.3677 9.28378Z" fill="white"/>
<path d="M11.7401 13.1872C12.728 13.1872 13.5289 12.3862 13.5289 11.3983C13.5289 10.4103 12.728 9.60938 11.7401 9.60938C10.7521 9.60938 9.95117 10.4103 9.95117 11.3983C9.95117 12.3862 10.7521 13.1872 11.7401 13.1872Z" fill="black"/>
<path d="M21.7122 14.2642C23.25 14.2642 24.4966 13.0176 24.4966 11.4798C24.4966 9.94195 23.25 8.69531 21.7122 8.69531C20.1744 8.69531 18.9277 9.94195 18.9277 11.4798C18.9277 13.0176 20.1744 14.2642 21.7122 14.2642Z" fill="white"/>
<path d="M21.7115 14.8527C19.8448 14.8527 18.3359 13.3438 18.3359 11.4771C18.3359 9.61045 19.8448 8.10156 21.7115 8.10156C23.5782 8.10156 25.087 9.61045 25.087 11.4771C25.087 13.3438 23.5782 14.8527 21.7115 14.8527ZM21.7115 9.28378C20.4982 9.28378 19.5182 10.2638 19.5182 11.4771C19.5182 12.6905 20.4982 13.6705 21.7115 13.6705C22.9248 13.6705 23.9048 12.6905 23.9048 11.4771C23.9048 10.2638 22.9248 9.28378 21.7115 9.28378Z" fill="white"/>
<path d="M22.0384 21.9283C22.0384 24.9928 19.5496 23.4217 16.5007 23.4217C13.4518 23.4217 10.9629 24.9928 10.9629 21.9283C10.9629 18.8639 13.4362 16.375 16.5007 16.375C19.5651 16.375 22.0384 18.8639 22.0384 21.9283Z" fill="black"/>
<path d="M21.2772 13.1872C22.2651 13.1872 23.0661 12.3862 23.0661 11.3983C23.0661 10.4103 22.2651 9.60938 21.2772 9.60938C20.2892 9.60938 19.4883 10.4103 19.4883 11.3983C19.4883 12.3862 20.2892 13.1872 21.2772 13.1872Z" fill="black"/>
</g>
<defs>
<linearGradient id="paint0_linear_62767_64320" x1="11.7274" y1="0.850431" x2="22.732" y2="35.7779" gradientUnits="userSpaceOnUse">
<stop stop-color="#82D0FC"/>
<stop offset="1" stop-color="#5687D9"/>
</linearGradient>
<clipPath id="clip0_62767_64320">
<rect width="28" height="28" fill="white" transform="translate(2.5 2)"/>
</clipPath>
</defs>
</svg>
