<svg width="16" height="14" viewBox="0 0 16 14" fill="none" xmlns="http://www.w3.org/2000/svg">
<path fill-rule="evenodd" clip-rule="evenodd" d="M8.35018 0.000397767L2.4601 0.000327196C2.02096 -0.0223645 1.58996 0.124984 1.25662 0.411766C0.923288 0.698548 0.713241 1.10272 0.670112 1.54032L0 7.30043V7.38043C0.0232925 7.83235 0.224771 8.25662 0.560286 8.56027C0.8958 8.86392 1.33801 9.0222 1.79 9.00043L4.00014 9.0005L4.00004 12.3105C3.99332 12.5309 4.0311 12.7503 4.11113 12.9558C4.19116 13.1612 4.31179 13.3484 4.46582 13.5062C4.61985 13.664 4.80411 13.789 5.00758 13.874C5.21105 13.9589 5.42956 14.0019 5.65004 14.0005C5.97382 14.0024 6.29094 13.9085 6.56143 13.7306C6.83193 13.5526 7.0437 13.2986 7.17004 13.0005V12.9305C7.35813 12.396 7.58197 11.8749 7.84004 11.3705C8.08004 10.9705 9.27015 9.1905 9.73014 8.5605C9.90788 8.29042 10.0018 7.97382 10.0001 7.6505L10.0002 1.6404C10.0002 1.42418 9.95742 1.21011 9.87438 1.01048C9.79134 0.810849 9.66964 0.629611 9.51629 0.477192C9.36295 0.324773 9.18097 0.204181 8.98085 0.122354C8.78072 0.0405265 8.56639 -0.00092021 8.35018 0.000397767ZM6.61004 9.63047C6.37109 10.0864 6.1704 10.5613 6.01004 11.0505C5.99928 11.072 5.99287 11.0928 5.98709 11.1115C5.9714 11.1623 5.96046 11.1978 5.88004 11.1905C5.77004 11.1805 5.77004 11.0705 5.77004 10.9205L5.77014 8.08047C5.74265 7.7843 5.60524 7.50916 5.38498 7.30926C5.16472 7.10936 4.87758 6.9992 4.58014 7.00047L2.17 7.0004C2.05229 7.01529 1.83999 6.95359 1.85952 6.73484L2.3401 2.27032V2.20032C2.3401 2.08032 2.4901 1.96032 2.71009 1.96032L7.74019 1.96039C7.77434 1.96168 7.8079 1.96969 7.83895 1.98396C7.87001 1.99823 7.89794 2.01849 7.92116 2.04356C7.94438 2.06864 7.96243 2.09805 7.97427 2.13011C7.98612 2.16216 7.99152 2.19624 7.99018 2.23039L7.99014 7.1205C7.9996 7.17006 7.9996 7.22095 7.99014 7.2705C7.85015 7.4505 6.86014 9.09051 6.61004 9.63047Z" fill="#647887"/>
<path fill-rule="evenodd" clip-rule="evenodd" d="M14.4001 0.000523652L11.0001 0.000292863V9.00032L14.4001 9.00055C14.8027 9.01966 15.1966 8.87914 15.4962 8.60951C15.7958 8.33988 15.9769 7.96293 16.0001 7.56055V1.44052C15.9769 1.03814 15.7958 0.66119 15.4962 0.391562C15.1966 0.121933 14.8027 -0.018588 14.4001 0.000523652ZM13.9825 7.00964C13.9625 7.02778 13.937 7.03867 13.9101 7.04055L13.0001 7.04032V1.96029L13.9101 1.96052C13.9379 1.96455 13.9636 1.97743 13.9834 1.99725C14.0032 2.01708 14.0161 2.04278 14.0201 2.07052V6.94055C14.0157 6.96716 14.0024 6.99149 13.9825 7.00964Z" fill="#647887"/>
</svg>
