<svg width="24" height="20" viewBox="0 0 24 20" fill="none" xmlns="http://www.w3.org/2000/svg">
<path id="Shape" d="M20.32 19.9987H10.48C10.1556 20 9.83419 19.9374 9.53401 19.8145C9.23383 19.6916 8.9608 19.5107 8.73051 19.2823C8.50022 19.0539 8.31718 18.7823 8.19184 18.4832C8.0665 18.184 8.00131 17.863 8 17.5387V9.28868C7.99755 8.80454 8.14037 8.33079 8.41 7.92868C9.09 6.97868 10.88 4.46868 11.24 3.86868C11.6313 3.11476 11.9656 2.33257 12.24 1.52868V1.42868C12.4431 0.996929 12.7659 0.632617 13.1702 0.379101C13.5744 0.125585 14.0429 -0.00646012 14.52 -0.00132031C14.8444 -0.00263619 15.1658 0.05995 15.466 0.182865C15.7662 0.30578 16.0392 0.486616 16.2695 0.715049C16.4998 0.943482 16.6828 1.21504 16.8082 1.51421C16.9335 1.81338 16.9987 2.13431 17 2.45868V7.25868H21.32C21.9942 7.22593 22.6541 7.46078 23.156 7.91213C23.6579 8.36347 23.9612 8.99479 24 9.66868V9.78868L23 17.6587C22.9414 18.3191 22.6298 18.9313 22.1304 19.3674C21.6309 19.8035 20.9823 20.0297 20.32 19.9987ZM7 19.9987H2.41C1.80475 20.0287 1.21209 19.8187 0.760824 19.4143C0.309555 19.0098 0.0361406 18.4436 0 17.8387L0 9.41868C0.0361406 8.81376 0.309555 8.24755 0.760824 7.84309C1.21209 7.43864 1.80475 7.22862 2.41 7.25868H7V19.9987Z" fill="#00ADE6"/>
</svg>
