<svg width="16" height="14" viewBox="0 0 16 14" fill="none" xmlns="http://www.w3.org/2000/svg">
<path fill-rule="evenodd" clip-rule="evenodd" d="M7.64994 13.9982L13.54 13.9982C13.9792 14.0209 14.4102 13.8736 14.7435 13.5868C15.0768 13.3 15.2869 12.8958 15.33 12.4582L16.0001 6.69812V6.61812C15.9768 6.1662 15.7754 5.74193 15.4398 5.43828C15.1043 5.13463 14.6621 4.97635 14.2101 4.99812L12 4.99805L12.0001 1.68808C12.0068 1.4677 11.969 1.24822 11.889 1.04277C11.809 0.837327 11.6883 0.650124 11.5343 0.492362C11.3803 0.3346 11.196 0.209515 10.9925 0.124589C10.7891 0.0396617 10.5706 -0.00336486 10.3501 -0.0019178C10.0263 -0.00389606 9.70918 0.0900113 9.43869 0.267968C9.1682 0.445924 8.95643 0.699969 8.83008 0.998082V1.06808C8.64199 1.60252 8.41815 2.1237 8.16008 2.62808C7.92008 3.02808 6.72997 4.80805 6.26998 5.43805C6.09225 5.70813 5.99831 6.02473 5.99998 6.34805L5.99996 12.3582C5.99995 12.5744 6.0427 12.7884 6.12574 12.9881C6.20878 13.1877 6.33048 13.3689 6.48383 13.5214C6.63717 13.6738 6.81915 13.7944 7.01928 13.8762C7.2194 13.958 7.43374 13.9995 7.64994 13.9982ZM9.39008 4.36808C9.62903 3.91217 9.82972 3.4372 9.99008 2.94808C10.0008 2.92657 10.0073 2.90577 10.013 2.88707C10.0287 2.83622 10.0397 2.80077 10.1201 2.80808C10.2301 2.81808 10.2301 2.92808 10.2301 3.07808L10.23 5.91808C10.2575 6.21425 10.3949 6.48939 10.6151 6.68929C10.8354 6.88919 11.1225 6.99936 11.42 6.99808L13.8301 6.99815C13.9478 6.98326 14.1601 7.04496 14.1406 7.26371L13.66 11.7282V11.7982C13.66 11.9182 13.51 12.0382 13.29 12.0382L8.25994 12.0382C8.22578 12.0369 8.19222 12.0289 8.16117 12.0146C8.13012 12.0003 8.10218 11.9801 8.07896 11.955C8.05574 11.9299 8.03769 11.9005 8.02585 11.8684C8.01401 11.8364 8.0086 11.8023 8.00994 11.7682L8.00998 6.87805C8.00052 6.82849 8.00052 6.7776 8.00998 6.72805C8.14998 6.54805 9.13998 4.90804 9.39008 4.36808Z" fill="#647887"/>
<path fill-rule="evenodd" clip-rule="evenodd" d="M1.6 13.998L5 13.9983V4.99823L1.6 4.998C1.1974 4.97889 0.803522 5.11941 0.503935 5.38904C0.204348 5.65867 0.0232556 6.03562 0 6.438V12.558C0.0232556 12.9604 0.204348 13.3374 0.503935 13.607C0.803522 13.8766 1.1974 14.0171 1.6 13.998ZM2.01765 6.98891C2.03761 6.97077 2.06309 6.95988 2.09 6.958L3 6.95823V12.0383L2.09 12.038C2.06226 12.034 2.03655 12.0211 2.01673 12.0013C1.99691 11.9815 1.98402 11.9558 1.98 11.928V7.058C1.98443 7.03139 1.99769 7.00706 2.01765 6.98891Z" fill="#647887"/>
</svg>
