<svg width="21" height="20" viewBox="0 0 21 20" fill="none" color="#26313A"
    xmlns="http://www.w3.org/2000/svg">
    <path fill-rule="evenodd" clip-rule="evenodd" d="M10.0002 18.5C10.0002 19.0523 10.4479 19.5 11.0002 19.5C11.3349 19.5 11.6659 19.4827 11.9923 19.4488C12.5416 19.3917 12.9407 18.9001 12.8836 18.3508C12.8265 17.8014 12.335 17.4024 11.7856 17.4595C11.5278 17.4863 11.2658 17.5 11.0002 17.5C10.4479 17.5 10.0002 17.9477 10.0002 18.5ZM13.5451 18.1743C13.77 18.6787 14.3613 18.9053 14.8657 18.6804C15.4757 18.4083 16.0516 18.0741 16.5851 17.6857C17.0317 17.3607 17.1302 16.7353 16.8052 16.2888C16.4802 15.8422 15.8548 15.7437 15.4082 16.0687C14.9867 16.3755 14.5321 16.6393 14.0512 16.8537C13.5468 17.0787 13.3202 17.6699 13.5451 18.1743ZM17.289 15.805C17.7355 16.13 18.361 16.0315 18.6859 15.5849C19.0743 15.0514 19.4085 14.4755 19.6806 13.8655C19.9055 13.3611 19.6789 12.7698 19.1745 12.5449C18.6701 12.32 18.0789 12.5466 17.8539 13.051C17.6395 13.5319 17.3757 13.9864 17.0689 14.408C16.7439 14.8546 16.8424 15.48 17.289 15.805ZM17.3104 4.21834C16.8627 4.54168 16.7618 5.16676 17.0852 5.6145C17.2677 5.86721 17.4348 6.13165 17.5851 6.40644C17.8501 6.89096 18.4578 7.06888 18.9423 6.80382C19.4268 6.53876 19.6047 5.93111 19.3397 5.44658C19.1492 5.09835 18.9376 4.76345 18.7066 4.4436C18.3833 3.99586 17.7582 3.89501 17.3104 4.21834ZM19.3115 7.94829C18.7634 8.01643 18.3744 8.51596 18.4425 9.06402C18.4806 9.37026 18.5002 9.68261 18.5002 10C18.5002 10.2656 18.4865 10.5276 18.4597 10.7854C18.4026 11.3348 18.8017 11.8263 19.351 11.8834C19.9003 11.9405 20.3919 11.5414 20.449 10.9921C20.4829 10.6657 20.5002 10.3347 20.5002 10C20.5002 9.59993 20.4754 9.20517 20.4272 8.81728C20.3591 8.26922 19.8596 7.88016 19.3115 7.94829Z" fill="currentColor"/>
    <path fill-rule="evenodd" clip-rule="evenodd" d="M3.63304 10C3.63304 5.85786 6.9909 2.5 11.133 2.5C12.7995 2.5 14.3364 3.04233 15.5807 3.96044C16.0252 4.28834 16.6512 4.19388 16.9791 3.74947C17.307 3.30506 17.2126 2.67898 16.7682 2.35108C15.1916 1.18786 13.2412 0.5 11.133 0.5C5.88633 0.5 1.63304 4.75329 1.63304 10C1.63304 11.4172 1.944 12.7644 2.50235 13.975C3.02656 15.1115 3.76807 16.126 4.67312 16.9656C5.07799 17.3413 5.71071 17.3176 6.08634 16.9127C6.46198 16.5078 6.43827 15.8751 6.0334 15.4995C5.3175 14.8353 4.73189 14.0336 4.31847 13.1373C3.8788 12.184 3.63304 11.1221 3.63304 10Z" fill="currentColor"/>
    <path fill-rule="evenodd" clip-rule="evenodd" d="M1.00723 16.6654C0.912312 17.2095 1.27642 17.7275 1.82048 17.8224L6.17868 18.5828C6.72274 18.6777 7.24074 18.3136 7.33567 17.7695L8.09602 13.4113C8.19094 12.8672 7.82683 12.3492 7.28276 12.2543C6.7387 12.1594 6.2207 12.5235 6.12578 13.0676L5.53729 16.4406L2.16422 15.8522C1.62015 15.7572 1.10215 16.1213 1.00723 16.6654Z" fill="currentColor"/>
    <path fill-rule="evenodd" clip-rule="evenodd" d="M10.5002 4.44782C11.0525 4.44782 11.5002 4.89553 11.5002 5.44782V9.44781H13.5002C14.0525 9.44781 14.5002 9.89553 14.5002 10.4478C14.5002 11.0001 14.0525 11.4478 13.5002 11.4478H10.5002C9.94794 11.4478 9.50023 11.0001 9.50023 10.4478V5.44782C9.50023 4.89553 9.94794 4.44782 10.5002 4.44782Z" fill="currentColor"/>
</svg>
