<svg width="18" height="24" viewBox="0 0 18 24" fill="none" xmlns="http://www.w3.org/2000/svg">
<path fill-rule="evenodd" clip-rule="evenodd" d="M2 2V22H11.6V19.7C11.6 18.7246 12.3738 17.8 13.4 17.8H16V2H2ZM13.6083 21.9775L13.6 21.9858V19.8H15.9838L13.6243 21.9628L13.6083 21.9775ZM0 1.9C0 0.779221 0.918795 0 2 0H16C17.0812 0 18 0.779221 18 1.9V19.9C18 20.1451 17.9435 20.4081 17.8388 20.6437C17.7542 20.8341 17.5932 21.1051 17.3058 21.3012L14.9899 23.4242C14.8338 23.5775 14.6402 23.7292 14.3936 23.8388C14.1336 23.9544 13.8667 24 13.6 24H2C0.918806 24 0 23.2208 0 22.1V1.9ZM6 6C5.44772 6 5 6.44772 5 7C5 7.55228 5.44772 8 6 8H12C12.5523 8 13 7.55228 13 7C13 6.44772 12.5523 6 12 6H6ZM5 11C5 10.4477 5.44772 10 6 10H12C12.5523 10 13 10.4477 13 11C13 11.5523 12.5523 12 12 12H6C5.44772 12 5 11.5523 5 11ZM6 14C5.44772 14 5 14.4477 5 15C5 15.5523 5.44772 16 6 16H12C12.5523 16 13 15.5523 13 15C13 14.4477 12.5523 14 12 14H6Z" fill="#26313A"/>
</svg>
