<svg width="24" height="24" viewBox="0 0 24 24" fill="none"
    xmlns="http://www.w3.org/2000/svg">
    <path fill-rule="evenodd" clip-rule="evenodd" d="M8.43633 3.65112C8.5897 3.24214 8.91608 3 9.4 3H14.7C15.1128 3 15.5202 3.26843 15.6637 3.65112L15.6683 3.66348L15.6733 3.6757L16.6155 6H7.48446L8.42674 3.6757L8.4317 3.66348L8.43633 3.65112ZM5.32635 6L6.56875 2.93541C7.01841 1.75215 8.08888 1 9.4 1H14.7C15.8828 1 17.0709 1.72611 17.5312 2.93523L18.7736 6H21C21.5523 6 22 6.44772 22 7C22 7.55228 21.5523 8 21 8H20V18C20 20.7523 17.7523 23 15 23H9C6.24771 23 4 20.7523 4 18V8H3C2.44772 8 2 7.55228 2 7C2 6.44772 2.44772 6 3 6H5.32635ZM6 8H18V18C18 19.6477 16.6477 21 15 21H9C7.35228 21 6 19.6477 6 18V8ZM11 11C11 10.4477 10.5523 10 10 10C9.44772 10 9 10.4477 9 11V17C9 17.5523 9.44772 18 10 18C10.5523 18 11 17.5523 11 17V11ZM15 11C15 10.4477 14.5523 10 14 10C13.4477 10 13 10.4477 13 11V17C13 17.5523 13.4477 18 14 18C14.5523 18 15 17.5523 15 17V11Z" fill="#000"/>
</svg>
