<svg width="240" height="240" viewBox="0 0 240 240" fill="none" xmlns="http://www.w3.org/2000/svg">
<rect width="240" height="240" fill="#E5E5E5"/>
<path d="M-2257 -407C-2257 -408.105 -2256.1 -409 -2255 -409H2684C2685.1 -409 2686 -408.105 2686 -407V672C2686 673.105 2685.1 674 2684 674H-2255C-2256.1 674 -2257 673.105 -2257 672V-407Z" fill="#F3F6F8"/>
<g clip-path="url(#clip0_52361_126690)">
<rect width="375" height="812" transform="translate(-67 -224)" fill="white"/>
<path d="M120 240C186.274 240 240 186.274 240 120C240 53.7258 186.274 0 120 0C53.7258 0 0 53.7258 0 120C0 186.274 53.7258 240 120 240Z" fill="url(#paint0_linear_52361_126690)"/>
<g filter="url(#filter0_d_52361_126690)">
<rect width="151.393" height="55.7401" rx="11.0828" transform="matrix(0.983255 0.182236 -0.156434 0.987688 56.8066 7.85791)" fill="url(#paint1_radial_52361_126690)" shape-rendering="crispEdges"/>
<path d="M97.7573 34.4473L95.4938 48.7385C95.3369 49.7289 95.0842 50.62 94.7355 51.4117C94.4222 52.108 93.9918 52.7113 93.4441 53.2214C92.9162 53.7353 92.3038 54.1417 91.6069 54.4407C90.91 54.7397 90.1401 54.9232 89.2971 54.9913C88.4707 55.0828 87.5942 55.0427 86.6674 54.8709C85.5434 54.6626 84.5068 54.287 83.5576 53.744C82.6313 53.185 81.8748 52.5146 81.2882 51.7331C80.201 50.2674 79.8488 48.3264 80.2315 45.9098L82.495 31.6187L86.5176 32.3642L84.3153 46.2691C84.2432 46.7247 84.1986 47.1344 84.1815 47.4983C84.1645 47.8621 84.1569 48.1665 84.1587 48.4115C84.1972 49.1935 84.4876 49.859 85.0299 50.408C85.595 50.9409 86.3212 51.2896 87.2085 51.4541C87.7804 51.5601 88.317 51.5678 88.8185 51.4772C89.3232 51.3669 89.7599 51.1725 90.1287 50.8943C90.3147 50.7453 90.4711 50.5907 90.5979 50.4307C90.7476 50.2546 90.8724 50.0433 90.9724 49.7967C91.0952 49.534 91.1947 49.2263 91.2708 48.8734C91.3668 48.5241 91.4539 48.1019 91.5324 47.6067L93.7347 33.7018L97.7573 34.4473Z" fill="white"/>
<path d="M97.0331 61.8995L100.497 40.0319L104.342 40.7446L104.078 42.4084C104.904 41.8071 105.689 41.402 106.432 41.1932C107.196 40.9881 107.981 40.9604 108.79 41.1102C109.717 41.282 110.522 41.6453 111.205 42.2001C111.889 42.755 112.437 43.4581 112.85 44.3094C113.263 45.1608 113.522 46.1568 113.625 47.2974C113.752 48.4218 113.71 49.6476 113.499 50.9747C113.286 52.3216 112.947 53.5025 112.482 54.5172C112.039 55.5159 111.483 56.3404 110.811 56.9907C110.16 57.6448 109.418 58.0986 108.586 58.3522C107.754 58.6058 106.855 58.6431 105.889 58.464C104.134 58.1387 102.829 57.1526 101.973 55.5057L100.849 62.6067L97.0331 61.8995ZM103.561 45.6767L102.455 52.6589C102.723 53.4018 103.103 54.0125 103.595 54.4912C104.111 54.9537 104.684 55.2435 105.315 55.3604C106.419 55.5651 107.321 55.2531 108.021 54.4245C108.74 53.5995 109.244 52.2759 109.533 50.4536C110.154 46.5317 109.35 44.3642 107.122 43.9512C105.801 43.7064 104.614 44.2815 103.561 45.6767Z" fill="white"/>
<path d="M127.378 46.4516L128.649 38.4295L132.494 39.1421L129.459 58.306C129.393 58.722 129.335 59.0884 129.285 59.4053C129.237 59.7024 129.2 60.0014 129.173 60.3021C129.146 60.6029 129.117 60.9136 129.086 61.2342C129.079 61.5386 129.063 61.8925 129.04 62.296L125.668 61.671L125.58 59.728C124.116 61.0266 122.486 61.5096 120.692 61.177C119.746 61.0016 118.918 60.6544 118.208 60.1355C117.502 59.5969 116.929 58.9198 116.49 58.1044C116.074 57.2729 115.798 56.3246 115.662 55.2596C115.549 54.1784 115.593 53.004 115.794 51.7363C116.01 50.3696 116.354 49.159 116.826 48.1046C117.32 47.034 117.906 46.1538 118.583 45.4638C119.261 44.7738 120.017 44.2921 120.852 44.0187C121.71 43.7291 122.622 43.6739 123.588 43.8529C125.146 44.1417 126.409 45.0079 127.378 46.4516ZM125.693 57.0882L126.898 49.4821C126.637 48.8221 126.258 48.2726 125.759 47.8335C125.283 47.3783 124.729 47.0922 124.098 46.9753C122.974 46.767 122.024 47.1311 121.246 48.0676C120.472 48.9843 119.932 50.4033 119.628 52.3246C119.041 56.0286 119.892 58.0926 122.179 58.5166C123.421 58.7468 124.593 58.2707 125.693 57.0882Z" fill="white"/>
<path d="M142.925 53.8899L143.118 52.6717C143.243 51.8794 143.137 51.2684 142.799 50.8388C142.484 50.393 141.902 50.0916 141.054 49.9344C139.516 49.6493 138.433 50.213 137.803 51.6255L134.357 50.314C135.046 48.9125 135.969 47.9521 137.127 47.4327C138.305 46.917 139.781 46.8236 141.556 47.1525C143.646 47.5399 145.168 48.3113 146.122 49.4667C146.565 49.9975 146.844 50.6098 146.957 51.3037C147.074 51.9777 147.047 52.8496 146.878 53.9192L145.73 61.1688C145.642 61.7234 145.57 62.1789 145.513 62.5355C145.477 62.8957 145.444 63.2261 145.417 63.5269C145.413 63.8115 145.42 64.0881 145.438 64.3565C145.456 64.625 145.485 64.9565 145.524 65.3512L141.797 64.6604L141.72 62.8417C139.913 63.9953 138.162 64.4149 136.466 64.1006C135.757 63.969 135.115 63.7278 134.541 63.3768C133.984 63.0492 133.522 62.6373 133.154 62.1409C132.786 61.6446 132.519 61.0854 132.354 60.4635C132.208 59.8452 132.19 59.1895 132.3 58.4962C132.46 57.486 132.88 56.626 133.561 55.9162C134.242 55.2064 135.133 54.7089 136.233 54.4235C136.784 54.2809 137.38 54.1671 138.023 54.0824C138.665 53.9976 139.364 53.9436 140.119 53.9203C140.302 53.9136 140.526 53.9142 140.788 53.9221C141.051 53.93 141.417 53.9264 141.886 53.9115L142.925 53.8899ZM142.037 59.6891L142.493 56.8071C142.267 56.8263 142.093 56.8348 141.971 56.8327C141.87 56.8343 141.768 56.8358 141.666 56.8373C141.545 56.8352 141.392 56.8375 141.208 56.8442C141.044 56.8546 140.851 56.8595 140.628 56.8589C140.382 56.8745 140.155 56.8937 139.949 56.9166C139.765 56.9233 139.601 56.9337 139.457 56.9477C137.492 57.1749 136.41 57.9224 136.209 59.1901C136.118 59.7645 136.222 60.2629 136.52 60.6852C136.838 61.1112 137.283 61.3772 137.855 61.4831C138.25 61.5562 138.655 61.56 139.071 61.4944C139.511 61.4127 139.949 61.2698 140.388 61.0656C140.829 60.8415 141.201 60.6047 141.505 60.3551C141.828 60.1092 142.005 59.8872 142.037 59.6891Z" fill="white"/>
<path d="M148.774 52.1603L149.264 49.0704L151.63 49.5089L152.237 45.6761L156.141 46.3998L155.534 50.2325L159.054 50.8849L158.565 53.9749L155.015 53.317L153.519 62.7653C153.495 63.1687 153.613 63.5167 153.871 63.8092C154.152 64.0856 154.539 64.2695 155.032 64.3608C155.269 64.4047 155.538 64.4342 155.84 64.4494C156.145 64.4448 156.504 64.4196 156.918 64.3739L156.447 67.345L155.955 67.3762C155.647 67.4006 155.381 67.4125 155.158 67.4119C154.954 67.415 154.772 67.4118 154.611 67.4023C154.47 67.3966 154.33 67.3809 154.192 67.3553C154.054 67.3297 153.897 67.3005 153.719 67.2676C152.004 66.9496 150.815 66.2503 150.154 65.1695C149.842 64.7039 149.655 64.2206 149.592 63.7196C149.53 63.2187 149.573 62.4928 149.724 61.542L151.14 52.5989L148.774 52.1603Z" fill="white"/>
<path d="M172.892 62.7777L162.688 60.8864L162.622 61.3023C162.402 62.6889 162.541 63.8665 163.037 64.8352C163.553 65.8075 164.343 66.3923 165.408 66.5897C167.005 66.8857 168.216 66.162 169.04 64.4186L172.358 65.7676C171.535 67.2462 170.486 68.2955 169.21 68.9154C167.958 69.5192 166.503 69.6676 164.847 69.3606C163.723 69.1523 162.739 68.766 161.895 68.2018C161.07 67.6411 160.399 66.9458 159.881 66.1158C159.385 65.2696 159.052 64.3005 158.88 63.2084C158.711 62.0964 158.73 60.8868 158.937 59.5795C159.15 58.2326 159.511 57.0455 160.018 56.0182C160.549 54.9748 161.191 54.1253 161.944 53.4697C162.721 52.798 163.585 52.3364 164.539 52.0849C165.495 51.8136 166.515 51.7784 167.6 51.9795C168.783 52.1987 169.817 52.6554 170.702 53.3495C171.609 54.0274 172.249 54.8595 172.62 55.8459C172.924 56.6159 173.112 57.5478 173.182 58.6414C173.272 59.7387 173.239 60.7826 173.082 61.773C173.06 61.9116 173.035 62.0701 173.007 62.2483C172.981 62.4068 172.943 62.5832 172.892 62.7777ZM167.123 54.7966C166.177 54.6211 165.36 54.8469 164.672 55.4738C164.003 56.1043 163.513 57.0839 163.201 58.4126L169.472 59.5747C169.679 58.2674 169.566 57.1863 169.133 56.3313C168.72 55.4799 168.05 54.9683 167.123 54.7966Z" fill="white"/>
</g>
<path d="M121.356 80.5021C119.93 87.0663 115.912 104.08 114.983 108.871L100.266 105.385C101.599 101.591 105.269 89.3539 105.907 87.5406C110.846 73.5066 116.535 61.3116 122.015 61.5617C123.948 61.6546 125.448 63.116 124.863 66.3883C123.107 76.1209 121.356 80.5021 121.356 80.5021Z" fill="black" fill-opacity="0.1"/>
<path d="M78.0929 173.768C81.929 175.776 85.8554 177.971 89.8474 180.355C100.482 186.709 109.797 193.38 117.885 199.899C110.281 200.848 102.677 201.797 95.0725 202.746C92.641 201.567 84.4115 197.191 80.293 187.426C77.9062 181.784 77.8732 176.663 78.0929 173.768Z" fill="url(#paint2_linear_52361_126690)"/>
<path d="M67.4642 188.375L78.0929 173.768C79.4383 177.484 82.5424 184.419 89.4237 190.345C100.939 200.279 114.515 200.051 117.891 199.905L117.597 211.565C107.172 212.891 99.315 211.13 94.7343 209.675C87.3285 207.321 86.9107 206.143 80.4498 201.865C69.7419 193.271 69.9467 190.411 67.4642 188.375Z" fill="url(#paint3_radial_52361_126690)"/>
<path d="M110.313 88.8472C108.838 93.0453 104.707 105.423 101.331 113.26C98.4 111.157 96.0906 110.149 91.7663 113.761C89.6255 115.973 87.4927 118.34 85.4426 122.225C83.1799 126.514 82.0485 128.658 81.2821 130.802C80.2687 133.664 78.4019 138.663 78.9458 144.914C79.2896 148.881 80.556 152.15 83.0763 158.688C84.6223 162.691 86.092 165.942 87.1631 168.2C85.042 172.123 82.9085 176.046 80.7874 179.969C83.0519 183.748 88.9667 192.367 100.114 197.043C104.764 198.996 109.072 199.735 112.383 199.989C114.62 193.783 116.851 187.584 119.087 181.379C126.587 177.608 131.106 173.046 133.643 169.98C139.352 163.08 141.798 155.558 144.734 146.512C146.082 142.364 146.975 138.865 147.541 136.435C147.652 135.946 149.203 128.83 144.751 124.856C144.069 124.242 142.957 123.452 141.298 122.957C141.255 122.013 140.991 118.506 138.188 115.559C136.054 113.32 133.584 112.589 132.544 112.346C132.46 110.99 131.997 106.15 128.076 102.291C125.832 100.082 122.501 103.096 121.086 102.657C121.974 98.075 123.723 88.3938 125.087 82.1165C125.087 82.1165 126.762 76.2408 128.44 66.9336C129.001 63.8044 127.566 62.4069 125.718 62.3181C120.477 62.0789 115.037 75.4269 110.313 88.8472Z" fill="url(#paint4_radial_52361_126690)"/>
<path d="M121.973 98.6885C121.392 101.658 120.803 104.584 120.37 107.545C119.918 110.502 119.634 113.468 119.31 116.479C118.941 113.467 119.066 110.416 119.509 107.417C119.971 104.411 120.731 101.451 121.973 98.6885Z" fill="#9F4F4B"/>
<path d="M132.541 112.366C132.563 113.385 132.516 114.378 132.426 115.366C132.329 116.349 132.257 117.342 132.185 118.324C132.022 120.294 131.908 122.261 131.63 124.268C131.211 122.291 131.172 120.258 131.315 118.258C131.405 117.257 131.507 116.256 131.753 115.278C131.968 114.295 132.213 113.317 132.541 112.366Z" fill="#9F4F4B"/>
<path d="M141.26 122.477C141.301 123.137 141.253 123.764 141.187 124.386C141.132 125.008 140.978 125.61 140.905 126.214C140.721 127.436 140.544 128.652 140.195 129.901C139.857 128.645 139.869 127.351 140.044 126.086C140.141 125.456 140.332 124.84 140.523 124.236C140.72 123.637 140.955 123.037 141.26 122.477Z" fill="#9F4F4B"/>
<path d="M103.333 108.36C102.922 110.211 102.205 112.328 101.65 114.14C101.07 115.929 100.566 117.789 99.6488 119.49C98.7623 121.184 97.7177 122.779 96.5649 124.284C95.9853 125.034 95.393 125.772 94.7814 126.492C94.1507 127.194 93.5264 127.902 92.8514 128.575C93.9091 127.005 94.9929 125.471 96.0137 123.902C97.028 122.327 98.03 120.752 98.8685 119.097C99.764 117.483 100.276 115.678 101.006 113.946C101.372 113.081 101.503 112.989 101.837 112.105C102.195 111.221 102.955 109.227 103.333 108.36Z" fill="#9F4F4B"/>
</g>
<path d="M-2255 -408H2684V-410H-2255V-408ZM2685 -407V672H2687V-407H2685ZM2684 673H-2255V675H2684V673ZM-2256 672V-407H-2258V672H-2256ZM-2255 673C-2255.55 673 -2256 672.552 -2256 672H-2258C-2258 673.657 -2256.66 675 -2255 675V673ZM2685 672C2685 672.552 2684.55 673 2684 673V675C2685.66 675 2687 673.657 2687 672H2685ZM2684 -408C2684.55 -408 2685 -407.552 2685 -407H2687C2687 -408.657 2685.66 -410 2684 -410V-408ZM-2255 -410C-2256.66 -410 -2258 -408.657 -2258 -407H-2256C-2256 -407.552 -2255.55 -408 -2255 -408V-410Z" fill="black" fill-opacity="0.1"/>
<defs>
<filter id="filter0_d_52361_126690" x="44.9204" y="7.85791" width="160.745" height="85.8096" filterUnits="userSpaceOnUse" color-interpolation-filters="sRGB">
<feFlood flood-opacity="0" result="BackgroundImageFix"/>
<feColorMatrix in="SourceAlpha" type="matrix" values="0 0 0 0 0 0 0 0 0 0 0 0 0 0 0 0 0 0 127 0" result="hardAlpha"/>
<feOffset dx="-3.1665" dy="3.1665"/>
<feComposite in2="hardAlpha" operator="out"/>
<feColorMatrix type="matrix" values="0 0 0 0 0.6 0 0 0 0 0.286275 0 0 0 0 0 0 0 0 1 0"/>
<feBlend mode="normal" in2="BackgroundImageFix" result="effect1_dropShadow_52361_126690"/>
<feBlend mode="normal" in="SourceGraphic" in2="effect1_dropShadow_52361_126690" result="shape"/>
</filter>
<linearGradient id="paint0_linear_52361_126690" x1="120" y1="0" x2="120" y2="240" gradientUnits="userSpaceOnUse">
<stop stop-color="#8499AB" stop-opacity="0.1"/>
<stop offset="1" stop-color="#8499AB" stop-opacity="0"/>
</linearGradient>
<radialGradient id="paint1_radial_52361_126690" cx="0" cy="0" r="1" gradientUnits="userSpaceOnUse" gradientTransform="translate(60.5878 -15.9946) rotate(78.1061) scale(73.3086 195.094)">
<stop stop-color="#FFA502"/>
<stop offset="1" stop-color="#FF7900"/>
</radialGradient>
<linearGradient id="paint2_linear_52361_126690" x1="117.786" y1="199.677" x2="85.7262" y2="208.353" gradientUnits="userSpaceOnUse">
<stop stop-color="#0C659F"/>
<stop offset="0.5625" stop-color="#54BBFF"/>
<stop offset="1" stop-color="#0E6EAE"/>
</linearGradient>
<radialGradient id="paint3_radial_52361_126690" cx="0" cy="0" r="1" gradientUnits="userSpaceOnUse" gradientTransform="translate(125.71 214.086) rotate(-166.683) scale(45.0227 48.5639)">
<stop offset="0.040724" stop-color="#32ADFF"/>
<stop offset="1" stop-color="#2090DA"/>
</radialGradient>
<radialGradient id="paint4_radial_52361_126690" cx="0" cy="0" r="1" gradientUnits="userSpaceOnUse" gradientTransform="translate(123.696 125.184) rotate(139.674) scale(65.1043 43.3942)">
<stop offset="0.12612" stop-color="#FFCFB5"/>
<stop offset="1" stop-color="#FFAF83"/>
</radialGradient>
<clipPath id="clip0_52361_126690">
<rect width="375" height="812" fill="white" transform="translate(-67 -224)"/>
</clipPath>
</defs>
</svg>
