<svg width="24" height="24" viewBox="0 0 24 24" fill="none" color="#26313A" xmlns="http://www.w3.org/2000/svg">
<path fill-rule="evenodd" clip-rule="evenodd" d="M11.8875 2.00008C12.1528 1.99676 12.4085 2.09897 12.5984 2.28422L16.6983 6.28422C17.0936 6.6699 17.1015 7.30301 16.7158 7.69833C16.3301 8.09364 15.697 8.10145 15.3017 7.71578L13 5.47023L13 16C13 16.5523 12.5523 17 12 17C11.4477 17 11 16.5523 11 16L11 5.35555L8.716 7.6981C8.33045 8.09354 7.69733 8.10155 7.3019 7.716C6.90646 7.33045 6.89845 6.69733 7.284 6.3019L11.184 2.3019C11.3692 2.11196 11.6223 2.00339 11.8875 2.00008ZM2 21C2 20.4477 2.44772 20 3 20H21C21.5523 20 22 20.4477 22 21C22 21.5523 21.5523 22 21 22H3C2.44772 22 2 21.5523 2 21Z" fill="currentColor"/>
</svg>
