<svg width="24" height="24" viewBox="0 0 24 24" color="#26313A" fill="none"
    xmlns="http://www.w3.org/2000/svg">
    <path fill-rule="evenodd" clip-rule="evenodd" d="M12 1C9.23858 1 7 3.23858 7 6C7 8.76142 9.23858 11 12 11C14.7614 11 17 8.76142 17 6C17 3.23858 14.7614 1 12 1ZM9 6C9 4.34315 10.3431 3 12 3C13.6569 3 15 4.34315 15 6C15 7.65685 13.6569 9 12 9C10.3431 9 9 7.65685 9 6Z" fill="currentColor"/>
    <path fill-rule="evenodd" clip-rule="evenodd" d="M12 11.7C9.59509 11.7 7.13205 12.4885 5.25 13.9C3.35804 15.319 2 17.4173 2 20V21C2 21.5273 2.18011 22.0443 2.56789 22.4321C2.95567 22.8199 3.47275 23 4 23H20C20.5272 23 21.0443 22.8199 21.4321 22.4321C21.8199 22.0443 22 21.5273 22 21V20C22 17.4173 20.642 15.319 18.75 13.9C16.868 12.4885 14.4049 11.7 12 11.7ZM4 20C4 18.1827 4.94196 16.631 6.45 15.5C7.96795 14.3615 10.0049 13.7 12 13.7C13.9951 13.7 16.032 14.3615 17.55 15.5C19.058 16.631 20 18.1827 20 20V21H4V20Z" fill="currentColor"/>
</svg>
