<svg width="24" height="24" viewBox="0 0 24 24" fill="none" xmlns="http://www.w3.org/2000/svg">
    <path fill-rule="evenodd" clip-rule="evenodd"
          d="M16 10.0568V7.71429C16 6.20484 14.7658 5 13.2667 5H3.73333C2.2342 5 1 6.20484 1 7.71429V16.2857C1 17.7952 2.2342 19 3.73333 19H13.2667C14.7658 19 16 17.7952 16 16.2857V13.9432L21.4188 17.8137C21.7236 18.0315 22.1245 18.0606 22.4576 17.8892C22.7907 17.7178 23 17.3746 23 17V7C23 6.62541 22.7907 6.28224 22.4576 6.11083C22.1245 5.93943 21.7236 5.96854 21.4188 6.18627L16 10.0568ZM3 7.71429C3 7.33019 3.31788 7 3.73333 7H13.2667C13.6821 7 14 7.33019 14 7.71429V16.2857C14 16.6698 13.6821 17 13.2667 17H3.73333C3.31788 17 3 16.6698 3 16.2857V7.71429ZM21 15.0568L16.7205 12L21 8.94319V15.0568Z"
          fill="currentColor"/>
</svg>
