<svg width="14" height="8" viewBox="0 0 14 8" fill="none" xmlns="http://www.w3.org/2000/svg">
    <path fill-rule="evenodd" clip-rule="evenodd"
          d="M0.5 1.55102C0.5 0.688479 1.24052 0 2.14 0H7.86C8.75948 0 9.5 0.688479 9.5 1.55102V2V3.09983V4.90017V6V6.44898C9.5 7.31152 8.75948 8 7.86 8H2.14C1.24052 8 0.5 7.31152 0.5 6.44898V1.55102ZM10.5 5.27005C10.5 5.44018 10.5865 5.59864 10.7296 5.69064L12.6215 6.90686C12.7909 7.01573 13.0136 7.03028 13.1987 6.94458C13.3837 6.85888 13.5 6.68729 13.5 6.5V1.5C13.5 1.31271 13.3837 1.14112 13.1987 1.05542C13.0136 0.969716 12.7909 0.984273 12.6215 1.09313L10.7296 2.30936C10.5865 2.40136 10.5 2.55982 10.5 2.72995V5.27005Z"
          fill="currentColor"/>
</svg>
