<svg width="80" height="80" viewBox="0 0 80 80" fill="none" color="#26313A" xmlns="http://www.w3.org/2000/svg">
<path fill-rule="evenodd" clip-rule="evenodd" d="M42.8989 8.35488C42.3092 7.31602 41.2087 6.67212 40.0142 6.66702C38.8197 6.66193 37.7138 7.29642 37.1152 8.3302L0.448579 71.6635C-0.148455 72.6948 -0.149596 73.9663 0.445585 74.9986C1.04077 76.0309 2.14174 76.667 3.33333 76.667H75.9487C77.1352 76.667 78.2323 76.0363 78.8293 75.0109C79.4263 73.9855 79.4333 72.7201 78.8476 71.6882L42.8989 8.35488ZM70.2238 70.0003H9.11483L39.9714 16.7026L70.2238 70.0003ZM40.0002 30.0003C41.8411 30.0003 43.3335 31.4927 43.3335 33.3337V50.0003C43.3335 51.8413 41.8411 53.3337 40.0002 53.3337C38.1592 53.3337 36.6668 51.8413 36.6668 50.0003V33.3337C36.6668 31.4927 38.1592 30.0003 40.0002 30.0003ZM36.6668 60.2282C36.6668 58.3872 38.1592 56.8949 40.0002 56.8949C41.8411 56.8949 43.3335 58.3872 43.3335 60.2282C43.3335 62.0691 41.8411 63.5615 40.0002 63.5615C38.1592 63.5615 36.6668 62.0691 36.6668 60.2282Z" fill="currentColor"/>
</svg>
