<svg width="22" height="20" viewBox="0 0 22 20" fill="none" xmlns="http://www.w3.org/2000/svg">
<path fill-rule="evenodd" clip-rule="evenodd" d="M2.70005 0C2.20697 0 1.78748 0.359414 1.71188 0.846663L0.811875 6.64666C0.804003 6.6974 0.800049 6.74866 0.800049 6.8C0.800049 7.87258 1.25064 8.86701 2 9.51961V19C2 19.5523 2.44772 20 3 20H9C9.55228 20 10 19.5523 10 19V15H12V19C12 19.5523 12.4477 20 13 20H19C19.5523 20 20 19.5523 20 19V9.5197C20.7494 8.86709 21.2001 7.87263 21.2001 6.8C21.2001 6.74305 21.1952 6.68621 21.1855 6.63009L20.1855 0.830093C20.1028 0.350442 19.6868 0 19.2001 0H2.70005ZM18 10.2985C17.9669 10.2995 17.9335 10.3 17.9 10.3C16.9744 10.3 16.1783 9.92563 15.6001 9.33016C15.0218 9.92563 14.2257 10.3 13.3 10.3C12.3744 10.3 11.5783 9.92563 11.0001 9.33016C10.4218 9.92563 9.62574 10.3 8.70005 10.3C7.77435 10.3 6.97827 9.92563 6.40005 9.33016C5.82183 9.92563 5.02574 10.3 4.10005 10.3C4.06653 10.3 4.03318 10.2995 4 10.2985V18H8V14C8 13.4477 8.44772 13 9 13H13C13.5523 13 14 13.4477 14 14V18H18V10.2985ZM8.70005 8.3C8.03246 8.3 7.40005 7.7314 7.40005 6.8C7.40005 6.24772 6.95233 5.8 6.40005 5.8C5.84776 5.8 5.40005 6.24772 5.40005 6.8C5.40005 7.7314 4.76764 8.3 4.10005 8.3C3.44922 8.3 2.83183 7.7596 2.80124 6.86948L3.55684 2H18.3577L19.1986 6.87709C19.1647 7.76268 18.549 8.3 17.9 8.3C17.2325 8.3 16.6 7.7314 16.6 6.8C16.6 6.24772 16.1523 5.8 15.6 5.8C15.0478 5.8 14.6 6.24772 14.6 6.8C14.6 7.7314 13.9676 8.3 13.3 8.3C12.6325 8.3 12 7.7314 12 6.8C12 6.24772 11.5523 5.8 11 5.8C10.4478 5.8 10 6.24772 10 6.8C10 7.7314 9.36764 8.3 8.70005 8.3Z" fill="#00ADE6"/>
</svg>
