<svg width="24" height="24" viewBox="0 0 24 24" xmlns="http://www.w3.org/2000/svg">
<path fill-rule="evenodd" clip-rule="evenodd" d="M21 18C21.5523 18 22 18.4477 22 19V21C22 21.5305 21.7892 22.0392 21.4142 22.4142C21.0392 22.7892 20.5305 23 20 23H18C17.4477 23 17 22.5523 17 22C17 21.4477 17.4477 21 18 21H20V19C20 18.4477 20.4477 18 21 18Z" />
<path fill-rule="evenodd" clip-rule="evenodd" d="M2.5858 1.5858C2.96084 1.21077 3.46951 1 4 1H6C6.55228 1 7 1.44772 7 2C7 2.55228 6.55228 3 6 3H4V5C4 5.55228 3.55228 6 3 6C2.44772 6 2 5.55228 2 5V3C2 2.46951 2.21077 1.96084 2.5858 1.5858Z" />
<path fill-rule="evenodd" clip-rule="evenodd" d="M3 18C3.55228 18 4 18.4477 4 19V21H6C6.55228 21 7 21.4477 7 22C7 22.5523 6.55228 23 6 23H4C3.46951 23 2.96084 22.7892 2.5858 22.4142C2.21077 22.0392 2 21.5305 2 21V19C2 18.4477 2.44772 18 3 18Z" />
<path fill-rule="evenodd" clip-rule="evenodd" d="M17 2C17 1.44772 17.4477 1 18 1H20C20.5305 1 21.0392 1.21077 21.4142 1.5858C21.7892 1.96084 22 2.46951 22 3V5C22 5.55228 21.5523 6 21 6C20.4477 6 20 5.55228 20 5V3H18C17.4477 3 17 2.55228 17 2Z" />
<path fill-rule="evenodd" clip-rule="evenodd" d="M8 7C8.55228 7 9 7.44772 9 8V16C9 16.5523 8.55228 17 8 17C7.44772 17 7 16.5523 7 16V8C7 7.44772 7.44772 7 8 7Z" />
<path fill-rule="evenodd" clip-rule="evenodd" d="M16 7C16.5523 7 17 7.44772 17 8V16C17 16.5523 16.5523 17 16 17C15.4477 17 15 16.5523 15 16V8C15 7.44772 15.4477 7 16 7Z" />
<path fill-rule="evenodd" clip-rule="evenodd" d="M12 7C12.5523 7 13 7.44772 13 8V16C13 16.5523 12.5523 17 12 17C11.4477 17 11 16.5523 11 16V8C11 7.44772 11.4477 7 12 7Z" />
</svg>
