<svg width="24" height="24" viewBox="0 0 24 24" xmlns="http://www.w3.org/2000/svg">
<path fill-rule="evenodd" clip-rule="evenodd" d="M10.7071 10.7071C10.3166 11.0976 9.68342 11.0976 9.29289 10.7071L3 4.41421L3 9C3 9.55229 2.55228 10 2 10C1.44771 10 1 9.55229 1 9L0.999999 2C0.999999 1.44772 1.44771 1 2 1L9 1C9.55228 1 10 1.44771 10 2C10 2.55228 9.55228 3 9 3L4.41421 3L10.7071 9.29289C11.0976 9.68342 11.0976 10.3166 10.7071 10.7071Z"/>
<path fill-rule="evenodd" clip-rule="evenodd" d="M13.2929 13.2929C13.6834 12.9024 14.3166 12.9024 14.7071 13.2929L21 19.5858L21 15C21 14.4477 21.4477 14 22 14C22.5523 14 23 14.4477 23 15L23 22C23 22.5523 22.5523 23 22 23L15 23C14.4477 23 14 22.5523 14 22C14 21.4477 14.4477 21 15 21L19.5858 21L13.2929 14.7071C12.9024 14.3166 12.9024 13.6834 13.2929 13.2929Z"/>
</svg>
