<svg xmlns="http://www.w3.org/2000/svg" width="24" height="24" fill="none" viewBox="0 0 24 24">
  <path fill="#26313A" fill-rule="evenodd" d="M22.424 13.223v.001c.396.464.608 1.052.576 1.665v5.826a2.23 2.23 0 0 1-.651 1.611 2.285 2.285 0 0 1-1.597.674H14.06a2.115 2.115 0 0 1-1.25-.38l-.002-.001-.216-.155c-1.597-1.145-3.553-2.436-5.333-3.297a2.32 2.32 0 0 1-.959-.86c-.227-.37-.307-.583-.3-1.019 0-.302.057-.596.162-.872l.002-.005c.114-.271.284-.524.486-.736l.002-.002a2.37 2.37 0 0 1 .73-.5h.003c.277-.116.57-.173.864-.173H12V9.5c-.054-1.404 1.121-2.492 2.5-2.492 1.53 0 3.076.68 2.985 2.462v2.369l3.384.59a2.3 2.3 0 0 1 1.555.794ZM21 20.5V15c0-.257 0-.5-.32-.565l-4.837-.72a.397.397 0 0 1-.343-.387V9.435a.563.563 0 0 0-.092-.326c-.181-.254-1.19-.262-1.368.054l-.005.007a.364.364 0 0 0-.052.245l.002.01v3.258l-.008.288v.771a1.65 1.65 0 0 0 .006.238l.002.01v1.17c0 .5-.199.976-.546 1.326-.347.35-.82.551-1.317.551H8.25c-.126 0-.236.09-.249.251a.275.275 0 0 0 .114.215c.773.253 1.523.85 2.244 1.225l.008.005c.673.404 3.204 1.918 3.542 2.168.055.026.103.099.151.099h6.44c.252 0 .5-.343.5-.5ZM5 2a1 1 0 0 1 1-1h4a1 1 0 0 1 1 1v4a1 1 0 1 1-2 0V4.414L4.414 9H6a1 1 0 0 1 0 2H2a1 1 0 0 1-1-1V6a1 1 0 0 1 2 0v1.586L7.586 3H6a1 1 0 0 1-1-1Z" clip-rule="evenodd"/>
</svg>
