<svg width="16" height="16" viewBox="0 0 16 16" xmlns="http://www.w3.org/2000/svg">
<path d="M7.99983 0C4.68579 0 1.99805 2.79471 1.99805 6.1583L1.99816 6.17075C2.01714 7.1867 2.40872 8.30016 2.92752 9.35525C3.45247 10.4228 4.13941 11.4933 4.81392 12.4389C5.48992 13.3866 6.16244 14.2214 6.66535 14.8188C6.9171 15.1178 7.12708 15.3583 7.2747 15.5245C7.34853 15.6077 7.40681 15.6724 7.44697 15.7166C7.46705 15.7387 7.48261 15.7558 7.49332 15.7674L7.50572 15.7809L7.50912 15.7846L7.5101 15.7857C7.5101 15.7857 7.51061 15.7862 7.99983 15.3333L7.51061 15.7862C7.63676 15.9225 7.81404 16 7.99973 16C8.18543 16 8.36273 15.9226 8.48892 15.7864L7.99983 15.3333C8.48892 15.7864 8.48892 15.7864 8.48892 15.7864L8.48943 15.7858L8.49042 15.7847L8.49385 15.781L8.50637 15.7674C8.5172 15.7556 8.53293 15.7384 8.55323 15.7161C8.59384 15.6714 8.65278 15.606 8.72741 15.522C8.87666 15.3541 9.0889 15.1114 9.34317 14.8097C9.8511 14.2072 10.5297 13.3661 11.2098 12.4142C11.8884 11.4645 12.5777 10.3915 13.0999 9.32628C13.6153 8.27498 14.0016 7.16464 14.0016 6.1583C14.0016 2.79471 11.3139 0 7.99983 0ZM7.99989 3.75059C9.28445 3.75059 10.2931 4.81698 10.2931 6.09155C10.2931 7.36612 9.28445 8.43251 7.99989 8.43251C6.71533 8.43251 5.70665 7.36612 5.70665 6.09155C5.70665 4.81698 6.71533 3.75059 7.99989 3.75059Z" />
</svg>
