<svg width="24" height="24" viewBox="0 0 24 24" xmlns="http://www.w3.org/2000/svg">
<path d="M12 0.000244141C7.02909 0.000244141 2.99759 4.19219 2.99759 9.23743L2.99776 9.25611C3.02623 10.78 3.61358 12.4501 4.39175 14.0327C5.17916 15.6341 6.20954 17.2397 7.22128 18.658C8.23525 20.0795 9.244 21.3318 9.99834 22.2278C10.376 22.6764 10.6909 23.037 10.9123 23.2864C11.0231 23.4111 11.1105 23.5081 11.1707 23.5745C11.2009 23.6077 11.2242 23.6332 11.2403 23.6507L11.2589 23.671L11.264 23.6765L11.2654 23.6781L11.2659 23.6786C11.2661 23.6788 11.2662 23.6789 12 22.9995L11.2662 23.6789C11.4554 23.8833 11.7213 23.9995 11.9999 23.9995C12.2784 23.9996 12.5443 23.8835 12.7336 23.6791L12 22.9995C12.7336 23.6791 12.7338 23.679 12.7339 23.6788L12.7344 23.6783L12.7359 23.6767L12.741 23.6711L12.7598 23.6507C12.776 23.633 12.7996 23.6072 12.8301 23.5737C12.891 23.5066 12.9794 23.4086 13.0913 23.2826C13.3152 23.0307 13.6336 22.6666 14.015 22.2142C14.7768 21.3104 15.7947 20.0488 16.8149 18.621C17.8326 17.1965 18.8666 15.5871 19.6499 13.9893C20.423 12.4124 21.0024 10.7469 21.0024 9.23743C21.0024 4.19219 16.9709 0.000244141 12 0.000244141ZM12.4858 20.9251C12.3086 21.1354 12.1456 21.3256 12.0005 21.4932C11.8589 21.3295 11.7005 21.1442 11.5284 20.9398C10.7975 20.0716 9.82394 18.8627 8.8495 17.4966C7.87284 16.1274 6.90872 14.619 6.18652 13.1502C5.45714 11.6668 5.02019 10.3143 4.9976 9.22789C5.00267 5.2367 8.19081 2.00024 12 2.00024C15.8122 2.00024 19.0024 5.24185 19.0024 9.23743C19.0024 10.2895 18.5815 11.6251 17.8541 13.1089C17.137 14.5718 16.1704 16.0827 15.1875 17.4583C14.2071 18.8307 13.2244 20.049 12.4858 20.9251ZM10.5603 9.1373C10.5603 8.27516 11.232 7.62597 12.0001 7.62597C12.7682 7.62597 13.4399 8.27516 13.4399 9.1373C13.4399 9.99945 12.7682 10.6486 12.0001 10.6486C11.232 10.6486 10.5603 9.99945 10.5603 9.1373ZM12.0001 5.62597C10.0733 5.62597 8.56033 7.2255 8.56033 9.1373C8.56033 11.0491 10.0733 12.6486 12.0001 12.6486C13.9269 12.6486 15.4399 11.0491 15.4399 9.1373C15.4399 7.2255 13.9269 5.62597 12.0001 5.62597Z"/>
</svg>
