<svg width="24" height="24" viewBox="0 0 24 24" xmlns="http://www.w3.org/2000/svg">
<path d="M4.5 2.2C4.5 1.53726 5.03726 1 5.7 1H8.3C8.96274 1 9.5 1.53726 9.5 2.2V6.16667L10.4 7.36667C10.7895 7.88596 11 8.51756 11 9.16667V16C11 16.8284 10.3284 17.5 9.5 17.5H4.5C3.67157 17.5 3 16.8284 3 16V9.16667C3 8.51756 3.21053 7.88596 3.6 7.36667L4.5 6.16667V2.2ZM6.5 3V6.33333C6.5 6.65789 6.39473 6.97369 6.2 7.23333L5.2 8.56667C5.07018 8.73976 5 8.9503 5 9.16667V15.5H9V9.16667C9 8.9503 8.92982 8.73976 8.8 8.56667L7.8 7.23333C7.60527 6.97369 7.5 6.65789 7.5 6.33333V3H6.5Z" />
<path d="M1 19C1 18.4477 1.44772 18 2 18H22C22.5523 18 23 18.4477 23 19C23 19.5523 22.5523 20 22 20H20V22C20 22.5523 19.5523 23 19 23C18.4477 23 18 22.5523 18 22V20H6V22C6 22.5523 5.55228 23 5 23C4.44772 23 4 22.5523 4 22V20H2C1.44772 20 1 19.5523 1 19Z" />
<path d="M13.3667 8.64016C12.824 7.98883 13.2871 7 14.135 7H19.8649C20.7127 7 21.1759 7.98888 20.6331 8.64021L20.0263 9.36835L20.4 9.86667C20.7895 10.386 21 11.0176 21 11.6667V16C21 16.8284 20.3284 17.5 19.5 17.5H14.5C13.6716 17.5 13 16.8284 13 16V11.6667C13 11.0176 13.2105 10.386 13.6 9.86667L13.9736 9.36849L13.3667 8.64016ZM15.2 11.0667C15.0702 11.2398 15 11.4503 15 11.6667V15.5H19V11.6667C19 11.4503 18.9298 11.2398 18.8 11.0667L18 10V9H16L16 10L15.2 11.0667Z" />
</svg>
