<svg width="48" height="48" viewBox="0 0 48 48" fill="none" xmlns="http://www.w3.org/2000/svg">
<path d="M0 8C0 3.58172 3.58172 0 8 0H40C44.4183 0 48 3.58172 48 8V40C48 44.4183 44.4183 48 40 48H8C3.58172 48 0 44.4183 0 40V8Z" fill="url(#paint0_linear_2550_462)"/>
<path d="M25.7867 34.4808C25.8442 34.7303 26.2566 34.908 26.5176 34.908C26.7787 34.908 27.1493 34.7303 27.2068 34.4808C28.4614 29.0221 29.1763 28.3363 34.7297 27.103C34.9841 27.046 35.1643 26.6646 35.1643 26.408C35.1643 26.1513 34.9835 25.7706 34.7297 25.7136C29.1511 24.3426 28.5299 23.7943 27.2758 18.3352C27.2184 18.0856 26.7787 17.908 26.5176 17.908C26.2566 17.908 25.826 18.0856 25.7686 18.3352C24.514 23.7943 24.1529 24.4808 18.5995 25.7136C18.3452 25.7706 18.1644 26.1513 18.1644 26.408C18.1644 26.6646 18.3452 27.0006 18.5995 27.0576C24.1529 28.2909 24.5321 29.0221 25.7867 34.4808ZM26.5176 22.112C27.0924 24.5856 28.4138 25.7136 31.1837 26.408C28.5242 26.9316 27.0924 28.3392 26.5176 30.795C25.9732 28.5506 24.8852 26.9432 21.8423 26.408C24.5226 25.9932 26.1378 24.5856 26.5176 22.112Z" fill="white"/>
<path d="M21.4458 17.1032C18.7952 16.5047 18.4231 16.1325 17.8245 13.4825C17.7724 13.2541 17.5701 13.0923 17.3357 13.0923C17.1013 13.0923 16.8989 13.2541 16.8468 13.4825C16.2483 16.1325 15.8762 16.5047 13.2261 17.1032C12.9977 17.1553 12.8359 17.3576 12.8359 17.592C12.8359 17.8264 12.9977 18.0288 13.2261 18.0809C15.8762 18.6794 16.2483 19.0515 16.8468 21.7021C16.8989 21.93 17.1013 22.0923 17.3357 22.0923C17.5701 22.0923 17.7724 21.93 17.8245 21.7021C18.4231 19.0515 18.7952 18.6794 21.4458 18.0809C21.6737 18.0288 21.8359 17.8264 21.8359 17.592C21.8359 17.3576 21.6737 17.1553 21.4458 17.1032ZM17.3357 19.3532C16.8999 18.2127 16.704 18.0278 15.563 17.592C16.704 17.1563 16.8999 17.155 17.3357 16.014C17.7714 17.155 17.9792 17.1563 19.1197 17.592C17.9792 18.0278 17.7714 18.2127 17.3357 19.3532Z" fill="white"/>
<defs>
<linearGradient id="paint0_linear_2550_462" x1="9.5" y1="5.5" x2="58" y2="70" gradientUnits="userSpaceOnUse">
<stop stop-color="#3CC0EB"/>
<stop offset="1" stop-color="#206BBB"/>
</linearGradient>
</defs>
</svg>
