<svg width="24" height="24" viewBox="0 0 24 24" fill="none" xmlns="http://www.w3.org/2000/svg">
<path d="M13.7372 22.4478C13.7947 22.6973 14.207 22.875 14.4681 22.875C14.7292 22.875 15.0998 22.6973 15.1573 22.4478C16.4119 16.9892 17.1268 16.3034 22.6802 15.0701C22.9346 15.013 23.1147 14.6316 23.1147 14.375C23.1147 14.1184 22.934 13.7377 22.6802 13.6806C17.1016 12.3096 16.4803 11.7614 15.2263 6.30219C15.1688 6.05268 14.7292 5.875 14.4681 5.875C14.207 5.875 13.7765 6.05268 13.7191 6.30219C12.4645 11.7614 12.1034 12.4479 6.55003 13.6806C6.29565 13.7377 6.11491 14.1184 6.11491 14.375C6.11491 14.6316 6.29565 14.9676 6.55003 15.0247C12.1034 16.258 12.4826 16.9892 13.7372 22.4478Z" fill="url(#paint0_linear_1476_201758)"/>
<path d="M9.49655 5.13591C6.84598 4.53738 6.47384 4.16524 5.87531 1.51517C5.82322 1.28678 5.62087 1.125 5.38647 1.125C5.15206 1.125 4.94972 1.28678 4.89763 1.51517C4.2991 4.16524 3.92695 4.53738 1.27689 5.13591C1.0485 5.188 0.886719 5.39035 0.886719 5.62475C0.886719 5.85915 1.0485 6.0615 1.27689 6.11359C3.92695 6.71212 4.2991 7.08426 4.89763 9.73483C4.94972 9.96272 5.15206 10.125 5.38647 10.125C5.62087 10.125 5.82322 9.96272 5.87531 9.73483C6.47384 7.08426 6.84598 6.71212 9.49655 6.11359C9.72444 6.0615 9.88672 5.85915 9.88672 5.62475C9.88672 5.39035 9.72444 5.188 9.49655 5.13591Z" fill="url(#paint1_linear_1476_201758)"/>
<defs>
<linearGradient id="paint0_linear_1476_201758" x1="23.1147" y1="1.125" x2="1.36988" y2="23.3478" gradientUnits="userSpaceOnUse">
<stop offset="0.335" stop-color="#3CC0EB"/>
<stop offset="1" stop-color="#206BBB"/>
</linearGradient>
<linearGradient id="paint1_linear_1476_201758" x1="23.1147" y1="1.125" x2="1.36988" y2="23.3478" gradientUnits="userSpaceOnUse">
<stop offset="0.335" stop-color="#3CC0EB"/>
<stop offset="1" stop-color="#206BBB"/>
</linearGradient>
</defs>
</svg>
