<svg width="343" height="301" viewBox="0 0 343 301" fill="none" xmlns="http://www.w3.org/2000/svg">
<path d="M0 2.00001C0 0.895439 0.895431 0 2 0H341C342.105 0 343 0.895431 343 2V299C343 300.105 342.105 301 341 301H1.99999C0.895424 301 0 300.105 0 299V2.00001Z" fill="white"/>
<rect x="125" y="30.0898" width="23" height="4.94236" rx="0.5" fill="#E6E9ED" stroke="#26313A" stroke-width="0.3"/>
<rect x="118" y="80.5" width="36" height="2.96542" rx="0.5" fill="#E6E9ED" stroke="#26313A" stroke-width="0.3"/>
<rect width="3" height="6.91931" rx="0.5" transform="matrix(-1 0 0 1 118 80.5)" fill="#FF9434" stroke="#26313A" stroke-width="0.3"/>
<rect width="5.93411" height="8.6174" rx="0.5" transform="matrix(0.00338724 0.999994 0.999995 -0.0033096 99 100.305)" fill="#E6E9ED" stroke="#26313A" stroke-width="0.3"/>
<rect width="5.93411" height="8.6174" rx="0.5" transform="matrix(0.00338724 0.999994 0.999995 -0.0033096 99 106.234)" fill="#E6E9ED" stroke="#26313A" stroke-width="0.3"/>
<rect width="3" height="6.91931" rx="0.5" transform="matrix(-1 0 0 1 118 95.3281)" fill="#FF9434" stroke="#26313A" stroke-width="0.3"/>
<rect width="3" height="6.91931" rx="0.5" transform="matrix(-1 0 0 1 118 110.156)" fill="#FF9434" stroke="#26313A" stroke-width="0.3"/>
<rect width="3" height="6.91931" rx="0.5" transform="matrix(-1 0 0 1 118 124.984)" fill="#FF9434" stroke="#26313A" stroke-width="0.3"/>
<rect width="5" height="6.91931" rx="0.5" transform="matrix(-1 0 0 1 104 126.961)" fill="#E6E9ED" stroke="#26313A" stroke-width="0.3"/>
<rect width="6" height="6.91931" rx="0.5" transform="matrix(-1 0 0 1 104 224.82)" fill="#E6E9ED" stroke="#26313A" stroke-width="0.3"/>
<rect width="6" height="6.91931" rx="0.5" transform="matrix(-1 0 0 1 108 226.797)" fill="#E6E9ED" stroke="#26313A" stroke-width="0.3"/>
<rect width="9" height="4.94236" rx="0.5" transform="matrix(-1 0 0 1 108 231.738)" fill="#E6E9ED" stroke="#26313A" stroke-width="0.3"/>
<rect width="5" height="20.7579" rx="0.5" transform="matrix(-1 0 0 1 104 133.879)" fill="#E6E9ED" stroke="#26313A" stroke-width="0.3"/>
<rect width="8" height="23.7233" rx="0.5" transform="matrix(-1 0 0 1 104 154.637)" fill="#E6E9ED" stroke="#26313A" stroke-width="0.3"/>
<rect width="6" height="13.8386" rx="0.5" transform="matrix(-1 0 0 1 123 155.625)" fill="#E6E9ED" stroke="#26313A" stroke-width="0.3"/>
<rect x="123" y="155.625" width="2" height="13.8386" rx="0.5" fill="#E6E9ED" stroke="#26313A" stroke-width="0.3"/>
<rect width="3" height="13.8386" rx="0.5" transform="matrix(-1 0 0 1 128 155.625)" fill="#E6E9ED" stroke="#26313A" stroke-width="0.3"/>
<rect width="10" height="4.94236" rx="0.5" transform="matrix(-1 0 0 1 128 171.441)" fill="#E6E9ED" stroke="#26313A" stroke-width="0.3"/>
<rect x="128" y="171.441" width="10" height="0.988473" rx="0.494236" transform="rotate(180 128 171.441)" fill="#E6E9ED" stroke="#26313A" stroke-width="0.3"/>
<rect width="3" height="4.94236" rx="0.5" transform="matrix(-1 0 0 1 133 182.312)" fill="#E6E9ED" stroke="#26313A" stroke-width="0.3"/>
<rect width="3" height="6.91931" rx="0.5" transform="matrix(-1 0 0 1 197 110.156)" fill="#FF9434" stroke="#26313A" stroke-width="0.3"/>
<rect width="3" height="6.91931" rx="0.5" transform="matrix(-1 0 0 1 197 124.984)" fill="#FF9434" stroke="#26313A" stroke-width="0.3"/>
<rect width="3" height="6.91931" rx="0.5" transform="matrix(-1 0 0 1 197 139.812)" fill="#FF9434" stroke="#26313A" stroke-width="0.3"/>
<rect width="3" height="6.91931" rx="0.5" transform="matrix(-1 0 0 1 150 154.637)" fill="#FF9434" stroke="#26313A" stroke-width="0.3"/>
<rect width="3" height="6.91931" rx="0.5" transform="matrix(-1 0 0 1 197 154.637)" fill="#FF9434" stroke="#26313A" stroke-width="0.3"/>
<rect x="154" y="80.5" width="24" height="2.96542" rx="0.5" fill="#FFDAE7" stroke="black" stroke-width="0.3"/>
<rect x="158.199" y="80.6016" width="5" height="2.76772" rx="0.5" fill="#F91077" stroke="black" stroke-width="0.5"/>
<rect x="178" y="80.5" width="16" height="2.96542" rx="0.5" fill="#E6E9ED" stroke="#26313A" stroke-width="0.3"/>
<rect x="118" y="95.3281" width="47" height="2.96542" rx="0.5" fill="#E6E9ED" stroke="#26313A" stroke-width="0.3"/>
<rect x="165" y="95.3281" width="29" height="2.96542" rx="0.5" fill="#E6E9ED" stroke="#26313A" stroke-width="0.3"/>
<rect x="118" y="110.156" width="23" height="2.96542" rx="0.5" fill="#E6E9ED" stroke="#26313A" stroke-width="0.3"/>
<rect x="141" y="110.156" width="53" height="2.96542" rx="0.5" fill="#E6E9ED" stroke="#26313A" stroke-width="0.3"/>
<rect x="118" y="124.984" width="12" height="2.96542" rx="0.5" fill="#E6E9ED" stroke="#26313A" stroke-width="0.3"/>
<rect x="130" y="124.984" width="29" height="2.96542" rx="0.5" fill="#E6E9ED" stroke="#26313A" stroke-width="0.3"/>
<rect x="159" y="124.984" width="10" height="2.96542" rx="0.5" fill="#E6E9ED" stroke="#26313A" stroke-width="0.3"/>
<rect x="169" y="124.984" width="25" height="2.96542" rx="0.5" fill="#E6E9ED" stroke="#26313A" stroke-width="0.3"/>
<rect x="121" y="60.7344" width="13.8386" height="3" rx="0.5" transform="rotate(-90 121 60.7344)" fill="#E6E9ED" stroke="#26313A" stroke-width="0.3"/>
<rect x="121" y="64.6875" width="3.95389" height="3" rx="0.5" transform="rotate(-90 121 64.6875)" fill="#E6E9ED" stroke="#26313A" stroke-width="0.3"/>
<rect x="121" y="65.6719" width="0.988473" height="3" rx="0.494236" transform="rotate(-90 121 65.6719)" fill="#E6E9ED" stroke="#26313A" stroke-width="0.3"/>
<rect x="124" y="65.6719" width="0.988473" height="4" rx="0.494236" transform="rotate(-90 124 65.6719)" fill="#E6E9ED" stroke="#26313A" stroke-width="0.3"/>
<rect x="124" y="64.6875" width="17.7925" height="4" rx="0.5" transform="rotate(-90 124 64.6875)" fill="#E6E9ED" stroke="#26313A" stroke-width="0.3"/>
<rect x="139" y="64.6875" width="17.7925" height="4" rx="0.5" transform="rotate(-90 139 64.6875)" fill="#E6E9ED" stroke="#26313A" stroke-width="0.3"/>
<rect x="139" y="65.6719" width="0.988473" height="4" rx="0.494236" transform="rotate(-90 139 65.6719)" fill="#E6E9ED" stroke="#26313A" stroke-width="0.3"/>
<rect x="143" y="65.6719" width="0.988473" height="5" rx="0.494236" transform="rotate(-90 143 65.6719)" fill="#E6E9ED" stroke="#26313A" stroke-width="0.3"/>
<rect x="143" y="64.6875" width="17.7925" height="5" rx="0.5" transform="rotate(-90 143 64.6875)" fill="#E6E9ED" stroke="#26313A" stroke-width="0.3"/>
<rect x="159" y="65.6719" width="0.988473" height="4" rx="0.494236" transform="rotate(-90 159 65.6719)" fill="#E6E9ED" stroke="#26313A" stroke-width="0.3"/>
<rect x="179" y="65.6719" width="3.95389" height="6" rx="0.5" transform="rotate(-90 179 65.6719)" fill="#E6E9ED" stroke="#26313A" stroke-width="0.3"/>
<rect width="0.988473" height="6" rx="0.494236" transform="matrix(-9.65116e-09 1 1 1.47343e-08 179 65.6719)" fill="#E6E9ED" stroke="#26313A" stroke-width="0.3"/>
<rect x="159" y="64.6875" width="17.7925" height="4" rx="0.5" transform="rotate(-90 159 64.6875)" fill="#E6E9ED" stroke="#26313A" stroke-width="0.3"/>
<rect x="179" y="61.7188" width="26.6888" height="4" rx="0.5" transform="rotate(-90 179 61.7188)" fill="#E6E9ED" stroke="#26313A" stroke-width="0.3"/>
<rect x="196" y="52.8242" width="10.8732" height="4" rx="0.5" transform="rotate(-90 196 52.8242)" fill="#E6E9ED" stroke="#26313A" stroke-width="0.3"/>
<rect x="212" y="47.8828" width="5.93084" height="6" rx="0.5" transform="rotate(-90 212 47.8828)" fill="#E6E9ED" stroke="#26313A" stroke-width="0.3"/>
<rect width="5.93084" height="1" rx="0.5" transform="matrix(9.65116e-09 -1 -1 -1.47343e-08 212 47.8828)" fill="#E6E9ED" stroke="#26313A" stroke-width="0.3"/>
<rect width="0.988472" height="6" rx="0.494236" transform="matrix(-9.65116e-09 1 1 1.47343e-08 211 47.8828)" fill="#E6E9ED" stroke="#26313A" stroke-width="0.3"/>
<rect x="197" y="53.8125" width="1.97695" height="6" rx="0.5" transform="rotate(-90 197 53.8125)" fill="#E6E9ED" stroke="#26313A" stroke-width="0.3"/>
<rect x="197" y="54.8008" width="0.988473" height="6" rx="0.494236" transform="rotate(-90 197 54.8008)" fill="#E6E9ED" stroke="#26313A" stroke-width="0.3"/>
<rect x="200" y="51.8359" width="9.88473" height="3" rx="0.5" transform="rotate(-90 200 51.8359)" fill="#E6E9ED" stroke="#26313A" stroke-width="0.3"/>
<rect width="27.6772" height="1" rx="0.5" transform="matrix(9.65116e-09 -1 -1 -1.47343e-08 179 62.7109)" fill="#E6E9ED" stroke="#26313A" stroke-width="0.3"/>
<rect x="183" y="56.7773" width="21.7464" height="2" rx="0.5" transform="rotate(-90 183 56.7773)" fill="#E6E9ED" stroke="#26313A" stroke-width="0.3"/>
<rect x="183" y="61.7188" width="4.94236" height="2" rx="0.5" transform="rotate(-90 183 61.7188)" fill="#E6E9ED" stroke="#26313A" stroke-width="0.3"/>
<rect x="230" y="65.6719" width="3.95389" height="7" rx="0.5" transform="rotate(-90 230 65.6719)" fill="#E6E9ED" stroke="#26313A" stroke-width="0.3"/>
<rect x="230" y="61.7188" width="27.6772" height="4" rx="0.5" transform="rotate(-90 230 61.7188)" fill="#E6E9ED" stroke="#26313A" stroke-width="0.3"/>
<rect width="28.6657" height="1" rx="0.5" transform="matrix(9.65116e-09 -1 -1 -1.47343e-08 230 62.7109)" fill="#E6E9ED" stroke="#26313A" stroke-width="0.3"/>
<rect x="234" y="56.7773" width="20.7579" height="3" rx="0.5" transform="rotate(-90 234 56.7773)" fill="#E6E9ED" stroke="#26313A" stroke-width="0.3"/>
<rect x="234" y="61.7188" width="4.94236" height="3" rx="0.5" transform="rotate(-90 234 61.7188)" fill="#E6E9ED" stroke="#26313A" stroke-width="0.3"/>
<rect x="163" y="65.6719" width="0.988473" height="3" rx="0.494236" transform="rotate(-90 163 65.6719)" fill="#E6E9ED" stroke="#26313A" stroke-width="0.3"/>
<rect x="163" y="64.6875" width="8.89625" height="3" rx="0.5" transform="rotate(-90 163 64.6875)" fill="#E6E9ED" stroke="#26313A" stroke-width="0.3"/>
<rect x="163" y="55.7891" width="8.89625" height="3" rx="0.5" transform="rotate(-90 163 55.7891)" fill="#E6E9ED" stroke="#26313A" stroke-width="0.3"/>
<rect x="128" y="65.6719" width="18.781" height="1" rx="0.5" transform="rotate(-90 128 65.6719)" fill="#E6E9ED" stroke="#26313A" stroke-width="0.3"/>
<rect x="125" y="35.0312" width="23" height="0.988473" rx="0.494236" fill="#E6E9ED" stroke="#26313A" stroke-width="0.3"/>
<rect x="148" y="35.0312" width="13" height="0.988473" rx="0.494236" fill="#E6E9ED" stroke="#26313A" stroke-width="0.3"/>
<rect x="161" y="35.0312" width="18" height="0.988473" rx="0.494236" fill="#E6E9ED" stroke="#26313A" stroke-width="0.3"/>
<rect x="148" y="30.0898" width="13" height="4.94236" rx="0.5" fill="#E6E9ED" stroke="#26313A" stroke-width="0.3"/>
<rect x="161" y="30.0898" width="18" height="4.94236" rx="0.5" fill="#E6E9ED" stroke="#26313A" stroke-width="0.3"/>
<rect x="118" y="83.4688" width="32" height="2.96542" rx="0.5" fill="#E6E9ED" stroke="#26313A" stroke-width="0.3"/>
<rect x="118" y="86.4297" width="32" height="0.988473" rx="0.494236" fill="#E6E9ED" stroke="#26313A" stroke-width="0.3"/>
<rect x="150" y="86.4297" width="19" height="0.988473" rx="0.494236" fill="#E6E9ED" stroke="#26313A" stroke-width="0.3"/>
<rect x="169" y="86.4297" width="25" height="0.988473" rx="0.494236" fill="#E6E9ED" stroke="#26313A" stroke-width="0.3"/>
<rect x="150" y="83.4688" width="19" height="2.96542" rx="0.5" fill="#E6E9ED" stroke="#26313A" stroke-width="0.3"/>
<rect x="169" y="83.4688" width="25" height="2.96542" rx="0.5" fill="#E6E9ED" stroke="#26313A" stroke-width="0.3"/>
<rect x="118" y="98.293" width="25" height="2.96542" rx="0.5" fill="#E6E9ED" stroke="#26313A" stroke-width="0.3"/>
<rect x="118" y="101.258" width="25" height="0.988473" rx="0.494236" fill="#E6E9ED" stroke="#26313A" stroke-width="0.3"/>
<rect x="143" y="101.258" width="26" height="0.988473" rx="0.494236" fill="#E6E9ED" stroke="#26313A" stroke-width="0.3"/>
<rect x="169" y="101.258" width="25" height="0.988473" rx="0.494236" fill="#E6E9ED" stroke="#26313A" stroke-width="0.3"/>
<rect x="143" y="98.293" width="26" height="2.96542" rx="0.5" fill="#E6E9ED" stroke="#26313A" stroke-width="0.3"/>
<rect x="169" y="98.293" width="25" height="2.96542" rx="0.5" fill="#E6E9ED" stroke="#26313A" stroke-width="0.3"/>
<rect width="3" height="6.91931" rx="0.5" transform="matrix(-1 0 0 1 219 95.3281)" fill="#FF9434" stroke="#26313A" stroke-width="0.3"/>
<rect x="219" y="95.3281" width="32" height="2.96542" rx="0.5" fill="#E6E9ED" stroke="#26313A" stroke-width="0.3"/>
<rect x="251" y="95.3281" width="19" height="2.96542" rx="0.5" fill="#E6E9ED" stroke="#26313A" stroke-width="0.3"/>
<rect x="219" y="98.293" width="16" height="2.96542" rx="0.5" fill="#E6E9ED" stroke="#26313A" stroke-width="0.3"/>
<rect x="219" y="101.258" width="16" height="0.988473" rx="0.494236" fill="#E6E9ED" stroke="#26313A" stroke-width="0.3"/>
<rect x="235" y="101.258" width="19" height="0.988473" rx="0.494236" fill="#E6E9ED" stroke="#26313A" stroke-width="0.3"/>
<rect x="254" y="101.258" width="16" height="0.988473" rx="0.494236" fill="#E6E9ED" stroke="#26313A" stroke-width="0.3"/>
<rect x="235" y="98.293" width="19" height="2.96542" rx="0.5" fill="#E6E9ED" stroke="#26313A" stroke-width="0.3"/>
<rect width="3" height="6.91931" rx="0.5" transform="matrix(-1 0 0 1 220 155.625)" fill="#FF9434" stroke="#26313A" stroke-width="0.3"/>
<rect x="220" y="155.625" width="50" height="2.96542" rx="0.5" fill="#E6E9ED" stroke="#26313A" stroke-width="0.3"/>
<rect x="220" y="158.59" width="16" height="2.96542" rx="0.5" fill="#E6E9ED" stroke="#26313A" stroke-width="0.3"/>
<rect x="236" y="158.59" width="34" height="2.96542" rx="0.5" fill="#E6E9ED" stroke="#26313A" stroke-width="0.3"/>
<rect x="254" y="98.293" width="16" height="2.96542" rx="0.5" fill="#E6E9ED" stroke="#26313A" stroke-width="0.3"/>
<rect width="3" height="6.91931" rx="0.5" transform="matrix(-1 0 0 1 273 80.5)" fill="#FF9434" stroke="#26313A" stroke-width="0.3"/>
<rect x="219" y="80.5" width="32" height="2.96542" rx="0.5" fill="#E6E9ED" stroke="#26313A" stroke-width="0.3"/>
<rect x="251" y="80.5" width="19" height="2.96542" rx="0.5" fill="#E6E9ED" stroke="#26313A" stroke-width="0.3"/>
<rect x="219" y="83.4688" width="16" height="2.96542" rx="0.5" fill="#E6E9ED" stroke="#26313A" stroke-width="0.3"/>
<rect x="219" y="86.4297" width="16" height="0.988473" rx="0.494236" fill="#E6E9ED" stroke="#26313A" stroke-width="0.3"/>
<rect x="235" y="86.4297" width="19" height="0.988473" rx="0.494236" fill="#E6E9ED" stroke="#26313A" stroke-width="0.3"/>
<rect x="254" y="86.4297" width="16" height="0.988473" rx="0.494236" fill="#E6E9ED" stroke="#26313A" stroke-width="0.3"/>
<rect x="235" y="83.4688" width="19" height="2.96542" rx="0.5" fill="#E6E9ED" stroke="#26313A" stroke-width="0.3"/>
<rect x="254" y="83.4688" width="16" height="2.96542" rx="0.5" fill="#E6E9ED" stroke="#26313A" stroke-width="0.3"/>
<rect x="284" y="75.5586" width="10" height="0.988473" rx="0.494236" fill="#1E8542" stroke="#26313A" stroke-width="0.3"/>
<rect x="284" y="73.582" width="10" height="1.97695" rx="0.5" fill="#1E8542" stroke="#26313A" stroke-width="0.3"/>
<rect x="284" y="91.375" width="10" height="0.988473" rx="0.494236" fill="#1E8542" stroke="#26313A" stroke-width="0.3"/>
<rect x="284" y="88.4102" width="10" height="2.96542" rx="0.5" fill="#1E8542" stroke="#26313A" stroke-width="0.3"/>
<rect x="284" y="111.145" width="10" height="0.988473" rx="0.494236" fill="#1E8542" stroke="#26313A" stroke-width="0.3"/>
<rect x="284" y="108.18" width="10" height="2.96542" rx="0.5" fill="#1E8542" stroke="#26313A" stroke-width="0.3"/>
<rect x="280" y="113.121" width="4" height="0.988473" rx="0.494236" fill="#1E8542" stroke="#26313A" stroke-width="0.3"/>
<rect x="280" y="111.145" width="4" height="1.97695" rx="0.5" fill="#1E8542" stroke="#26313A" stroke-width="0.3"/>
<rect x="280" y="93.3516" width="4" height="0.988473" rx="0.494236" fill="#1E8542" stroke="#26313A" stroke-width="0.3"/>
<rect x="280" y="91.375" width="4" height="1.97695" rx="0.5" fill="#1E8542" stroke="#26313A" stroke-width="0.3"/>
<rect x="280" y="77.5352" width="4" height="0.988473" rx="0.494236" fill="#1E8542" stroke="#26313A" stroke-width="0.3"/>
<rect x="280" y="75.5586" width="4" height="1.97695" rx="0.5" fill="#1E8542" stroke="#26313A" stroke-width="0.3"/>
<rect x="297" y="130.914" width="5" height="0.988473" rx="0.494236" fill="#1E8542" stroke="#26313A" stroke-width="0.3"/>
<rect x="297" y="127.945" width="5" height="2.96542" rx="0.5" fill="#1E8542" stroke="#26313A" stroke-width="0.3"/>
<rect x="289" y="130.914" width="4" height="0.988473" rx="0.494236" fill="#1E8542" stroke="#26313A" stroke-width="0.3"/>
<rect x="289" y="128.938" width="4" height="1.97695" rx="0.5" fill="#1E8542" stroke="#26313A" stroke-width="0.3"/>
<rect x="281" y="141.789" width="4" height="0.988473" rx="0.494236" fill="#1E8542" stroke="#26313A" stroke-width="0.3"/>
<rect x="281" y="139.812" width="4" height="1.97695" rx="0.5" fill="#1E8542" stroke="#26313A" stroke-width="0.3"/>
<rect x="289" y="169.465" width="6.91931" height="1" rx="0.5" transform="rotate(-90 289 169.465)" fill="#1E8542" stroke="#26313A" stroke-width="0.3"/>
<rect x="287" y="169.465" width="6.91931" height="2" rx="0.5" transform="rotate(-90 287 169.465)" fill="#1E8542" stroke="#26313A" stroke-width="0.3"/>
<rect x="301" y="168.477" width="4.94236" height="1" rx="0.5" transform="rotate(-90 301 168.477)" fill="#1E8542" stroke="#26313A" stroke-width="0.3"/>
<rect x="297" y="168.477" width="4.94236" height="4" rx="0.5" transform="rotate(-90 297 168.477)" fill="#1E8542" stroke="#26313A" stroke-width="0.3"/>
<rect x="313" y="176.383" width="4.94236" height="1" rx="0.5" transform="rotate(-90 313 176.383)" fill="#1E8542" stroke="#26313A" stroke-width="0.3"/>
<rect x="309" y="176.383" width="4.94236" height="4" rx="0.5" transform="rotate(-90 309 176.383)" fill="#1E8542" stroke="#26313A" stroke-width="0.3"/>
<rect x="284" y="125.969" width="10" height="1.97695" rx="0.5" fill="#1E8542" stroke="#26313A" stroke-width="0.3"/>
<rect x="118" y="113.121" width="32" height="2.96542" rx="0.5" fill="#E6E9ED" stroke="#26313A" stroke-width="0.3"/>
<rect x="118" y="116.086" width="32" height="0.988473" rx="0.494236" fill="#E6E9ED" stroke="#26313A" stroke-width="0.3"/>
<rect x="150" y="116.086" width="19" height="0.988473" rx="0.494236" fill="#E6E9ED" stroke="#26313A" stroke-width="0.3"/>
<rect x="169" y="116.086" width="25" height="0.988473" rx="0.494236" fill="#E6E9ED" stroke="#26313A" stroke-width="0.3"/>
<rect x="150" y="113.121" width="19" height="2.96542" rx="0.5" fill="#E6E9ED" stroke="#26313A" stroke-width="0.3"/>
<rect x="169" y="113.121" width="25" height="2.96542" rx="0.5" fill="#E6E9ED" stroke="#26313A" stroke-width="0.3"/>
<rect width="3" height="6.91931" rx="0.5" transform="matrix(-1 0 0 1 220 139.812)" fill="#FF9434" stroke="#26313A" stroke-width="0.3"/>
<rect x="220" y="140.797" width="50" height="2.96542" rx="0.5" fill="#E6E9ED" stroke="#26313A" stroke-width="0.3"/>
<rect x="220" y="143.766" width="22" height="2.96542" rx="0.5" fill="#E6E9ED" stroke="#26313A" stroke-width="0.3"/>
<rect x="242" y="143.766" width="28" height="2.96542" rx="0.5" fill="#E6E9ED" stroke="#26313A" stroke-width="0.3"/>
<rect x="118" y="127.945" width="32" height="2.96542" rx="0.5" fill="#E6E9ED" stroke="#26313A" stroke-width="0.3"/>
<rect x="118" y="130.914" width="32" height="0.988473" rx="0.494236" fill="#E6E9ED" stroke="#26313A" stroke-width="0.3"/>
<rect x="150" y="130.914" width="19" height="0.988473" rx="0.494236" fill="#E6E9ED" stroke="#26313A" stroke-width="0.3"/>
<rect x="169" y="130.914" width="25" height="0.988473" rx="0.494236" fill="#E6E9ED" stroke="#26313A" stroke-width="0.3"/>
<rect x="150" y="127.945" width="19" height="2.96542" rx="0.5" fill="#E6E9ED" stroke="#26313A" stroke-width="0.3"/>
<rect x="169" y="127.945" width="25" height="2.96542" rx="0.5" fill="#E6E9ED" stroke="#26313A" stroke-width="0.3"/>
<rect x="149" y="140.797" width="45" height="2.96542" rx="0.5" fill="#E6E9ED" stroke="#26313A" stroke-width="0.3"/>
<rect x="149" y="143.766" width="45" height="2.96542" rx="0.5" fill="#E6E9ED" stroke="#26313A" stroke-width="0.3"/>
<rect x="166" y="155.625" width="28" height="2.96542" rx="0.5" fill="#E6E9ED" stroke="#26313A" stroke-width="0.3"/>
<rect x="160" y="158.59" width="34" height="2.96542" rx="0.5" fill="#E6E9ED" stroke="#26313A" stroke-width="0.3"/>
<rect x="150" y="155.625" width="16" height="2.96542" rx="0.5" fill="#E6E9ED" stroke="#26313A" stroke-width="0.3"/>
<rect x="150" y="158.59" width="10" height="2.96542" rx="0.5" fill="#E6E9ED" stroke="#26313A" stroke-width="0.3"/>
<rect width="3" height="6.91931" rx="0.5" transform="matrix(-1 0 0 1 219 110.156)" fill="#FF9434" stroke="#26313A" stroke-width="0.3"/>
<rect x="238" y="111.145" width="32" height="2.96542" rx="0.5" fill="#E6E9ED" stroke="#26313A" stroke-width="0.3"/>
<rect x="231" y="114.109" width="39" height="2.96542" rx="0.5" fill="#E6E9ED" stroke="#26313A" stroke-width="0.3"/>
<rect x="219" y="111.145" width="19" height="2.96542" rx="0.5" fill="#E6E9ED" stroke="#26313A" stroke-width="0.3"/>
<rect x="219" y="114.109" width="12" height="2.96542" rx="0.5" fill="#E6E9ED" stroke="#26313A" stroke-width="0.3"/>
<rect width="3" height="6.91931" rx="0.5" transform="matrix(-1 0 0 1 219 124.984)" fill="#FF9434" stroke="#26313A" stroke-width="0.3"/>
<rect width="3" height="5.93084" rx="0.5" transform="matrix(-1 0 0 1 273 124.984)" fill="#FF9434" stroke="#26313A" stroke-width="0.3"/>
<rect x="238" y="125.969" width="32" height="2.96542" rx="0.5" fill="#E6E9ED" stroke="#26313A" stroke-width="0.3"/>
<rect x="231" y="128.938" width="39" height="2.96542" rx="0.5" fill="#E6E9ED" stroke="#26313A" stroke-width="0.3"/>
<rect x="219" y="125.969" width="19" height="2.96542" rx="0.5" fill="#E6E9ED" stroke="#26313A" stroke-width="0.3"/>
<rect x="219" y="128.938" width="12" height="2.96542" rx="0.5" fill="#E6E9ED" stroke="#26313A" stroke-width="0.3"/>
<rect width="5" height="8.89625" rx="0.5" transform="matrix(-1 0 0 1 200 169.465)" fill="#FF9434" stroke="#26313A" stroke-width="0.3"/>
<rect x="168" y="170.453" width="27" height="2.96542" rx="0.5" fill="#E6E9ED" stroke="#26313A" stroke-width="0.3"/>
<rect x="162" y="173.418" width="33" height="2.96542" rx="0.5" fill="#E6E9ED" stroke="#26313A" stroke-width="0.3"/>
<rect x="149" y="170.453" width="19" height="2.96542" rx="0.5" fill="#E6E9ED" stroke="#26313A" stroke-width="0.3"/>
<rect x="149" y="173.418" width="14" height="2.96542" rx="0.5" fill="#E6E9ED" stroke="#26313A" stroke-width="0.3"/>
<rect x="145" y="192.199" width="7" height="5.93084" rx="0.5" fill="#E6E9ED" stroke="#26313A" stroke-width="0.3"/>
<rect x="145" y="214.934" width="7" height="5.93084" rx="0.5" fill="#E6E9ED" stroke="#26313A" stroke-width="0.3"/>
<rect x="152" y="193.188" width="22" height="4.94236" rx="0.5" fill="#E6E9ED" stroke="#26313A" stroke-width="0.3"/>
<rect x="152" y="214.934" width="27" height="5.93084" rx="0.5" fill="#E6E9ED" stroke="#26313A" stroke-width="0.3"/>
<rect x="174" y="193.188" width="5" height="4.94236" rx="0.5" fill="#E6E9ED" stroke="#26313A" stroke-width="0.3"/>
<rect x="199" y="192.199" width="8" height="5.93084" rx="0.5" fill="#E6E9ED" stroke="#26313A" stroke-width="0.3"/>
<rect x="195" y="215.922" width="5" height="9.88473" rx="0.5" fill="#FF9434" stroke="#26313A" stroke-width="0.3"/>
<rect x="200" y="214.934" width="10" height="5.93084" rx="0.5" fill="#E6E9ED" stroke="#26313A" stroke-width="0.3"/>
<rect x="200" y="220.867" width="5" height="4.94236" rx="0.5" fill="#E6E9ED" stroke="#26313A" stroke-width="0.3"/>
<rect x="205" y="220.867" width="5" height="4.94236" rx="0.5" fill="#E6E9ED" stroke="#26313A" stroke-width="0.3"/>
<rect x="284" y="228.773" width="7" height="6.91931" rx="0.5" fill="#E6E9ED" stroke="#26313A" stroke-width="0.3"/>
<rect x="210" y="216.91" width="5" height="7.90778" rx="0.5" fill="#E6E9ED" stroke="#26313A" stroke-width="0.3"/>
<rect x="199" y="198.129" width="8" height="5.93084" rx="0.5" fill="#E6E9ED" stroke="#26313A" stroke-width="0.3"/>
<rect x="207" y="192.199" width="8" height="5.93084" rx="0.5" fill="#E6E9ED" stroke="#26313A" stroke-width="0.3"/>
<rect x="225" y="190.223" width="28" height="6.91931" rx="0.5" fill="#E6E9ED" stroke="#26313A" stroke-width="0.3"/>
<rect x="224" y="173.418" width="14" height="4.94236" rx="0.5" fill="#E6E9ED" stroke="#26313A" stroke-width="0.3"/>
<rect x="238" y="174.406" width="9" height="3.95389" rx="0.5" fill="#E6E9ED" stroke="#26313A" stroke-width="0.3"/>
<rect x="233" y="170.453" width="32" height="3.95389" rx="0.5" fill="#E6E9ED" stroke="#26313A" stroke-width="0.3"/>
<rect x="219" y="170.453" width="10" height="3.95389" rx="0.5" fill="#E6E9ED" stroke="#26313A" stroke-width="0.3"/>
<rect x="247" y="174.406" width="9" height="3.95389" rx="0.5" fill="#E6E9ED" stroke="#26313A" stroke-width="0.3"/>
<rect x="256" y="173.418" width="13" height="4.94236" rx="0.5" fill="#E6E9ED" stroke="#26313A" stroke-width="0.3"/>
<rect width="14" height="0.988473" rx="0.494236" transform="matrix(1 0 0 -1 224 179.352)" fill="#E6E9ED" stroke="#26313A" stroke-width="0.3"/>
<rect width="9" height="0.988473" rx="0.494236" transform="matrix(1 0 0 -1 238 179.352)" fill="#E6E9ED" stroke="#26313A" stroke-width="0.3"/>
<rect width="9" height="0.988473" rx="0.494236" transform="matrix(1 0 0 -1 247 179.352)" fill="#E6E9ED" stroke="#26313A" stroke-width="0.3"/>
<rect width="13" height="0.988473" rx="0.494236" transform="matrix(1 0 0 -1 256 179.352)" fill="#E6E9ED" stroke="#26313A" stroke-width="0.3"/>
<rect x="230" y="212.957" width="41" height="6.91931" rx="0.5" fill="#E6E9ED" stroke="#26313A" stroke-width="0.3"/>
<rect x="231" y="219.875" width="7" height="5.93084" rx="0.5" fill="#E6E9ED" stroke="#26313A" stroke-width="0.3"/>
<rect x="243" y="219.875" width="28" height="5.93084" rx="0.5" fill="#E6E9ED" stroke="#26313A" stroke-width="0.3"/>
<rect x="238" y="219.875" width="5" height="4.94236" rx="0.5" fill="#E6E9ED" stroke="#26313A" stroke-width="0.3"/>
<rect x="253" y="191.211" width="17" height="5.93084" rx="0.5" fill="#E6E9ED" stroke="#26313A" stroke-width="0.3"/>
<rect x="288" y="187.258" width="5" height="13.8386" rx="0.5" fill="#E6E9ED" stroke="#26313A" stroke-width="0.3"/>
<rect x="286" y="201.094" width="7" height="6.91931" rx="0.5" fill="#E6E9ED" stroke="#26313A" stroke-width="0.3"/>
<rect x="286" y="208.016" width="7" height="6.91931" rx="0.5" fill="#E6E9ED" stroke="#26313A" stroke-width="0.3"/>
<rect x="225" y="197.141" width="45" height="5.93084" rx="0.5" fill="#E6E9ED" stroke="#26313A" stroke-width="0.3"/>
<rect x="207" y="198.129" width="8" height="5.93084" rx="0.5" fill="#E6E9ED" stroke="#26313A" stroke-width="0.3"/>
<rect x="179" y="215.922" width="5" height="9.88473" rx="0.5" fill="#FF9434" stroke="#26313A" stroke-width="0.3"/>
<rect x="152" y="198.129" width="23" height="4.94236" rx="0.5" fill="#E6E9ED" stroke="#26313A" stroke-width="0.3"/>
<rect x="152" y="220.867" width="27" height="4.94236" rx="0.5" fill="#E6E9ED" stroke="#26313A" stroke-width="0.3"/>
<rect x="145" y="198.129" width="7" height="5.93084" rx="0.5" fill="#E6E9ED" stroke="#26313A" stroke-width="0.3"/>
<rect x="145" y="220.867" width="7" height="5.93084" rx="0.5" fill="#E6E9ED" stroke="#26313A" stroke-width="0.3"/>
<rect x="185" y="34.043" width="14" height="0.988473" rx="0.494236" fill="#E6E9ED" stroke="#26313A" stroke-width="0.3"/>
<rect x="185" y="30.0898" width="14" height="3.95389" rx="0.5" fill="#E6E9ED" stroke="#26313A" stroke-width="0.3"/>
<rect x="108" y="33.0547" width="10" height="0.988473" rx="0.494236" fill="#E6E9ED" stroke="#26313A" stroke-width="0.3"/>
<rect x="108" y="29.1016" width="10" height="3.95389" rx="0.5" fill="#E6E9ED" stroke="#26313A" stroke-width="0.3"/>
<rect x="90" y="33.0547" width="18" height="0.988473" rx="0.494236" fill="#E6E9ED" stroke="#26313A" stroke-width="0.3"/>
<rect x="90" y="29.1016" width="18" height="3.95389" rx="0.5" fill="#E6E9ED" stroke="#26313A" stroke-width="0.3"/>
<rect x="90" y="45.9062" width="13.8386" height="1" rx="0.5" transform="rotate(-90 90 45.9062)" fill="#E6E9ED" stroke="#26313A" stroke-width="0.3"/>
<rect x="86" y="45.9062" width="13.8386" height="4" rx="0.5" transform="rotate(-90 86 45.9062)" fill="#E6E9ED" stroke="#26313A" stroke-width="0.3"/>
<rect x="91" y="68.6406" width="22.7349" height="1" rx="0.5" transform="rotate(-90 91 68.6406)" fill="#E6E9ED" stroke="#26313A" stroke-width="0.3"/>
<rect x="86" y="68.6406" width="22.7349" height="5" rx="0.5" transform="rotate(-90 86 68.6406)" fill="#E6E9ED" stroke="#26313A" stroke-width="0.3"/>
<rect x="91" y="99.2812" width="30.6427" height="1" rx="0.5" transform="rotate(-90 91 99.2812)" fill="#E6E9ED" stroke="#26313A" stroke-width="0.3"/>
<rect x="86" y="99.2812" width="30.6427" height="5" rx="0.5" transform="rotate(-90 86 99.2812)" fill="#E6E9ED" stroke="#26313A" stroke-width="0.3"/>
<rect x="91" y="217.898" width="30.6427" height="1" rx="0.5" transform="rotate(-90 91 217.898)" fill="#E6E9ED" stroke="#26313A" stroke-width="0.3"/>
<rect x="86" y="217.898" width="30.6427" height="5" rx="0.5" transform="rotate(-90 86 217.898)" fill="#E6E9ED" stroke="#26313A" stroke-width="0.3"/>
<rect x="106" y="200.109" width="5.93084" height="1" rx="0.5" transform="rotate(-90 106 200.109)" fill="#E6E9ED" stroke="#26313A" stroke-width="0.3"/>
<rect x="103" y="200.109" width="5.93084" height="3" rx="0.5" transform="rotate(-90 103 200.109)" fill="#E6E9ED" stroke="#26313A" stroke-width="0.3"/>
<rect x="106" y="209" width="8.89625" height="1" rx="0.5" transform="rotate(-90 106 209)" fill="#E6E9ED" stroke="#26313A" stroke-width="0.3"/>
<rect x="103" y="209" width="8.89625" height="3" rx="0.5" transform="rotate(-90 103 209)" fill="#E6E9ED" stroke="#26313A" stroke-width="0.3"/>
<rect width="2.96542" height="1" rx="0.5" transform="matrix(2.89535e-08 1 1 -4.91142e-09 108 191.211)" fill="#E6E9ED" stroke="#26313A" stroke-width="0.3"/>
<rect width="2.96542" height="5" rx="0.5" transform="matrix(1.20639e-08 1 1 -1.17874e-08 103 191.211)" fill="#E6E9ED" stroke="#26313A" stroke-width="0.3"/>
<rect x="91" y="233.715" width="30.6427" height="1" rx="0.5" transform="rotate(-90 91 233.715)" fill="#E6E9ED" stroke="#26313A" stroke-width="0.3"/>
<rect x="86" y="233.715" width="30.6427" height="5" rx="0.5" transform="rotate(-90 86 233.715)" fill="#E6E9ED" stroke="#26313A" stroke-width="0.3"/>
<rect x="129" y="240.633" width="31" height="0.988472" rx="0.494236" transform="rotate(-180 129 240.633)" fill="#E6E9ED" stroke="#26313A" stroke-width="0.3"/>
<rect x="129" y="245.578" width="31" height="4.94236" rx="0.5" transform="rotate(-180 129 245.578)" fill="#E6E9ED" stroke="#26313A" stroke-width="0.3"/>
<rect x="128" y="216.91" width="14" height="0.988472" rx="0.494236" transform="rotate(-180 128 216.91)" fill="#E6E9ED" stroke="#26313A" stroke-width="0.3"/>
<rect x="128" y="221.852" width="14" height="4.94236" rx="0.5" transform="rotate(-180 128 221.852)" fill="#E6E9ED" stroke="#26313A" stroke-width="0.3"/>
<rect width="5" height="4.94236" rx="0.5" transform="matrix(1 4.1256e-08 1.48313e-08 -1 128 221.852)" fill="#E6E9ED" stroke="#26313A" stroke-width="0.3"/>
<rect x="127" y="199.117" width="6" height="17.7925" rx="0.5" fill="#E6E9ED" stroke="#26313A" stroke-width="0.3"/>
<rect width="6" height="4.94236" rx="0.5" transform="matrix(1 4.1256e-08 1.48313e-08 -1 127 199.117)" fill="#E6E9ED" stroke="#26313A" stroke-width="0.3"/>
<rect x="127" y="199.117" width="13" height="4.94236" rx="0.5" transform="rotate(-180 127 199.117)" fill="#E6E9ED" stroke="#26313A" stroke-width="0.3"/>
<rect x="160" y="240.633" width="31" height="0.988472" rx="0.494236" transform="rotate(-180 160 240.633)" fill="#E6E9ED" stroke="#26313A" stroke-width="0.3"/>
<rect x="160" y="245.578" width="31" height="4.94236" rx="0.5" transform="rotate(-180 160 245.578)" fill="#E6E9ED" stroke="#26313A" stroke-width="0.3"/>
<rect x="80" y="247.555" width="13" height="0.988472" rx="0.494236" transform="rotate(-180 80 247.555)" fill="#E6E9ED" stroke="#26313A" stroke-width="0.3"/>
<rect x="80" y="252.496" width="13" height="4.94236" rx="0.5" transform="rotate(-180 80 252.496)" fill="#E6E9ED" stroke="#26313A" stroke-width="0.3"/>
<rect x="71" y="247.555" width="13" height="0.988472" rx="0.494236" transform="rotate(-180 71 247.555)" fill="#E6E9ED" stroke="#26313A" stroke-width="0.3"/>
<rect x="71" y="252.496" width="13" height="4.94236" rx="0.5" transform="rotate(-180 71 252.496)" fill="#E6E9ED" stroke="#26313A" stroke-width="0.3"/>
<rect x="64" y="247.555" width="13" height="0.988472" rx="0.494236" transform="rotate(-180 64 247.555)" fill="#E6E9ED" stroke="#26313A" stroke-width="0.3"/>
<rect x="64" y="252.496" width="13" height="4.94236" rx="0.5" transform="rotate(-180 64 252.496)" fill="#E6E9ED" stroke="#26313A" stroke-width="0.3"/>
<rect x="58" y="247.555" width="13" height="0.988472" rx="0.494236" transform="rotate(-180 58 247.555)" fill="#E6E9ED" stroke="#26313A" stroke-width="0.3"/>
<rect x="58" y="252.496" width="13" height="4.94236" rx="0.5" transform="rotate(-180 58 252.496)" fill="#E6E9ED" stroke="#26313A" stroke-width="0.3"/>
<rect x="51" y="247.555" width="13" height="0.988472" rx="0.494236" transform="rotate(-180 51 247.555)" fill="#E6E9ED" stroke="#26313A" stroke-width="0.3"/>
<rect x="51" y="252.496" width="13" height="4.94236" rx="0.5" transform="rotate(-180 51 252.496)" fill="#E6E9ED" stroke="#26313A" stroke-width="0.3"/>
<rect x="44" y="247.555" width="13" height="0.988472" rx="0.494236" transform="rotate(-180 44 247.555)" fill="#E6E9ED" stroke="#26313A" stroke-width="0.3"/>
<rect x="44" y="252.496" width="13" height="4.94236" rx="0.5" transform="rotate(-180 44 252.496)" fill="#E6E9ED" stroke="#26313A" stroke-width="0.3"/>
<rect x="33" y="247.555" width="13" height="0.988472" rx="0.494236" transform="rotate(-180 33 247.555)" fill="#E6E9ED" stroke="#26313A" stroke-width="0.3"/>
<rect x="33" y="252.496" width="13" height="4.94236" rx="0.5" transform="rotate(-180 33 252.496)" fill="#E6E9ED" stroke="#26313A" stroke-width="0.3"/>
<rect x="186" y="240.633" width="31" height="0.988472" rx="0.494236" transform="rotate(-180 186 240.633)" fill="#E6E9ED" stroke="#26313A" stroke-width="0.3"/>
<rect x="186" y="245.578" width="31" height="4.94236" rx="0.5" transform="rotate(-180 186 245.578)" fill="#E6E9ED" stroke="#26313A" stroke-width="0.3"/>
<rect x="212" y="240.633" width="15" height="0.988472" rx="0.494236" transform="rotate(-180 212 240.633)" fill="#E6E9ED" stroke="#26313A" stroke-width="0.3"/>
<rect x="212" y="245.578" width="15" height="4.94236" rx="0.5" transform="rotate(-180 212 245.578)" fill="#E6E9ED" stroke="#26313A" stroke-width="0.3"/>
<rect x="226" y="240.633" width="15" height="0.988472" rx="0.494236" transform="rotate(-180 226 240.633)" fill="#E6E9ED" stroke="#26313A" stroke-width="0.3"/>
<rect x="226" y="245.578" width="15" height="4.94236" rx="0.5" transform="rotate(-180 226 245.578)" fill="#E6E9ED" stroke="#26313A" stroke-width="0.3"/>
<rect x="285" y="239.645" width="18" height="0.988472" rx="0.494236" transform="rotate(-180 285 239.645)" fill="#E6E9ED" stroke="#26313A" stroke-width="0.3"/>
<rect x="285" y="244.586" width="18" height="4.94236" rx="0.5" transform="rotate(-180 285 244.586)" fill="#E6E9ED" stroke="#26313A" stroke-width="0.3"/>
<rect x="249" y="240.633" width="15" height="0.988472" rx="0.494236" transform="rotate(-180 249 240.633)" fill="#E6E9ED" stroke="#26313A" stroke-width="0.3"/>
<rect x="249" y="245.578" width="15" height="4.94236" rx="0.5" transform="rotate(-180 249 245.578)" fill="#E6E9ED" stroke="#26313A" stroke-width="0.3"/>
<rect x="266" y="240.633" width="19" height="0.988472" rx="0.494236" transform="rotate(-180 266 240.633)" fill="#E6E9ED" stroke="#26313A" stroke-width="0.3"/>
<rect x="266" y="247.555" width="19" height="6.91931" rx="0.5" transform="rotate(-180 266 247.555)" fill="#E6E9ED" stroke="#26313A" stroke-width="0.3"/>
<rect x="304" y="239.645" width="19" height="0.988472" rx="0.494236" transform="rotate(-180 304 239.645)" fill="#E6E9ED" stroke="#26313A" stroke-width="0.3"/>
<rect x="304" y="246.562" width="19" height="6.91931" rx="0.5" transform="rotate(-180 304 246.562)" fill="#E6E9ED" stroke="#26313A" stroke-width="0.3"/>
<rect x="91" y="111.145" width="9.88473" height="1" rx="0.5" transform="rotate(-90 91 111.145)" fill="#E6E9ED" stroke="#26313A" stroke-width="0.3"/>
<rect x="86" y="111.145" width="9.88473" height="5" rx="0.5" transform="rotate(-90 86 111.145)" fill="#E6E9ED" stroke="#26313A" stroke-width="0.3"/>
<rect x="199" y="34.043" width="31" height="0.988473" rx="0.494236" fill="#E6E9ED" stroke="#26313A" stroke-width="0.3"/>
<rect x="199" y="30.0898" width="31" height="3.95389" rx="0.5" fill="#E6E9ED" stroke="#26313A" stroke-width="0.3"/>
<rect x="280" y="35.0312" width="8" height="0.988473" rx="0.494236" fill="#E6E9ED" stroke="#26313A" stroke-width="0.3"/>
<rect x="280" y="30.0898" width="8" height="4.94236" rx="0.5" fill="#E6E9ED" stroke="#26313A" stroke-width="0.3"/>
<rect x="288" y="35.0312" width="19" height="0.988473" rx="0.494236" fill="#E6E9ED" stroke="#26313A" stroke-width="0.3"/>
<rect x="288" y="30.0898" width="19" height="4.94236" rx="0.5" fill="#E6E9ED" stroke="#26313A" stroke-width="0.3"/>
<rect x="305" y="35.0312" width="6.91931" height="1" rx="0.5" transform="rotate(90 305 35.0312)" fill="#E6E9ED" stroke="#26313A" stroke-width="0.3"/>
<rect x="311" y="35.0312" width="6.91931" height="6" rx="0.5" transform="rotate(90 311 35.0312)" fill="#E6E9ED" stroke="#26313A" stroke-width="0.3"/>
<rect x="305" y="41.9531" width="14.8271" height="0.999999" rx="0.5" transform="rotate(90 305 41.9531)" fill="#E6E9ED" stroke="#26313A" stroke-width="0.3"/>
<rect x="311" y="41.9531" width="14.8271" height="6" rx="0.5" transform="rotate(90 311 41.9531)" fill="#E6E9ED" stroke="#26313A" stroke-width="0.3"/>
<rect x="286" y="47.8828" width="3.95389" height="1" rx="0.5" transform="rotate(90 286 47.8828)" fill="#E6E9ED" stroke="#26313A" stroke-width="0.3"/>
<rect x="290" y="47.8828" width="3.95389" height="4" rx="0.5" transform="rotate(90 290 47.8828)" fill="#E6E9ED" stroke="#26313A" stroke-width="0.3"/>
<rect x="286" y="51.8359" width="7.90778" height="0.999999" rx="0.5" transform="rotate(90 286 51.8359)" fill="#E6E9ED" stroke="#26313A" stroke-width="0.3"/>
<rect x="290" y="51.8359" width="7.90778" height="4" rx="0.5" transform="rotate(90 290 51.8359)" fill="#E6E9ED" stroke="#26313A" stroke-width="0.3"/>
<rect x="272" y="47.8828" width="3.95389" height="1" rx="0.5" transform="rotate(90 272 47.8828)" fill="#E6E9ED" stroke="#26313A" stroke-width="0.3"/>
<rect x="276" y="47.8828" width="3.95389" height="4" rx="0.5" transform="rotate(90 276 47.8828)" fill="#E6E9ED" stroke="#26313A" stroke-width="0.3"/>
<rect x="272" y="51.8359" width="6.91931" height="0.999999" rx="0.5" transform="rotate(90 272 51.8359)" fill="#E6E9ED" stroke="#26313A" stroke-width="0.3"/>
<rect x="276" y="51.8359" width="6.91931" height="4" rx="0.5" transform="rotate(90 276 51.8359)" fill="#E6E9ED" stroke="#26313A" stroke-width="0.3"/>
<rect x="267" y="47.8828" width="3.95389" height="1" rx="0.5" transform="rotate(90 267 47.8828)" fill="#E6E9ED" stroke="#26313A" stroke-width="0.3"/>
<rect x="271" y="47.8828" width="3.95389" height="4" rx="0.5" transform="rotate(90 271 47.8828)" fill="#E6E9ED" stroke="#26313A" stroke-width="0.3"/>
<rect x="267" y="51.8359" width="6.91931" height="0.999999" rx="0.5" transform="rotate(90 267 51.8359)" fill="#E6E9ED" stroke="#26313A" stroke-width="0.3"/>
<rect x="271" y="51.8359" width="6.91931" height="4" rx="0.5" transform="rotate(90 271 51.8359)" fill="#E6E9ED" stroke="#26313A" stroke-width="0.3"/>
<rect x="254" y="46.8906" width="11.8617" height="0.999999" rx="0.5" transform="rotate(90 254 46.8906)" fill="#E6E9ED" stroke="#26313A" stroke-width="0.3"/>
<rect x="258" y="46.8906" width="11.8617" height="4" rx="0.5" transform="rotate(90 258 46.8906)" fill="#E6E9ED" stroke="#26313A" stroke-width="0.3"/>
<rect x="249" y="46.8906" width="11.8617" height="0.999999" rx="0.5" transform="rotate(90 249 46.8906)" fill="#E6E9ED" stroke="#26313A" stroke-width="0.3"/>
<rect x="253" y="46.8906" width="11.8617" height="4" rx="0.5" transform="rotate(90 253 46.8906)" fill="#E6E9ED" stroke="#26313A" stroke-width="0.3"/>
<rect x="248" y="62.7109" width="9" height="0.988472" rx="0.494236" fill="#E6E9ED" stroke="#26313A" stroke-width="0.3"/>
<rect x="248" y="58.7578" width="9" height="3.95389" rx="0.5" fill="#E6E9ED" stroke="#26313A" stroke-width="0.3"/>
<rect x="267" y="62.7109" width="9" height="0.988472" rx="0.494236" fill="#E6E9ED" stroke="#26313A" stroke-width="0.3"/>
<rect x="267" y="58.7578" width="9" height="3.95389" rx="0.5" fill="#E6E9ED" stroke="#26313A" stroke-width="0.3"/>
<rect x="236" y="35.0312" width="40" height="0.988473" rx="0.494236" fill="#E6E9ED" stroke="#26313A" stroke-width="0.3"/>
<rect x="236" y="30.0898" width="40" height="4.94236" rx="0.5" fill="#E6E9ED" stroke="#26313A" stroke-width="0.3"/>
<rect width="3.97701" height="3.97701" rx="0.5" transform="matrix(0.711194 0.702996 -0.711194 0.702996 206.828 155.625)" fill="#E6E9ED" stroke="#26313A" stroke-width="0.3"/>
<rect width="3.97701" height="3.97701" rx="0.5" transform="matrix(0.711194 0.702996 -0.711194 0.702996 206.828 140.797)" fill="#E6E9ED" stroke="#26313A" stroke-width="0.3"/>
<rect width="5.04214" height="4.80047" rx="0.5" transform="matrix(0.711194 0.702996 -0.711194 0.702996 229.828 69.6289)" fill="#E6E9ED" stroke="#26313A" stroke-width="0.3"/>
<rect width="5.04214" height="4.80047" rx="0.5" transform="matrix(0.711194 0.702996 -0.711194 0.702996 265.414 70.6172)" fill="#E6E9ED" stroke="#26313A" stroke-width="0.3"/>
<rect x="168.398" y="61.2266" width="0.4" height="1.97695" rx="0.2" fill="#647887"/>
<path d="M160.5 54.5005C165.761 54.5005 170.002 58.9306 170.002 64.2378C170.002 65.6585 169.528 67.1742 168.884 68.603L168.599 69.2095C167.899 70.6372 167.007 72.0671 166.107 73.3647L165.721 73.9116C164.949 74.9929 164.178 75.9789 163.517 76.7886L162.897 77.5366C162.705 77.7648 162.528 77.9711 162.372 78.1519L161.965 78.6147L161.7 78.9097C161.669 78.9437 161.645 78.9705 161.628 78.9888L161.627 78.9897L161.609 79.0103L161.6 79.019C161.352 79.2871 161.016 79.4541 160.656 79.4917L160.5 79.4995C160.134 79.4994 159.783 79.3661 159.511 79.1274L159.399 79.019C159.398 79.0182 159.398 79.017 159.397 79.0161H159.396L159.391 79.0103V79.0093L159.372 78.9897V78.9888L159.3 78.9106L159.039 78.6187C158.927 78.4926 158.791 78.3386 158.636 78.1597L158.116 77.5503C157.451 76.7601 156.589 75.6937 155.698 74.478L155.314 73.9487C154.421 72.6969 153.508 71.2923 152.755 69.8657L152.443 69.2534C151.653 67.6472 151.028 65.8987 150.998 64.2661V64.2378L151.01 63.7427C151.264 58.658 155.403 54.5007 160.5 54.5005ZM160.5 61.1265C158.865 61.1265 157.56 62.4868 157.56 64.1372C157.56 65.7878 158.865 67.1489 160.5 67.1489C162.136 67.1487 163.44 65.7877 163.44 64.1372C163.44 62.4869 162.136 61.1267 160.5 61.1265Z" fill="#F91077" stroke="black" stroke-linejoin="round"/>
<rect x="167" y="81" width="0.4" height="1.97695" rx="0.2" fill="#647887"/>
<rect x="172.199" y="81" width="0.4" height="1.97695" rx="0.2" fill="#647887"/>
</svg>
