<svg width="24" height="24" viewBox="0 0 24 24" color="#26313A" fill="none" xmlns="http://www.w3.org/2000/svg">
<g id="icon">
<g id="Vector">
<path fill-rule="evenodd" clip-rule="evenodd" d="M9.70711 4.29289C10.0976 4.68342 10.0976 5.31658 9.70711 5.70711L5.41421 10L9.70711 14.2929C10.0976 14.6834 10.0976 15.3166 9.70711 15.7071C9.31658 16.0976 8.68342 16.0976 8.29289 15.7071L3.29289 10.7071C2.90237 10.3166 2.90237 9.68342 3.29289 9.29289L8.29289 4.29289C8.68342 3.90237 9.31658 3.90237 9.70711 4.29289Z" fill="currentColor"/>
<path fill-rule="evenodd" clip-rule="evenodd" d="M3 10C3 9.44772 3.44772 9 4 9H16C17.3261 9 18.5979 9.52678 19.5355 10.4645C20.4732 11.4021 21 12.6739 21 14V21C21 21.5523 20.5523 22 20 22C19.4477 22 19 21.5523 19 21V14C19 13.2044 18.6839 12.4413 18.1213 11.8787C17.5587 11.3161 16.7956 11 16 11H4C3.44772 11 3 10.5523 3 10Z" fill="currentColor"/>
</g>
</g>
</svg>
