<svg width="24" height="24" viewBox="0 0 24 24" fill="none" color="#26313A"
    xmlns="http://www.w3.org/2000/svg">
    <path fill-rule="evenodd" clip-rule="evenodd" d="M12 3C7.02944 3 3 7.02944 3 12C3 16.9706 7.02944 21 12 21C16.9706 21 21 16.9706 21 12C21 7.02944 16.9706 3 12 3ZM1 12C1 5.92487 5.92487 1 12 1C18.0751 1 23 5.92487 23 12C23 18.0751 18.0751 23 12 23C5.92487 23 1 18.0751 1 12ZM7.40381 7.40379C7.79433 7.01327 8.4275 7.01327 8.81802 7.40379L12 10.5858L15.182 7.40382C15.5725 7.01329 16.2057 7.01329 16.5962 7.40382C16.9867 7.79434 16.9867 8.42751 16.5962 8.81803L13.4142 12L16.5962 15.182C16.9867 15.5725 16.9867 16.2057 16.5962 16.5962C16.2057 16.9867 15.5725 16.9867 15.182 16.5962L12 13.4142L8.81802 16.5962C8.4275 16.9867 7.79433 16.9867 7.40381 16.5962C7.01329 16.2057 7.01329 15.5725 7.40381 15.182L10.5858 12L7.40381 8.81801C7.01329 8.42748 7.01329 7.79432 7.40381 7.40379Z" fill="currentColor"/>
</svg>
