<svg width="18" height="18" viewBox="0 0 18 18" fill="none" color="#26313A" xmlns="http://www.w3.org/2000/svg">
<path fill-rule="evenodd" clip-rule="evenodd" d="M11.2929 0.292893C11.6834 -0.0976311 12.3166 -0.0976311 12.7071 0.292893L17.7071 5.29289C18.0976 5.68342 18.0976 6.31658 17.7071 6.70711L12.7071 11.7071C12.3166 12.0976 11.6834 12.0976 11.2929 11.7071C10.9024 11.3166 10.9024 10.6834 11.2929 10.2929L15.5858 6L11.2929 1.70711C10.9024 1.31658 10.9024 0.683417 11.2929 0.292893Z" fill="currentColor"/>
<path fill-rule="evenodd" clip-rule="evenodd" d="M5 7C4.20435 7 3.44129 7.31607 2.87868 7.87868C2.31607 8.44129 2 9.20435 2 10V17C2 17.5523 1.55228 18 1 18C0.447715 18 0 17.5523 0 17V10C0 8.67392 0.526784 7.40215 1.46447 6.46447C2.40215 5.52678 3.67392 5 5 5H17C17.5523 5 18 5.44772 18 6C18 6.55228 17.5523 7 17 7H5Z" fill="currentColor"/>
</svg>
