<svg width="27" height="24" viewBox="0 0 27 24" fill="none" color="#26313A" xmlns="http://www.w3.org/2000/svg">
<path d="M25.8497 1.15031C26.2402 1.54084 26.2402 2.174 25.8497 2.56453L24.4137 4.00049L25.8493 5.43603C26.2398 5.82656 26.2398 6.45972 25.8493 6.85025C25.4587 7.24077 24.8256 7.24077 24.4351 6.85025L22.9995 5.4147L21.564 6.85025C21.1734 7.24077 20.5403 7.24077 20.1498 6.85025C19.7592 6.45972 19.7592 5.82656 20.1498 5.43603L21.5853 4.00049L20.1493 2.56453C19.7588 2.174 19.7588 1.54084 20.1493 1.15031C20.5399 0.759791 21.173 0.759791 21.5636 1.15032L22.9995 2.58628L24.4355 1.15032C24.826 0.759791 25.4592 0.759791 25.8497 1.15031Z" fill="currentColor"/>
<path fill-rule="evenodd" clip-rule="evenodd" d="M2 5L2 16.5649L7.364 9.06769C8.16681 7.94562 9.83783 7.95424 10.629 9.08453L11.6967 10.6098C12.0925 11.1752 12.9285 11.1792 13.3297 10.6176L13.4062 10.5106C14.1839 9.42175 15.7908 9.38899 16.6123 10.4452L22 17.3723V10C22 10 22 9 23 9C24 9 24 10 24 10V19C24 20.1046 23.1046 21 22 21H2C0.89543 21 0 20.1046 0 19V5C0 3.89543 0.895431 3 2 3H17C17 3 18 3 18 4C18 5 17 5 17 5H2ZM20.7323 19H2.71692L8.16835 11.3806C8.56976 10.8196 9.40527 10.8239 9.80087 11.389L10.8692 12.9153C11.6608 14.0461 13.3328 14.0541 14.1351 12.9309L14.254 12.7645C14.6429 12.2201 15.4463 12.2037 15.8571 12.7318L20.7323 19Z" fill="currentColor"/>
</svg>
