<svg width="40" height="40" viewBox="0 0 40 40" fill="none" xmlns="http://www.w3.org/2000/svg">
<path d="M19 11H14C11.8 11 10 12.8 10 15V21C10 23.2 11.8 25 14 25V29L18.1 25H26C28.2 25 30 23.2 30 21V15C30 14.3573 29.8464 13.7488 29.5741 13.2093" stroke="white" stroke-width="2" stroke-miterlimit="10" stroke-linecap="round" stroke-linejoin="round"/>
<path d="M24.4644 14.8141C25.4952 14.8026 26.4428 14.246 26.9549 13.3512C27.4669 12.4565 27.4669 11.3576 26.9547 10.463C26.4428 9.56829 25.4951 9.01171 24.4643 9C23.4335 9.01168 22.4859 9.56829 21.9738 10.463C21.4618 11.3576 21.4618 12.4567 21.974 13.3514C22.4859 14.246 23.4335 14.8026 24.4644 14.8141ZM23.7567 11.2504H23.7565C23.9901 11.0048 24.3352 10.8995 24.6661 10.9727C24.997 11.0459 25.2653 11.2869 25.3735 11.6081C25.4817 11.9292 25.4139 12.2837 25.1949 12.5421C25.026 12.7414 24.7835 12.8639 24.5228 12.8818C24.2623 12.8994 24.0055 12.811 23.8111 12.6363C23.6166 12.4618 23.5011 12.216 23.4909 11.955C23.4807 11.6938 23.5764 11.4398 23.7564 11.2504H23.7567Z" fill="white"/>
</svg>
