<svg width="24" height="24" viewBox="0 0 24 24" fill="none" color="#26313A"
    xmlns="http://www.w3.org/2000/svg">
    <path d="M12 6C13.125 6 14.1953 6.20065 15.2109 6.60195C16.2318 7.00326 17.1536 7.58697 17.9766 8.35309C18.3724 8.72834 18.7396 9.14267 19.0781 9.59609C19.4219 10.0495 19.7031 10.5264 19.9219 11.0267C19.974 11.1362 20 11.2508 20 11.3707C20 11.5948 19.9219 11.785 19.7656 11.9414C19.6146 12.0925 19.4271 12.1681 19.2031 12.1681C19.0365 12.1681 18.8932 12.129 18.7734 12.0508C18.6536 11.9674 18.5547 11.8554 18.4766 11.7147C18.2578 11.2977 18.0234 10.9094 17.7734 10.5498C17.5234 10.1902 17.2266 9.84886 16.8828 9.52573C16.2109 8.89511 15.4583 8.41564 14.625 8.0873C13.7969 7.75896 12.9219 7.59479 12 7.59479C11.0781 7.59479 10.2005 7.75896 9.36719 8.0873C8.53906 8.41564 7.78906 8.89511 7.11719 9.52573C6.77344 9.84886 6.47656 10.1902 6.22656 10.5498C5.97656 10.9094 5.74219 11.2977 5.52344 11.7147C5.45052 11.8554 5.35156 11.9674 5.22656 12.0508C5.10156 12.129 4.95833 12.1681 4.79688 12.1681C4.57292 12.1681 4.38281 12.0925 4.22656 11.9414C4.07552 11.785 4 11.5948 4 11.3707C4 11.2508 4.02604 11.1362 4.07812 11.0267C4.29688 10.5264 4.57552 10.0495 4.91406 9.59609C5.25781 9.14267 5.6276 8.72834 6.02344 8.35309C6.84635 7.58697 7.76562 7.00326 8.78125 6.60195C9.80208 6.20065 10.875 6 12 6ZM12 9.19739C12.4427 9.19739 12.8594 9.28078 13.25 9.44756C13.6406 9.61433 13.9792 9.84365 14.2656 10.1355C14.5573 10.4221 14.7865 10.7609 14.9531 11.1518C15.1198 11.5427 15.2031 11.9596 15.2031 12.4026C15.2031 12.8456 15.1172 13.2625 14.9453 13.6534C14.7786 14.0391 14.5495 14.3778 14.2578 14.6697C13.9714 14.9564 13.6328 15.1831 13.2422 15.3498C12.8568 15.5166 12.4427 15.6 12 15.6C11.5573 15.6 11.1406 15.5166 10.75 15.3498C10.3646 15.1831 10.026 14.9564 9.73438 14.6697C9.44792 14.3778 9.21875 14.0391 9.04688 13.6534C8.88021 13.2625 8.79688 12.8456 8.79688 12.4026C8.79688 11.9596 8.88021 11.5427 9.04688 11.1518C9.21354 10.7609 9.4401 10.4221 9.72656 10.1355C10.0182 9.84365 10.3594 9.61433 10.75 9.44756C11.1406 9.28078 11.5573 9.19739 12 9.19739Z" fill="currentColor"/>
</svg>
