<svg width="20" height="20" viewBox="0 0 20 20" fill="none" color="#8499AB"
    xmlns="http://www.w3.org/2000/svg">
    <path fill-rule="evenodd" clip-rule="evenodd" d="M5 0C5.55228 0 6 0.447715 6 1V2H14V1C14 0.447715 14.4477 0 15 0C15.5523 0 16 0.447715 16 1V2H18C18.5272 2 19.0443 2.18011 19.4321 2.56789C19.8199 2.95567 20 3.47275 20 4V17C20 18.6523 18.6523 20 17 20H3C1.34772 20 0 18.6523 0 17V4C0 3.47275 0.180114 2.95567 0.567893 2.56789C0.955672 2.18011 1.47275 2 2 2H4V1C4 0.447715 4.44772 0 5 0ZM2 6V4H18V6H2ZM18 8V17C18 17.5477 17.5477 18 17 18H3C2.45228 18 2 17.5477 2 17V8H18Z" fill="currentColor"/>
</svg>