<svg width="40" height="41" viewBox="0 0 40 41" fill="none" xmlns="http://www.w3.org/2000/svg">
<mask id="mask0_3805_28705" style="mask-type:alpha" maskUnits="userSpaceOnUse" x="0" y="0" width="40" height="41">
<circle cx="20" cy="20.5" r="20" fill="#C4C4C4"/>
</mask>
<g mask="url(#mask0_3805_28705)">
<rect y="-0.928711" width="40" height="55" fill="#E6E9ED"/>
</g>
<path fill-rule="evenodd" clip-rule="evenodd" d="M16.9472 12.8423C17.1371 12.6248 17.4118 12.5 17.7006 12.5H22.2994C22.5882 12.5 22.8629 12.6248 23.0528 12.8423L24.6073 14.623C25.177 15.2755 26.001 15.65 26.8672 15.65H29C29.5523 15.65 30 16.0977 30 16.65V27.5C30 28.0523 29.5523 28.5 29 28.5H11C10.4477 28.5 10 28.0523 10 27.5V16.65C10 16.0977 10.4477 15.65 11 15.65H13.1328C13.999 15.65 14.823 15.2755 15.3927 14.623L16.9472 12.8423ZM17.7006 10.5C16.8343 10.5 16.0103 10.8745 15.4406 11.527L13.8861 13.3077C13.6962 13.5252 13.4215 13.65 13.1328 13.65H11C9.34315 13.65 8 14.9931 8 16.65V27.5C8 29.1569 9.34315 30.5 11 30.5H29C30.6569 30.5 32 29.1569 32 27.5V16.65C32 14.9931 30.6569 13.65 29 13.65H26.8672C26.5785 13.65 26.3038 13.5252 26.1139 13.3077L24.5594 11.527C23.9897 10.8745 23.1657 10.5 22.2994 10.5H17.7006ZM23 22C23 23.6569 21.6569 25 20 25C18.3431 25 17 23.6569 17 22C17 20.3431 18.3431 19 20 19C21.6569 19 23 20.3431 23 22ZM25 22C25 24.7614 22.7614 27 20 27C17.2386 27 15 24.7614 15 22C15 19.2386 17.2386 17 20 17C22.7614 17 25 19.2386 25 22Z" fill="#26313A"/>
</svg>
