<svg width="105" height="104" viewBox="0 0 105 104" fill="none" xmlns="http://www.w3.org/2000/svg">
<path d="M36.0279 55.8416C36.4017 55.6921 36.728 55.5527 37.0101 55.4202C37.2888 55.291 37.5709 55.1483 37.8529 54.9988C38.1316 54.8492 38.4409 54.6827 38.7774 54.4924V57.4084C38.7774 58.6421 38.2336 59.801 37.1494 60.8852C36.626 61.4085 36.0177 61.8096 35.3278 62.0917C34.6344 62.3704 33.9343 62.5131 33.224 62.5131C31.3921 62.5131 30.4745 61.711 30.4745 60.1001C30.4745 59.2402 30.7634 58.5401 31.3446 57.9963C31.9223 57.456 33.0167 56.902 34.6242 56.3412C35.185 56.1543 35.6506 55.9878 36.0279 55.8382V55.8416ZM104.004 52.0012C104.004 22.644 79.5542 -1.10557 49.9487 0.0397577C22.9567 1.08653 1.08654 22.9566 0.0397582 49.945C-1.10558 79.5504 22.6441 104 52.0014 104C60.3927 104 68.4746 102.015 75.6967 98.3141C78.7113 96.7711 79.5134 92.8288 77.2907 90.273C77.2669 90.2458 77.2431 90.2186 77.2193 90.188C75.6457 88.3766 73.0424 87.8872 70.908 88.9781C64.8755 92.0641 58.0952 93.6546 51.0668 93.5017C28.8398 93.0123 10.7828 74.7787 10.4906 52.5484C10.1881 29.4038 28.9281 10.4837 52.0014 10.4837C75.0748 10.4837 93.5157 29.1081 93.5157 51.9978C93.5157 57.6531 92.4044 63.1113 90.2123 68.25C87.6327 73.3513 85.9028 73.6164 84.2069 73.4261C82.9086 73.2799 81.002 72.4065 81.002 68.2398V46.6416C81.002 44.7349 80.917 43.3143 80.7505 42.3797C80.5839 41.4451 80.2373 40.6056 79.7139 39.8579C78.2593 37.6522 75.9448 36.5477 72.7739 36.5477C71.1324 36.5477 69.6098 36.857 68.2129 37.4721C66.8127 38.0907 65.3309 39.0695 63.7641 40.4153L63.7845 24.8802H53.1842L53.1842 68.5151H63.6723V47.2601C64.121 46.3255 64.6987 45.605 65.4124 45.102C66.1228 44.599 66.8705 44.3441 67.6555 44.3441C68.4406 44.3441 69.066 44.6058 69.6471 45.1292C70.2249 45.6526 70.5172 46.2881 70.5172 47.0358V68.5151H70.5274C70.6259 77.0286 75.3161 82.7723 82.9222 83.8326C91.8844 85.0833 97.0231 78.0584 99.6367 72.8585H99.6469C101.89 68.5151 104.001 59.7262 104.001 52.0012H104.004ZM38.7774 48.1573C37.8054 48.5312 36.9455 48.8201 36.1978 49.0274C35.4501 49.2347 34.5903 49.4658 33.6182 49.7275L30.4779 50.5126C26.9637 51.3724 24.374 52.5959 22.712 54.1865C21.0467 55.777 20.2174 57.823 20.2174 60.3278C20.2174 61.6363 20.4519 62.8428 20.9175 63.9439C21.3832 65.0485 22.0493 65.9899 22.9092 66.775C23.769 67.56 24.7886 68.1786 25.9645 68.6272C27.1438 69.0758 28.4421 69.3001 29.8628 69.3001C31.1712 69.3001 32.4695 69.103 33.761 68.7122C35.0525 68.3213 36.2386 67.7504 37.3228 67.0027C37.6592 66.7784 37.9583 66.5439 38.22 66.3026C38.4817 66.0613 38.8181 65.7316 39.2294 65.3204L39.7324 68.5185H49.3233C49.2486 68.1446 49.201 67.8183 49.184 67.5363C49.1636 67.2576 49.1466 66.9653 49.1296 66.6662C49.1092 66.3671 49.1024 66.0137 49.1024 65.599V47.4844C49.1024 43.8581 47.9911 41.129 45.765 39.2972C43.5389 37.4653 40.2796 36.5477 35.9803 36.5477C32.4661 36.5477 29.5875 37.2104 27.3444 38.5393C25.1013 39.8681 23.2864 41.9685 21.9032 44.8471L30.9877 47.651C31.9597 45.3331 33.4721 44.1742 35.5317 44.1742C36.5037 44.1742 37.2616 44.4359 37.802 44.9592C38.3423 45.4826 38.6516 46.176 38.7264 47.0358L38.7808 48.1573H38.7774Z" fill="white"/>
</svg>
